<?xml version="1.0" encoding="utf-8"?>
<!-- Generator: Adobe Illustrator 19.0.0, SVG Export Plug-In . SVG Version: 6.00 Build 0)  -->
<svg version="1.1"
	 id="svg2" xmlns:dc="http://purl.org/dc/elements/1.1/" xmlns:cc="http://creativecommons.org/ns#" xmlns:rdf="http://www.w3.org/1999/02/22-rdf-syntax-ns#" xmlns:svg="http://www.w3.org/2000/svg" xmlns:sodipodi="http://sodipodi.sourceforge.net/DTD/sodipodi-0.dtd" xmlns:inkscape="http://www.inkscape.org/namespaces/inkscape" sodipodi:docname="xda-logo_newcolors.svg" inkscape:version="0.48.5 r10040"
	 xmlns="http://www.w3.org/2000/svg" xmlns:xlink="http://www.w3.org/1999/xlink" x="0px" y="0px" viewBox="-169 402.9 256.4 36"
	 style="enable-background:new -169 402.9 256.4 36;" xml:space="preserve">
<style type="text/css">
	.st0{fill:#F59812;}
</style>
<sodipodi:namedview  fit-margin-left="0" fit-margin-top="0" showgrid="false" inkscape:cy="-19.297665" inkscape:cx="114.9905" inkscape:zoom="3.959798" borderopacity="1.0" bordercolor="#666666" pagecolor="#ffffff" id="base" fit-margin-bottom="0" fit-margin-right="0" inkscape:window-maximized="1" inkscape:window-y="-8" inkscape:current-layer="layer1" inkscape:document-units="px" inkscape:pageopacity="0.0" inkscape:window-x="-8" inkscape:window-height="1137" inkscape:window-width="1920" inkscape:pageshadow="2">
	<sodipodi:guide  orientation="0,744.09448" position="-174.65582,-776.30116" id="guide3816"></sodipodi:guide>
	<sodipodi:guide  orientation="-1052.3622,0" position="569.43866,-776.30116" id="guide3818"></sodipodi:guide>
	<sodipodi:guide  orientation="0,-744.09448" position="33.4356,35.861491" id="guide3820"></sodipodi:guide>
	<sodipodi:guide  orientation="1052.3622,0" position="-1.9197296,118.694" id="guide3822"></sodipodi:guide>
	<sodipodi:guide  orientation="0,256.40256" position="0,0" id="guide3824"></sodipodi:guide>
	<sodipodi:guide  orientation="-35.969112,0" position="256.40256,0" id="guide3826"></sodipodi:guide>
	<sodipodi:guide  orientation="0,-256.40256" position="256.40256,35.969112" id="guide3828"></sodipodi:guide>
	<sodipodi:guide  orientation="35.969112,0" position="0,35.969112" id="guide3830"></sodipodi:guide>
</sodipodi:namedview>
<g id="layer1" transform="translate(-174.65582,-240.09191)" inkscape:label="Layer 1" inkscape:groupmode="layer">
	<g id="g3015" transform="translate(-174.82967,-127.67255)">
		<g id="g3021" transform="translate(-34.85,1.263)">
			<path id="path3023" inkscape:connector-curvature="0" d="M253.7,769.4c-0.2,0.1-0.4,0.3-0.3,0.5v6.3h-9.5c-2.1,0-3.7,0.5-5,1.7
				c-1.2,1.1-1.8,2.8-1.8,4.9v8.9v0.1c0,0.2-0.1,0.5-0.1,0.8c0,1.3,0.4,2.5,1.1,3.5c0.7,1.1,1.7,1.8,2.9,2.1
				c0.7,0.2,1.6,0.3,2.9,0.3h4.7c2.3,0,4-0.5,5.3-1.6c1.2-1.1,1.8-2.7,1.8-4.8v-22c0-0.3-0.2-0.5-0.5-0.5h-1.3
				C253.8,769.4,253.7,769.4,253.7,769.4 M215.8,776.2c-0.3,0.1-0.4,0.4-0.3,0.6c0,0.1,0.1,0.1,0.1,0.2l8,10.3l-8.2,10.2
				c-0.2,0.2-0.1,0.5,0.1,0.7c0.1,0.1,0.2,0.1,0.3,0.1h1.7c0.2,0,0.3-0.1,0.4-0.2l7.1-9l7.1,9c0.1,0.1,0.2,0.2,0.4,0.2h1.7
				c0.3,0,0.5-0.2,0.5-0.5c0-0.1,0-0.2-0.1-0.3l-8.1-10.3l7.9-10.3c0.2-0.2,0.1-0.5-0.1-0.7c-0.1-0.1-0.2-0.1-0.3-0.1h-1.7
				c-0.2,0-0.3,0.1-0.4,0.2l-6.9,9l-7-9c-0.1-0.1-0.2-0.2-0.4-0.2H216C215.9,776.2,215.9,776.2,215.8,776.2 M260.6,776.2
				c-0.2,0.1-0.4,0.3-0.3,0.5v1.3c0,0.3,0.2,0.5,0.5,0.5h11.6c1.4,0,2.4,0.3,3,0.9c0.6,0.6,1,1.6,1,2.9v0.9h-10.1
				c-1.8,0-3.3,0.6-4.4,1.7c-1.1,1.1-1.6,2.6-1.6,4.4v3.2c0,1.5,0.5,2.8,1.3,3.8c0,0,0,0,0,0c1.1,1.3,2.8,2,4.8,2h6.3
				c1.9,0,3.4-0.6,4.4-1.7c1-1.1,1.5-2.7,1.5-4.5v-9.5c0-2.1-0.6-3.7-1.8-4.8c-1.2-1.1-2.9-1.6-5.2-1.6h-10.9
				C260.7,776.2,260.6,776.2,260.6,776.2 M243.7,778.5h9.6v13.3c0,1.3-0.4,2.2-1.1,2.9c-0.7,0.7-1.7,1.1-3.2,1.3c0,0,0,0-0.1,0h-0.3
				c0,0,0,0-0.1,0c-0.2,0-0.3,0-0.4,0h-4.4c-1.8,0-3-0.4-3.6-1c-0.6-0.6-1-1.7-1-3.5v-8.7c0-1.7,0.6-2.9,1.9-3.8v0
				C241.6,778.8,242.5,778.5,243.7,778.5 M266.1,785.5h10.2v7c0,1.3-0.3,2.2-0.9,2.8c-0.6,0.6-1.4,0.9-2.7,0.9h-6.5
				c-0.1,0-0.3,0-0.6-0.1c-1.1-0.2-1.9-0.6-2.4-1.2c-0.5-0.6-0.8-1.4-0.8-2.5v-3.1c0-1.1,0.3-2,0.8-2.6c0.5-0.6,1.2-1,2.3-1.2
				c0,0,0,0,0,0C265.8,785.5,266,785.5,266.1,785.5"/>
			<path id="path3025" inkscape:connector-curvature="0" class="st0" d="M372.1,769.5c-0.2,0-0.4,0.2-0.4,0.5v28
				c0,0.3,0.2,0.5,0.5,0.5c0,0,0,0,0,0h1.3c0.3,0,0.5-0.2,0.5-0.5c0,0,0,0,0,0v-28c0-0.3-0.2-0.5-0.5-0.5c0,0,0,0,0,0H372.1
				C372.2,769.5,372.2,769.5,372.1,769.5 M300.5,769.5c-0.2,0-0.4,0.2-0.4,0.5v6.3h-9.6c-2.1,0-3.7,0.6-4.9,1.7
				c-1.2,1.1-1.8,2.8-1.8,4.9v9v0c0,0.3,0,0.5,0,0.8c0,1.3,0.4,2.4,1.1,3.4c0.7,1,1.7,1.7,2.9,2.1c0.7,0.2,1.6,0.3,2.9,0.3h4.7
				c2.3,0,4-0.5,5.2-1.6c1.2-1.1,1.8-2.7,1.8-4.8V770c0-0.3-0.2-0.5-0.5-0.5c0,0,0,0,0,0L300.5,769.5
				C300.6,769.5,300.6,769.5,300.5,769.5 M313.9,776.3c-0.2,0-0.5,0-0.9,0c-2,0.2-3.6,0.8-4.6,1.8c-1,1.1-1.4,2.7-1.4,4.8v9
				c0,0.1-0.1,0.3-0.1,0.6c0,1.9,0.7,3.5,2.2,4.5c1.3,1,2.9,1.4,4.9,1.4h10.9c0.3,0,0.5-0.2,0.5-0.5c0,0,0,0,0,0v-1.3
				c0-0.3-0.2-0.5-0.5-0.5c0,0,0,0,0,0h-11.2c-1.7,0-2.8-0.4-3.4-1c-0.5-0.5-0.9-1.7-1-3.5l-0.1-0.6l15.9-6.9
				c0.2-0.1,0.3-0.2,0.3-0.4v-0.6c0-2.3-0.4-4.1-1.4-5.2c-1-1.1-2.7-1.7-4.9-1.7L313.9,776.3 M356.7,776.3c-0.2,0-0.5,0-0.9,0
				c-2,0.2-3.6,0.8-4.6,1.8c-1,1.1-1.4,2.7-1.4,4.8v9c0,0.1,0,0.1,0,0.2c0,0.1,0,0.2,0,0.4c0,1.9,0.7,3.5,2.2,4.5
				c1.3,1,2.9,1.4,4.9,1.4h10.9c0.3,0,0.5-0.2,0.5-0.5c0,0,0,0,0,0v-1.3c0-0.3-0.2-0.5-0.5-0.5c0,0,0,0,0,0h-11.2
				c-1.7,0-2.8-0.4-3.4-1c-0.5-0.5-0.9-1.7-1.1-3.5l0-0.6l15.9-6.9c0.2-0.1,0.3-0.2,0.3-0.4v-0.6c0-2.3-0.4-4.1-1.4-5.2
				c-1-1.1-2.7-1.7-4.9-1.7L356.7,776.3 M431.3,776.3c-0.2,0-0.5,0-0.9,0c-2,0.2-3.6,0.8-4.6,1.8c-1,1.1-1.4,2.7-1.4,4.8v9
				c0,0.1,0,0.1,0,0.2c0,0.1,0,0.2,0,0.4c0,1.9,0.7,3.5,2.2,4.5c1.3,1,2.9,1.4,4.9,1.4h10.9c0.3,0,0.5-0.2,0.5-0.5c0,0,0,0,0,0v-1.3
				c0-0.3-0.2-0.5-0.5-0.5c0,0,0,0,0,0h-11.2c-1.7,0-2.8-0.4-3.4-1c-0.5-0.5-0.9-1.7-1.1-3.5l0-0.6l15.9-6.9
				c0.2-0.1,0.3-0.2,0.3-0.4v-0.6c0-2.3-0.4-4.1-1.4-5.2c-1-1.1-2.7-1.7-4.9-1.7L431.3,776.3 M326.5,776.3c-0.3,0-0.4,0.2-0.4,0.5
				c0,0.1,0,0.1,0,0.2l9.5,20.4c0,0,0,0,0,0.1c0.2,0.3,0.3,0.5,0.3,0.6c0,0,0,0,0,0c0.2,0.3,0.6,0.6,1,0.6c0.3,0,0.6-0.2,0.8-0.4
				c0.2-0.2,0.3-0.5,0.5-0.8l9.6-20.4c0.1-0.2,0-0.5-0.2-0.6c-0.1,0-0.1,0-0.2,0H346c-0.2,0-0.3,0.1-0.4,0.3l-8.7,18.6l-8.6-18.6
				c-0.1-0.2-0.2-0.3-0.4-0.3L326.5,776.3C326.5,776.3,326.5,776.3,326.5,776.3 M385.3,776.3c-1.9,0-3.4,0.4-4.5,1.3h0
				c-0.8,0.7-1.5,1.5-1.8,2.4c-0.2,0.7-0.3,1.7-0.3,3v8.9v0.1c0,0.2,0,0.5,0,0.7c0,2.4,1.2,4.2,3.4,5.2c0.8,0.3,1.8,0.5,3.3,0.5h5.1
				c2,0,3.7-0.5,4.8-1.6c1.1-1.1,1.6-2.7,1.6-4.8v-9c0-2.2-0.5-3.8-1.6-5s-2.7-1.7-4.8-1.7L385.3,776.3 M407.9,776.3
				c-2.1,0-3.8,0.5-4.9,1.6c-1.1,1.1-1.7,2.6-1.7,4.6v22.5c0,0.3,0.2,0.5,0.5,0.5c0,0,0,0,0,0h1.2c0.3,0,0.5-0.2,0.5-0.5
				c0,0,0,0,0,0v-6.5h10c2.3,0,4.1-0.9,5.3-2.7c0.6-0.9,0.9-2.2,0.9-3.8v-9.5c0-2-0.6-3.5-1.8-4.6c-1.2-1-3-1.5-5.2-1.5L407.9,776.3
				 M452.1,776.3c-0.2,0-0.3,0-0.3,0c0,0,0,0-0.1,0c-1.8,0.2-3.2,0.8-4.1,1.9s-1.4,2.6-1.4,4.5l0,15.2c0,0.3,0.2,0.5,0.5,0.5
				c0,0,0,0,0,0h1.3c0.3,0,0.5-0.2,0.5-0.5c0,0,0,0,0,0v-15.2c0-1.4,0.3-2.4,0.8-3c0.5-0.7,1.4-1.1,2.5-1.2c0,0,0,0,0.1,0
				c0.1,0,0.2,0,0.5,0h1.6c0.3,0,0.5-0.2,0.5-0.5c0,0,0,0,0,0v-1.3c0-0.3-0.2-0.5-0.5-0.5c0,0,0,0,0,0L452.1,776.3
				C452.2,776.3,452.2,776.3,452.1,776.3 M461.1,776.3c-1.7,0-3.1,0.4-4.3,1.2c-1.3,0.9-1.9,2.3-1.9,3.9v1.3c0,1.8,0.5,3.2,1.7,4.2
				c1.1,0.9,2.7,1.4,4.8,1.4h4.9c1.2,0,1.9,0.3,2.3,0.8c0,0,0,0,0,0c0.3,0.4,0.6,1.2,0.7,2.5l0.1,1v0c0,0.1,0,0.3,0,0.8
				c-0.1,1-0.4,1.7-0.9,2.1s-1.3,0.7-2.4,0.7h-10.6c-0.3,0-0.5,0.2-0.5,0.5c0,0,0,0,0,0v1.3c0,0.3,0.2,0.5,0.5,0.5c0,0,0,0,0,0H466
				c2.3,0,4.1-0.9,5-2.6c0.4-0.8,0.6-1.9,0.6-3.2v-1c0-1.8-0.4-3.2-1.3-4.1c-0.9-1-2.2-1.4-3.9-1.4h-5c-1.5,0-2.6-0.2-3.2-0.6
				c-0.8-0.5-1.1-1.3-1.1-2.7v-1.3c0-1,0.4-1.7,1.2-2.3c0.5-0.4,1.4-0.6,2.8-0.6h10.2c0.3,0,0.5-0.2,0.5-0.5c0,0,0,0,0,0v-1.3
				c0-0.3-0.2-0.5-0.5-0.5c0,0,0,0,0,0L461.1,776.3 M314.2,778.5h4.3c1.6,0,2.8,0.3,3.5,0.9s1.1,1.4,1.2,2.7c0,0,0,0.3-0.1,0.5
				l-13.9,6.1v-6.2c0-1.6,0.4-2.6,1.3-3.2C311.1,778.8,312.4,778.5,314.2,778.5 M357.1,778.5h4.3c1.6,0,2.8,0.3,3.5,0.9
				s1.1,1.4,1.2,2.7c0,0.1,0,0.3,0,0.5l-13.9,6.1v-6.2c0-1.6,0.4-2.6,1.3-3.2C354.1,778.8,355.3,778.5,357.1,778.5 M385.3,778.5h5
				c1.5,0,2.5,0.3,3.2,1c0.7,0.7,1,1.7,1,3.1v9.9c0,1.8-0.6,2.8-1.9,3.4c-0.4,0.2-1.2,0.3-2.3,0.3h-5c-1,0-1.6,0-1.9-0.1
				c-0.9-0.2-1.5-0.6-2-1.2c-0.4-0.6-0.7-1.5-0.7-2.6v-9.8c0-2,0.6-3.1,2-3.8C383.2,778.6,384,778.5,385.3,778.5 M408,778.5h4.8
				c1.6,0,2.8,0.3,3.5,1s1.1,1.6,1.1,3v9.6c0,1.5-0.3,2.5-1,3.2c-0.6,0.7-1.6,1-3,1h-10v-13.6c0-1.4,0.4-2.4,1.1-3.1
				C405.3,778.9,406.4,778.5,408,778.5 M431.6,778.5h4.3c1.6,0,2.8,0.3,3.5,0.9s1.1,1.4,1.2,2.7c0,0.1,0,0.3,0,0.5l-13.9,6.1v-6.2
				c0-1.6,0.4-2.6,1.3-3.2C428.6,778.8,429.8,778.5,431.6,778.5 M290.5,778.5h9.6v13.4c0,1.3-0.4,2.2-1.1,2.9
				c-0.7,0.7-1.8,1.1-3.3,1.3c0,0,0,0-0.1,0h-0.3c0,0,0,0-0.1,0c-0.2,0-0.3,0-0.4,0h-4.4c-1.8,0-3-0.4-3.6-1c-0.6-0.6-1-1.8-1-3.6
				v-8.7c0-1.7,0.6-2.9,1.8-3.8C288.3,778.8,289.3,778.5,290.5,778.5"/>
		</g>
	</g>
</g>
</svg>
