<?xml version="1.0" encoding="utf-8"?>
<!-- Generator: Adobe Illustrator 24.0.3, SVG Export Plug-In . SVG Version: 6.00 Build 0)  -->
<svg version="1.1" id="Layer_1" xmlns="http://www.w3.org/2000/svg" xmlns:xlink="http://www.w3.org/1999/xlink" x="0px" y="0px"
	 viewBox="0 0 1240 1240" style="enable-background:new 0 0 1240 1240;" xml:space="preserve">
<style type="text/css">
	.st0{fill:url(#SVGID_1_);}
	.st1{fill:url(#SVGID_2_);}
	.st2{fill:url(#SVGID_3_);}
	.st3{fill:url(#SVGID_4_);}
	.st4{fill:url(#SVGID_5_);}
	.st5{fill:url(#SVGID_6_);}
	.st6{fill:url(#SVGID_7_);}
</style>
<g id="surface1">
	
		<linearGradient id="SVGID_1_" gradientUnits="userSpaceOnUse" x1="491.7394" y1="981.6356" x2="547.8825" y2="976.8234" gradientTransform="matrix(12.4 0 0 -12.4 -5882.3999 12822.3994)">
		<stop  offset="0" style="stop-color:#881FFF"/>
		<stop  offset="0.2415" style="stop-color:#A13BE7"/>
		<stop  offset="0.7609" style="stop-color:#E084AA"/>
		<stop  offset="1" style="stop-color:#FFA78C"/>
	</linearGradient>
	<path class="st0" d="M943.3,489.2l-45.6-45.6c8.4,13.2,13.2,28.8,13.2,45.6v207c0,47.1-38.3,85.4-85.4,85.4h-98.1L594.1,894.6
		l58,58l134-113.8h76.2c58.5,0,106-47.4,106-106V548.6C968.3,525.3,958.7,504.2,943.3,489.2z"/>
	
		<linearGradient id="SVGID_2_" gradientUnits="userSpaceOnUse" x1="491.5073" y1="978.9279" x2="547.6504" y2="974.1157" gradientTransform="matrix(12.4 0 0 -12.4 -5882.3999 12822.3994)">
		<stop  offset="0" style="stop-color:#881FFF"/>
		<stop  offset="0.2415" style="stop-color:#A13BE7"/>
		<stop  offset="0.7609" style="stop-color:#E084AA"/>
		<stop  offset="1" style="stop-color:#FFA78C"/>
	</linearGradient>
	<path class="st1" d="M353.1,664.8l45.7,45.7c15.1,15.4,36.2,24.9,59.4,24.9h37.3V678h-96.8C382,678,366.4,673.2,353.1,664.8z"/>
	
		<linearGradient id="SVGID_3_" gradientUnits="userSpaceOnUse" x1="492.3934" y1="989.2657" x2="548.5365" y2="984.4535" gradientTransform="matrix(12.4 0 0 -12.4 -5882.3999 12822.3994)">
		<stop  offset="0" style="stop-color:#881FFF"/>
		<stop  offset="0.2415" style="stop-color:#A13BE7"/>
		<stop  offset="0.7609" style="stop-color:#E084AA"/>
		<stop  offset="1" style="stop-color:#FFA78C"/>
	</linearGradient>
	<path class="st2" d="M767.3,735.4c58.5,0,106-47.4,106-106V445.1c0-23.3-9.5-44.3-25-59.4l-45.6-45.6c8.4,13.2,13.2,28.8,13.2,45.6
		v207c0,47.1-38.3,85.4-85.4,85.4h-98.1L499.1,791.2l58,58l134-113.8H767.3z"/>
	
		<linearGradient id="SVGID_4_" gradientUnits="userSpaceOnUse" x1="493.7296" y1="1002.9915" x2="552.483" y2="997.9556" gradientTransform="matrix(12.4 0 0 -12.4 -5882.3999 12822.3994)">
		<stop  offset="0" style="stop-color:#881FFF"/>
		<stop  offset="0.2415" style="stop-color:#A13BE7"/>
		<stop  offset="0.7609" style="stop-color:#E084AA"/>
		<stop  offset="1" style="stop-color:#FFA78C"/>
	</linearGradient>
	<path class="st3" d="M353.1,486.2c0-6.5,0.7-12.9,1.8-19.1c-13.4-6.8-24.9-17.8-32-32.3c-17.5-35.6-2.7-78.8,32.9-96.3
		c24.2-11.9,51.9-8.8,72.6,5.6l-23.5,23.3l79.6,12.8c6.9,0.1,12.5-5.4,12.6-12.3L485.8,288l-25.8,25.1c-33.9-27.4-82-34.4-123.7-14
		c-57.3,28.1-81,97.7-52.9,154.9c14.6,29.7,40.3,50.2,69.6,59.4V486.2z"/>
	
		<linearGradient id="SVGID_5_" gradientUnits="userSpaceOnUse" x1="496.1852" y1="992.8172" x2="574.7822" y2="992.8172" gradientTransform="matrix(12.4 0 0 -12.4 -5882.3999 12822.3994)">
		<stop  offset="0" style="stop-color:#881FFF"/>
		<stop  offset="0.2415" style="stop-color:#A13BE7"/>
		<stop  offset="0.7609" style="stop-color:#E084AA"/>
		<stop  offset="1" style="stop-color:#FFA78C"/>
	</linearGradient>
	<path class="st4" d="M444.7,545.5c18.8,0,34-15.3,34-34c0-18.8-15.3-34-34-34c-18.7,0-34,15.3-34,34
		C410.7,530.3,425.9,545.5,444.7,545.5z"/>
	
		<linearGradient id="SVGID_6_" gradientUnits="userSpaceOnUse" x1="496.1852" y1="992.8172" x2="574.7822" y2="992.8172" gradientTransform="matrix(12.4 0 0 -12.4 -5882.3999 12822.3994)">
		<stop  offset="0" style="stop-color:#881FFF"/>
		<stop  offset="0.2415" style="stop-color:#A13BE7"/>
		<stop  offset="0.7609" style="stop-color:#E084AA"/>
		<stop  offset="1" style="stop-color:#FFA78C"/>
	</linearGradient>
	<path class="st5" d="M716.8,545.5c18.8,0,34-15.3,34-34c0-18.8-15.3-34-34-34c-18.8,0-34,15.3-34,34
		C682.8,530.3,698,545.5,716.8,545.5z"/>
	
		<linearGradient id="SVGID_7_" gradientUnits="userSpaceOnUse" x1="496.1852" y1="992.8172" x2="574.7822" y2="992.8172" gradientTransform="matrix(12.4 0 0 -12.4 -5882.3999 12822.3994)">
		<stop  offset="0" style="stop-color:#881FFF"/>
		<stop  offset="0.2415" style="stop-color:#A13BE7"/>
		<stop  offset="0.7609" style="stop-color:#E084AA"/>
		<stop  offset="1" style="stop-color:#FFA78C"/>
	</linearGradient>
	<path class="st6" d="M580.7,545.5c18.8,0,34-15.3,34-34c0-18.8-15.3-34-34-34c-18.7,0-34,15.3-34,34
		C546.7,530.3,561.9,545.5,580.7,545.5z"/>
</g>
</svg>
