<?xml version="1.0" encoding="utf-8"?>
<!-- Generator: Adobe Illustrator 24.0.1, SVG Export Plug-In . SVG Version: 6.00 Build 0)  -->
<svg version="1.1" id="Layer_1" xmlns="http://www.w3.org/2000/svg" xmlns:xlink="http://www.w3.org/1999/xlink" x="0px" y="0px"
	 viewBox="0 0 800 800" style="enable-background:new 0 0 800 800;" xml:space="preserve">
<style type="text/css">
	.st0{display:none;}
	.st1{display:inline;fill:#871FFF;}
	.st2{fill:url(#SVGID_1_);}
	.st3{fill:none;stroke:#80C7F5;stroke-width:5.3404;stroke-miterlimit:10;}
	.st4{clip-path:url(#SVGID_3_);fill:#FFFFFF;}
	.st5{clip-path:url(#SVGID_5_);fill:#FFFFFF;}
	.st6{clip-path:url(#SVGID_7_);fill:#FFFFFF;}
	.st7{clip-path:url(#SVGID_9_);fill:#FFFFFF;}
	.st8{clip-path:url(#SVGID_11_);fill:#FFFFFF;}
	.st9{clip-path:url(#SVGID_13_);fill:#FFFFFF;}
	.st10{clip-path:url(#SVGID_15_);fill:#FFFFFF;}
	.st11{clip-path:url(#SVGID_17_);fill:#FFFFFF;}
	.st12{clip-path:url(#SVGID_19_);fill:#FFFFFF;}
	.st13{fill:url(#SVGID_20_);}
	.st14{fill:#D6219C;}
	.st15{fill:#FFFFFF;}
	.st16{fill:#FFA68C;}
	.st17{fill:#231F20;}
	.st18{fill:url(#SVGID_21_);}
	.st19{fill:url(#SVGID_22_);}
	.st20{fill:url(#SVGID_23_);}
	.st21{fill:#CD138C;}
	.st22{fill:url(#SVGID_24_);}
	.st23{fill:url(#SVGID_25_);}
	.st24{fill:url(#SVGID_26_);}
	.st25{fill:url(#SVGID_27_);}
	.st26{fill:none;stroke:#D6219C;stroke-width:0.4886;stroke-miterlimit:10;}
</style>
<g id="Layer_1_1_" class="st0">
	<rect x="-7.2" y="-7.2" class="st1" width="814.5" height="814.5"/>
</g>
<g id="Layer_1_2_">
	<linearGradient id="SVGID_1_" gradientUnits="userSpaceOnUse" x1="403.4554" y1="711.1503" x2="403.4554" y2="59.3125">
		<stop  offset="0" style="stop-color:#871FFF"/>
		<stop  offset="1" style="stop-color:#80C7F5"/>
	</linearGradient>
	<circle class="st2" cx="403.5" cy="391.8" r="299.5"/>
	<g id="Layer_2_2_">
		<g>
			<path class="st3" d="M693.1,253.1"/>
			<g>
				<g>
					<g>
						<g>
							<g>
								<defs>
									<circle id="SVGID_2_" cx="404.4" cy="390.4" r="299.5"/>
								</defs>
								<clipPath id="SVGID_3_">
									<use xlink:href="#SVGID_2_"  style="overflow:visible;"/>
								</clipPath>
								<path class="st4" d="M660.9,554c-6.9-9.9-2.3-25.2,0.8-34.5c3.1-9.3,15-30.9,15-53.1c0-24.5-8.2-32.1-8.2-44
									c0-12.3,2.1-16.1,2.1-18.7c0-1.1-0.8-2-2.1-2c-2.5,0-3,4.6-7.8,4.6c-3.9,0-4.4-9.3-11.7-9.3c-5.4,0-4.8,12.8-9.8,12.8
									c-2.9,0-4-4.3-7.5-4.3c-6.8,0-5.7,14.6-17.3,14.6c-24.2,0-39.4-10.2-39.4-29.2c0-14.8,4-16,4-31.1
									c0-14.1-17.6-12.4-17.6-34.3c0-18.8,27.7-21.9,27.7-32.5c0-9.9-11.7-6.8-11.7-19c0-5.2,3.9-9.1,11.5-9.1
									c13,0,10.3-22.6,26-22.6c6.8,0,10.5,2.9,10.5,9.4c0,6.4,0.9,7.8,3,7.8c3.9,0,2.3-5.3,6-5.3c4.8,0,4.9,5.5,9.2,5.5
									c4.4,0,6.7-2.2,6.7-5.7s-3.1-4.8-3.1-7.6c0-1.7,1.3-3.2,4.3-3.2c4.4,0,6.1-1,6.1-3.6c0-3.8-2.2-3.2-2.2-12.2l129.1,99.9
									L660.9,554z"/>
							</g>
						</g>
					</g>
					<g>
						<g>
							<g>
								<defs>
									<circle id="SVGID_4_" cx="404.4" cy="390.4" r="299.5"/>
								</defs>
								<clipPath id="SVGID_5_">
									<use xlink:href="#SVGID_4_"  style="overflow:visible;"/>
								</clipPath>
								<path class="st5" d="M501.3,107c0,8.3,33,12.9,33,22.2c0,0.8-0.6,1.3-1.6,1.3c-4.1,0-17.5-9.5-25.3-9.5
									c-4.8,0-6.2,1.8-6.2,4.5c0,10.3,22.3,16.1,22.3,21.8c0,2.9-4.6,1.5-4.6,4.1c0,6.4,11.7,13.6,17.7,13.6c4,0,1.6-6.3,4.6-6.3
									c4.1,0,6.5,14.5,12.8,14.5c1.3,0,1.8-0.6,1.8-3c0-8.3-7.8-19-15.3-19c-6.9,0-21.6-12.1-21.6-17c0-0.7,0.7-1.5,1.7-1.5
									c4.1,0,16.5,14.5,20.4,14.5c1.6,0,2.2-0.9,2.2-4.4c0-2.1,0.7-2.8,2.2-2.8c9.1,0,9,18.8,14.8,18.8c6.4,0,10.7,2.9,10.7,9
									c0,5.4-1.6,7.2-6.7,7.2c-4.3,0-5.5,1.6-5.5,15.2c0,10.2-1.7,12.1-6.4,12.1c-2.8,0-4.4,1.8-4.4,4.1
									c0,10.2,22.2,8.5,22.2,17.6c0,2.5-1.6,4.1-12.5,4.1c-3.2,0-5.4,2.1-5.4,4.6c0,11.1,16,26.7,22.4,26.7c3.4,0,4.6-1.3,4.6-3.7
									c0-2,1.4-3.4,3.8-3.4c4,0,5.5-1.8,5.5-4.1c0-5.6-6.7-6.4-6.7-13.9c0-9.9,2-13.2,5.1-13.2c2.1,0,3.2-1,3.2-6.4
									c0-1.3,1-2.4,2.9-2.4c9.7,0,10.7,8.8,14.5,8.8c6.3,0,3.6,8.2,10.6,8.2c1.4,0,1.8-0.7,1.8-2.3c0-6.8-2.9-10.2-7.6-10.2
									c-3.9,0-6.3-2.5-6.3-5.7c0-2.9,1.1-4.3,3.2-4.3c7.9,0,14.7,20.6,20.8,20.6c1.8,0,2.5-0.9,2.5-3.2c0-5.9-14-13.2-14-19.5
									c0-3.2,2.3-3,2.3-6c0-3.9-9.6-5.6-9.6-13.4c0-4.4,1.6-5.9,5.4-5.9l-29.4-66.9L501.3,107z"/>
							</g>
						</g>
					</g>
					<g>
						<g>
							<g>
								<defs>
									<circle id="SVGID_6_" cx="404.4" cy="390.4" r="299.5"/>
								</defs>
								<clipPath id="SVGID_7_">
									<use xlink:href="#SVGID_6_"  style="overflow:visible;"/>
								</clipPath>
								<path class="st6" d="M514.5,167.9c0,4-3,4.3-3,7.4c0,2,0.9,2.8,3.4,2.8c11.3,0,23.9,11.1,23.9,16.1c0,6.8,1.6,7.9,4.3,7.9
									c4.4,0,9.5-5.5,9.5-9.4c0-3.7-2-5.1-4.6-5.1c-5.7,0-26.8-13.2-26.8-18.5c0-2.3-1.8-4.3-3.8-4.3
									C515.6,164.8,514.5,166,514.5,167.9z"/>
							</g>
						</g>
					</g>
					<g>
						<g>
							<g>
								<defs>
									<circle id="SVGID_8_" cx="404.4" cy="390.4" r="299.5"/>
								</defs>
								<clipPath id="SVGID_9_">
									<use xlink:href="#SVGID_8_"  style="overflow:visible;"/>
								</clipPath>
								<path class="st7" d="M519.8,183.3c-1.6,0-2.8,1.3-2.8,3.6c0,4.9,6.2,11.3,11.1,11.3c2.1,0,3-1,3-3
									C531.2,189.9,524.1,183.3,519.8,183.3z"/>
							</g>
						</g>
					</g>
					<g>
						<g>
							<g>
								<defs>
									<circle id="SVGID_10_" cx="404.4" cy="390.4" r="299.5"/>
								</defs>
								<clipPath id="SVGID_11_">
									<use xlink:href="#SVGID_10_"  style="overflow:visible;"/>
								</clipPath>
								<path class="st8" d="M471.2,149.9c-7.2,0-10.1,2.4-10.1,5.6c0,6,5.6,10.1,10.1,10.1c5.6,0,10.1-3.6,10.1-7.9
									C481.3,153.3,476.9,149.9,471.2,149.9z"/>
							</g>
						</g>
					</g>
					<g>
						<g>
							<g>
								<defs>
									<circle id="SVGID_12_" cx="404.4" cy="390.4" r="299.5"/>
								</defs>
								<clipPath id="SVGID_13_">
									<use xlink:href="#SVGID_12_"  style="overflow:visible;"/>
								</clipPath>
								<path class="st9" d="M377.3,128.6c0,1.1,0.9,2.1,2.5,2.1c3,0,5.5-1.6,9-1.6c4,0,5.7,2.1,5.7,4.6c0,4.3,1.5,5.9,4.8,5.9
									c3.4,0,6.3,2.5,6.3,6.2c0,6.7-10.9,5.9-10.9,11.3c0,2.5,1.7,4.1,4.5,4.1c2.8,0,4.4,2.1,4.4,6c0,6,5.2,10,11.5,10
									c5.3,0,4.5,4.4,7.1,4.4c1.4,0,2.3-1,2.3-4.3c0-6.2,4.4-4.3,4.4-12.5c0-4.1,1.8-6.2,5.1-6.2c4.7,0,7-1.8,7-3.9
									c0-3.1,1.4-4.6,4.7-4.6c4.8,0,7.5-2.6,7.5-4.8c0-4.5-9.4-3-9.4-7c0-3.3,2.9-3.6,2.9-6.9c0-3.1-3.6-5.4-9.9-5.4
									c-11.1,0-9.2-11.7-21.3-11.7C398.3,114,377.3,121.9,377.3,128.6z"/>
							</g>
						</g>
					</g>
					<g>
						<g>
							<g>
								<defs>
									<circle id="SVGID_14_" cx="404.4" cy="390.4" r="299.5"/>
								</defs>
								<clipPath id="SVGID_15_">
									<use xlink:href="#SVGID_14_"  style="overflow:visible;"/>
								</clipPath>
								<path class="st10" d="M225,134.8c25.8,0,28.4,3.4,28.4,8.5c0,18.5-38.6,25.4-38.6,49.1c0,25.2-38,32.3-38,53.3
									c0,15.7,5.2,20,5.2,31.2c0,8.3-4.4,12.1-4.4,21.8c0,14.4,7.1,19.5,7.1,32.5c0,5.5-2.3,8.3-2.3,14.8
									c0,11.1,11.7,20.7,25.8,20.7c6.9,0,10.2,2.6,10.2,9.5c0,6.5,7.6,12.6,18.5,12.6c5.3,0,8.3,3,8.3,13.9c0,4.3,1.6,6.4,4.6,6.4
									c3.9,0,6.5,1.8,6.5,7c0,5.6,5.1,10.8,11.3,10.8c2.5,0,3.7-1,3.7-4c0-3.7,1.4-5.4,3-5.4c3.9,0,4.1,6.8,9.2,6.8
									c2.1,0,3.7,1.3,3.7,3.8c0,24.6-19.5,26.9-19.5,48.6c0,37.2,32.2,76.1,54.8,76.1c4.8,0,8.3,2.5,8.3,8.2
									c0,14.1-2.5,22.6-2.5,34.5c0,9.4,3.9,13.3,3.9,19.6s-3.2,13.6-3.2,22.9c0,19.1,17.1,33.7,41.2,33.7c1.1,0,2.4-0.8,2.4-2.4
									c0-1.5-1.1-2.3-3.2-2.3c-3.1,0-6.4-4.6-6.4-14c0-10.9,7.1-20.7,16-20.7c10.3,0,13-2.4,13-5.1c0-6.1-11.3-3.3-11.3-11.8
									c0-2,1.4-3.6,3.6-3.6c5.3,0,4,7.4,13.7,7.4c16.1,0,30.3-13.9,30.3-27.7c0-9.7,6.7-15.4,21.1-15.4c14,0,26.3-12.6,26.3-34.5
									c0-16.5,21-21.6,21-42.3c0-5.4-4.1-8.7-11.3-8.7c-9,0-5.3-10.7-14.9-10.7c-5.6,0-10.3,3.9-17.2,3.9c-3.1,0-4.8-1.6-4.8-4.5
									c0-5.3-3.7-8.2-10.1-8.2c-5.5,0-7.2,2.3-11.6,2.3c-2.9,0-4.8-1.6-4.8-5.4c0-11.1-9-11-9-19.5c0-7.6-6.9-11.9-28-11.9
									c-6.3,0-8.4-1.8-8.4-5.4c0-10-12.4-19.6-23.2-19.6c-7.1,0-6.7,4.8-13,4.8c-10.3,0-13.4-13.7-27.7-13.7c-8.3,0-10.6,9-19.3,9
									c-6.7,0-5.2,9.2-9.2,9.2s-5.5-10.6-11.1-10.6c-3.4,0-4.3,2.6-9.9,2.6c-4.1,0-8.3-4.4-8.3-10.7c0-5.5,4.4-9.3,4.4-15.3
									c0-6.1-3.8-9.3-12.6-9.3c-9,0-10.3-2-10.3-5.6c0-9.3,11.9-12.8,11.9-21.8c0-3.4-3.2-6.2-7.8-6.2c-5.6,0-8.2,3-8.2,7.5
									c0,5.7-3.4,9.6-8.3,9.6c-7.6,0-15.9-9.9-15.9-27.7c0-19.8,15.4-34.1,40.1-34.1c16.8,0,28.6,6.7,28.5,13.7
									c-0.2,7.1-2.9,7.8-2.9,13.1c0,4.1,2.9,6.2,5.5,6.2c4,0,6.2-2.6,6.2-26.8c0-12.3,3.4-15.5,9.3-15.5c10.7,0,15.4-3.8,15.4-13
									c0-15.7,19-33.5,36.2-33.5c2.8,0,4.4,1.3,4.4,4.1c0,2.2,1.6,3.1,3.7,3.1c10,0,21.6-7.8,21.6-12.9c0-1.4-1.1-2.5-2.8-2.5
									c-2.9,0-3.9,3.3-7.2,3.3c-3,0-4.8-1.7-4.8-4.7c0-2.5,1.7-4.1,1.7-6.2c0-2-1.7-3-5.2-3c-3.7,0-5.2-1.4-5.2-3.1
									c0-6.5,19.8-3.1,32.6-3.1c4.9,0,7.9-2.9,7.9-9.5c0-5.9-3.3-8.8-9-8.8c-4.4,0-6.1-2.9-6.1-9.8c0-6.7-2.8-9.6-5.5-9.6
									c-4.8,0-5.7,6.3-10.3,6.3c-2.4,0-4.4-1.8-4.4-6.3c0-6.4-4.5-10.1-10.5-10.1c-3.7,0-5.6,1.8-5.6,5.4c0,2.8-1.3,4.3-4.7,4.3
									c-2.2,0-3.7,1.4-3.7,3.8c0,3.7,3.1,4.4,3.1,8.3c0,4.1-2.3,6.1-7.7,6.1c-2.8,0-4.8,2.2-4.8,6.3c0,5.5-2,7.1-5.9,7.1
									c-7.7,0-19.6-17.6-19.6-32.4c0-8.3,4.9-13.7,29.1-13.7c4.7,0,7.2-2.6,7.2-7c0-6,7.9-13.8,17.3-13.8c5.7,0,10,3.7,10,7.8
									c0,3.4-6.1,3.7-6.1,9.9c0,5.6,4.6,9.8,11.4,9.8c7,0,13.6-6.5,13.6-14c0-3.8-2.2-5.6-4.5-5.6s-4.1-1.1-4.1-3.7
									c0-9.5-9.6-16.8-22.9-16.8c-12.5,0-14.6,5.7-20.4,5.7c-3.2,0-4.9-2.4-4.9-9.5c0-3.6-2.4-5.9-5.5-5.9c-3.7,0-7.8,4.3-7.8,9.2
									c0,3.2-2.5,5.1-7.2,5.1c-2.5,0-4.6-1.7-4.6-3.9c0-4,5.6-3.3,5.6-6.7c0-1.5-1.3-2.4-2.9-2.4c-3.1,0-4.3,2.9-6.8,2.9
									c-1.7,0-2.4-1.3-2.4-2.3c0-4.8,9.4-4,9.4-9.4c0-3-4.6-5.9-8.6-5.9L225,134.8z"/>
							</g>
						</g>
					</g>
					<g>
						<g>
							<g>
								<defs>
									<circle id="SVGID_16_" cx="404.4" cy="390.4" r="299.5"/>
								</defs>
								<clipPath id="SVGID_17_">
									<use xlink:href="#SVGID_16_"  style="overflow:visible;"/>
								</clipPath>
								<path class="st11" d="M314.7,363.6c-6.8,0-8.6,1.7-8.6,3.6c0,2.6-2.9,3-2.9,4.6c0,1.4,1,2.4,14.1,2.4c9.6,0,13-2,13-4.7
									C330.3,366.1,327.2,363.6,314.7,363.6z"/>
							</g>
						</g>
					</g>
					<g>
						<g>
							<g>
								<defs>
									<circle id="SVGID_18_" cx="404.4" cy="390.4" r="299.5"/>
								</defs>
								<clipPath id="SVGID_19_">
									<use xlink:href="#SVGID_18_"  style="overflow:visible;"/>
								</clipPath>
								<path class="st12" d="M262.3,346c0,2.2,1.5,3.4,8,3.4c10.6,0,18.5,4.8,18.5,9.1c0,3.1,1.7,4.3,6.8,4.3c4,0,6.1-1.4,6.1-4
									c0-6.9-17.5-17-33.4-17C264.1,341.6,262.3,344,262.3,346z"/>
							</g>
						</g>
					</g>
				</g>
			</g>
		</g>
	</g>
</g>
<g id="Layer_2_1_">
	<g>
		
			<linearGradient id="SVGID_20_" gradientUnits="userSpaceOnUse" x1="662.3595" y1="497.637" x2="622.5539" y2="536.7562" gradientTransform="matrix(1 0 0 -1 0 800)">
			<stop  offset="0" style="stop-color:#CD138C"/>
			<stop  offset="0.9984" style="stop-color:#F8A79A"/>
		</linearGradient>
		<path class="st13" d="M657.4,298.6l-0.6-15.4c0-1.4-1.3-2.6-2.7-2.5l-7.2,0.2c-1.4,0-2.6,1.3-2.5,2.7l0.6,15.4
			c0,1.4,1.3,2.6,2.7,2.5l7.2-0.2C656.3,301.2,657.4,300,657.4,298.6z"/>
		<path class="st14" d="M627.2,318.6l-9.9,49.6h4.6c2.2,0,4,1.8,4,4l0,0c0,2.2-1.8,4-4,4h-21.1l6.9-57.6H627.2z"/>
		<path class="st14" d="M642.2,318.6l5.4,39.4h4.6c2.2,0,4,1.8,4,4l0,0c0,2.2-1.8,4-4,4h-21.1l-7.6-47.5h18.7V318.6z"/>
		<path d="M644,312.2L644,312.2c-2.5,1.2-5.4,0.1-6.6-2.2l-11.8-24.3l8.8-4.2l11.8,24.3C647.4,308.1,646.5,311.1,644,312.2z"/>
		<path class="st15" d="M607.8,318.6c5.2-32.9,5.9-33.8,10.9-40.8c2.6-3.5,8-4.6,10.7-1.1c5.1,6.5,8.2,16,12.9,41.9H607.8z"/>
		<circle cx="623.6" cy="268.7" r="4.6"/>
		<path d="M623.6,303.3l24.2-5.6c3.2-0.7,5.2-4,4.2-7.3l0,0c-0.8-3.1-4-4.8-7.1-4.1l-20.1,5.1l-1.2-4.1l-9.5,3.8l1.6,7.9
			C616.8,302.2,620.3,304.4,623.6,303.3z"/>
		<path class="st16" d="M628.2,267.8c-0.5-2.1-2.4-3.6-4.6-3.6c-2.6,0-4.6,2.1-4.6,4.6c0,0.6,0.1,1.2,0.4,1.8
			c0.8-0.7,1.4-1.6,1.6-2.7H628.2z"/>
		<path class="st15" d="M625.6,288.6l-12.7,3.8c0,0,0.5-6.2,0.7-9.2c0.2-3.1,0.9-4.1,2.7-5.6c1.8-1.5,10.8-5.2,13.5-3.2
			c2,1.5,6.4,9.1,6.4,9.1l-3.4,3.2"/>
	</g>
	<g>
		<circle class="st17" cx="249" cy="187" r="3.4"/>
		<path class="st15" d="M249.8,192c-1.2,0-2.5,0.7-3.7,1.9c-2.1,2.2-5.2,6.2-6.1,9.9c-0.6,2.4,1.1,5,1.1,5
			c-1.2,7.1-4.1,19.1-4.1,19.1l24.8,0.2c0,0-2.8-18.8-4.4-28.5C256.9,196.6,254.2,192,249.8,192z"/>
		
			<linearGradient id="SVGID_21_" gradientUnits="userSpaceOnUse" x1="240.497" y1="712.0662" x2="270.5821" y2="758.5133" gradientTransform="matrix(0.9719 -0.2354 -0.2354 -0.9719 154.386 958.1869)">
			<stop  offset="0" style="stop-color:#FFA68C"/>
			<stop  offset="1" style="stop-color:#D6219C"/>
		</linearGradient>
		<path class="st18" d="M219.9,191.1l4.1-1.5c1.3-0.5,2.7,0.2,3.2,1.5l3.8,10.3c0.5,1.3-0.2,2.7-1.5,3.2l-4.1,1.5
			c-1.3,0.5-2.7-0.2-3.2-1.5l-3.8-10.3C217.9,192.9,218.6,191.6,219.9,191.1z"/>
		<path class="st15" d="M255,190.8c0,0,4.1,2.1,4.2,5.8c0.1,2.2-2.7,8.3-2.7,8.3l-8.8-5l4.5-8.2L255,190.8z"/>
		<path class="st16" d="M251.6,250.9l20.5,18.1l-4.3,1.9c-3.3,1.3-1.4,4.3-1.4,4.3c1.8,2.5,5.5,0.6,5.5,0.6l16-6.7l-25.5-24.6
			l-0.7-16.2l-24.8-0.2l-19.7,42.3l-5.1-2.5c-2.5-1.1-3.7,1-3.7,1c-1.6,2.6,0.8,4.2,0.8,4.2l17.6,8.6l21.7-47.9"/>
		
			<linearGradient id="SVGID_22_" gradientUnits="userSpaceOnUse" x1="224.8906" y1="571.5189" x2="257.3385" y2="621.6138" gradientTransform="matrix(1 0 0 -1 0 800)">
			<stop  offset="0" style="stop-color:#FFA68C"/>
			<stop  offset="1" style="stop-color:#D6219C"/>
		</linearGradient>
		<path class="st19" d="M250,182.1c-0.3,0.3,0.1,0.9,0.1,0.9s-0.4-0.1-0.6-0.1c-1.6,0-3.4,1-3.8,2.4c1.2,0.4,2.8,0.8,4.6,0.6
			c-0.4,0.7-3.1,7.3,2.3,7.7c2.4,0.2,5.6-3.3,2.7-5.4c-2.2-1.6-1.6-3.1-1.6-3.1s0.6,0.2,0.8-0.1C255,184.1,250.7,181.3,250,182.1z"
			/>
		<path class="st17" d="M224,198.9c0.3-2.3,2.4-3.9,4.7-3.6h0.1c1.1,0.1,2,0.6,2,0.6l16.1,7.2l1.3-2.9l7.7,4.3l-2.6,5.8
			c-1.9,5.1-6.6,2.6-6.6,2.6l-19.9-9.5C225,202.8,223.7,200.9,224,198.9z"/>
	</g>
	<g>
		<g>
			<polygon class="st15" points="257,118.5 256.9,155.7 242.1,164.3 237,176.9 231.4,170.6 214,180.6 214.1,143.3 			"/>
			
				<linearGradient id="SVGID_23_" gradientUnits="userSpaceOnUse" x1="1161.1687" y1="688.5513" x2="1093.4761" y2="620.8588" gradientTransform="matrix(1 0 0 -1 -894.5803 800)">
				<stop  offset="0" style="stop-color:#CD138C"/>
				<stop  offset="0.9984" style="stop-color:#F8A79A"/>
			</linearGradient>
			<path class="st20" d="M257,118.5l-7.2-4.2c-2.3-1.3-5-1.3-7.2,0L208.6,134c-3.4,2-5.4,5.5-5.5,9.3l-0.1,26.9c0,2.6,1.4,5,3.6,6.2
				l7.1,4.1l0.1-37.3L257,118.5z M228.4,172.3l3-1.7l5.7,6.3L228.4,172.3z"/>
		</g>
		<path class="st14" d="M220.4,154.9c0,3.7,0,9.1,0,12.8c0,1,0.5,1.3,1.4,1.2c0.2,0,0.3-0.1,0.5-0.1c0.1-0.1,0.3-0.2,0.4-0.2
			c0.2-0.3,0.5-0.5,0.7-0.8c1.4-2,2.8-3.9,4.2-5.9c0.1-0.1,0.1-0.2,0.2-0.3c0,0.1,0,0.2,0,0.3c0.2,1.7,1.3,2.4,3,1.9
			c0.2-0.1,0.5-0.2,0.7-0.2c5.2-3,10.3-5.9,15.4-8.9c0.1-0.1,0.2-0.2,0.3-0.2c0.7-0.5,1.4-1.2,2-2c1.1-1.5,1.5-2.9,1.5-4.2
			c0-2.2,0-4.4,0-6.5c0-1.5-0.4-2.6-1.6-2.8c2.7-4.6,1.7-8-0.7-8.4c-1.3-0.2-2.7,0.3-4.3,1.3c-2.1,1.4-3.6,3.5-4.6,5.9
			c0-0.1-0.1-0.2-0.1-0.2c-0.8-2-2.5-2.6-5-1.8c-0.3,0.1-0.6,0.2-0.8,0.3c-0.5,0.3-0.9,0.5-1.4,0.8c-0.1,0.1-0.2,0.1-0.2,0.2
			c-2.8,2-4.7,4.6-5.6,7.7c-0.9,3.1-0.3,5.2,1.6,6c0.3,0.1,0.6,0.2,0.8,0.3c-0.3,0.8-0.6,1.6-1,2.5c-0.1,0-0.2,0-0.3,0
			c-1.4-0.1-2.8-2-4.2-2.1c-0.4,0-0.8,0.1-1.2,0.5C221.1,152.6,220.4,153.9,220.4,154.9z M241.5,139.2c0-1.8,1.5-4.1,3.3-5.1
			s3.3-0.4,3.3,1.3c0,1.8-1.4,4.1-3.2,5.1C243,141.5,241.5,140.9,241.5,139.2z M228.6,145.7c0-2.3,1.9-5.3,4.2-6.5
			c2.3-1.3,4.2-0.5,4.2,1.8c0,2.3-1.9,5.3-4.2,6.5C230.5,148.8,228.6,148,228.6,145.7z"/>
	</g>
	<g>
		<polygon class="st15" points="357.6,394.7 357.7,427.1 370.7,434.6 375.1,445.5 380,440 395.1,448.7 395,416.3 		"/>
		<g>
			<g>
				<path class="st21" d="M375.7,418.5c2.9,1.7,5.5,4.9,7.2,8.6l-1.3,1c-1.4-3.1-3.5-5.8-5.9-7.2c-2.4-1.4-4.5-1.1-5.9,0.4l-1.3-2.5
					C370.2,417.1,372.8,416.9,375.7,418.5z"/>
				<path class="st21" d="M375.7,422.9c2,1.1,3.7,3.4,4.9,6l-1.2,0.9c-0.8-2-2.2-3.8-3.7-4.7c-1.5-0.9-2.9-0.6-3.7,0.4l-1.2-2.2
					C371.9,422,373.7,421.8,375.7,422.9z"/>
				<path class="st21" d="M375.7,413c4,2.3,7.6,6.8,10.1,11.9l-1.6,1.2c-2.1-4.4-5.1-8.2-8.5-10.1c-3.4-2-6.5-1.7-8.5,0.3l-1.6-3.1
					C368,411,371.7,410.7,375.7,413z"/>
			</g>
		</g>
		
			<linearGradient id="SVGID_24_" gradientUnits="userSpaceOnUse" x1="2717.4009" y1="411.3492" x2="2658.5752" y2="352.5235" gradientTransform="matrix(-1 0 0 -1 3066.738 800)">
			<stop  offset="0" style="stop-color:#CF3293"/>
			<stop  offset="0.9984" style="stop-color:#F8A58D"/>
		</linearGradient>
		<path class="st22" d="M395,416.3l0.1,32.4l6.2-3.6c2-1.1,3.1-3.2,3.1-5.5l-0.1-23.3c0-3.4-1.8-6.5-4.7-8.1l-29.4-17
			c-1.9-1.1-4.3-1.1-6.3,0l-6.3,3.6L395,416.3z M380,440l2.7,1.6l-7.6,3.9L380,440z"/>
	</g>
	<g>
		<polygon class="st15" points="666.4,236 666.4,268.7 651.2,259.9 646.2,265.5 641.8,254.5 628.7,246.9 628.6,214.2 		"/>
		
			<ellipse transform="matrix(0.9201 -0.3916 0.3916 0.9201 -44.1593 275.9851)" class="st21" cx="654.6" cy="246.3" rx="2" ry="3.6"/>
		
			<ellipse transform="matrix(0.9201 -0.3916 0.3916 0.9201 -42.8999 272.2647)" class="st21" cx="646.1" cy="241.3" rx="2" ry="3.6"/>
		
			<ellipse transform="matrix(0.9201 -0.3916 0.3916 0.9201 -41.6462 268.5582)" class="st21" cx="637.6" cy="236.4" rx="2" ry="3.6"/>
		
			<linearGradient id="SVGID_25_" gradientUnits="userSpaceOnUse" x1="850.6342" y1="560.7402" x2="897.9061" y2="560.7402" gradientTransform="matrix(-1 0 0 -1 1526.5537 800)">
			<stop  offset="0" style="stop-color:#CD138C"/>
			<stop  offset="0.9984" style="stop-color:#F8A79A"/>
		</linearGradient>
		<path class="st23" d="M666.4,236l0.1,32.7l6.3-3.6c2-1.1,3.2-3.2,3.2-5.5l-0.1-23.6c-0.1-3.4-1.9-6.5-4.8-8.2l-29.8-17.2
			c-2-1.1-4.4-1.1-6.4,0l-6.3,3.6L666.4,236z M646.3,265.5l4.9-5.6l2.6,1.5L646.3,265.5z"/>
	</g>
	<g>
		<circle cx="343.6" cy="435.5" r="3.5"/>
		
			<linearGradient id="SVGID_26_" gradientUnits="userSpaceOnUse" x1="-10302.6113" y1="367.9023" x2="-10339.2383" y2="320.9438" gradientTransform="matrix(-1 0 0 -1 -9966.4551 800)">
			<stop  offset="0" style="stop-color:#CF3393"/>
			<stop  offset="0.9984" style="stop-color:#F8A58D"/>
		</linearGradient>
		<path class="st24" d="M342.8,435c-0.3,0.8,1.2,13.5-6,10.5c-3.7-1.5-3.5-11,3.3-14.1c4.1-1.9,7.6,1.3,7.6,3
			C346.6,435,344.6,435.2,342.8,435z"/>
		
			<linearGradient id="SVGID_27_" gradientUnits="userSpaceOnUse" x1="-10307.5469" y1="373.8307" x2="-10335.7656" y2="337.6539" gradientTransform="matrix(-1 0 0 -1 -9966.4551 800)">
			<stop  offset="0" style="stop-color:#CF3393"/>
			<stop  offset="0.9984" style="stop-color:#F8A58D"/>
		</linearGradient>
		<path class="st25" d="M368.3,462.7c-0.2,1.3-1.5,2.3-2.8,2l-4.3-0.7c-1.3-0.2-2.3-1.5-2-2.8l1.8-11.1c0.2-1.3,1.5-2.3,2.8-2
			l4.3,0.7c1.3,0.2,2.3,1.5,2,2.8L368.3,462.7z"/>
		<path class="st14" d="M330.5,478.1h25.4l10.8,50.5l4.9,0.2c1.5,0,2.6,1.2,2.6,2.7l0,0c0,1.5-1.2,2.8-2.7,2.8l-21.6,0l-4.8-46.9
			l-8.2,41l4.4,0c1.6,0,2.9,1.3,2.9,3l0,0c0,1.6-1.3,2.9-2.9,2.9l-22.7,0L330.5,478.1z"/>
		<path d="M369.2,454.8c0-2.3-1.8-4.3-4.3-4.3c0,0,0,0-0.2,0c-1.2,0-2.2,0.3-2.2,0.3l-18.1,5.5l-1-3.2l-7.6,3l1.3,6.1
			c1.2,5.3,6.5,3.5,6.5,3.5l22.1-6.8C367.7,458.6,369.2,456.9,369.2,454.8z"/>
		<path class="st26" d="M357.7,447.8c0,0,2.3-6.1,8.6-4.1"/>
		<path class="st26" d="M353.1,446.6c0,0,2.8-11.3,15.9-7.6"/>
		<path class="st26" d="M366.3,468.7c0,0,6,0.2,6-5.1"/>
		<path class="st26" d="M376.6,463.4c0,0,2.7,9.3-9.6,10.6"/>
	</g>
</g>
</svg>
