<svg class="svg-icon" style="width: 1em; height: 1em;vertical-align: middle;fill: currentColor;overflow: hidden;" viewBox="0 0 1024 1024" version="1.1" xmlns="http://www.w3.org/2000/svg"><path d="M459.474824 578.981647s1.204706-0.963765 0.722823-2.650353c-89.389176-195.403294-211.305412-343.076141-211.305412-343.076141S182.416565 296.357647 187.1872 359.484235c2.578071 47.947294 38.430118 76.137412 38.430118 76.137412 57.970447 56.139294 197.957271 127.939765 230.72527 144.082824 0 0 2.168471 0 3.132236-0.722824z m-21.684706 47.706353c-0.963765-1.686588-3.132235-1.686588-3.132236-1.686588l-233.279247 7.710117c25.347012 45.296941 67.9936 80.233412 112.326777 70.113883 30.840471-7.710118 99.990588-56.380235 122.88-72.764236 1.927529-1.686588 1.204706-3.373176 1.204706-3.373176z m3.373176-20.48c1.204706-1.686588-0.963765-3.373176-0.963765-3.373176-102.4-69.150118-300.983718-175.887059-300.983717-175.887059-18.094682 56.380235 6.216282 101.677176 6.216282 101.677176 25.371106 53.007059 73.703906 69.150118 73.703906 69.150118 22.287059 9.396706 44.453647 10.119529 44.453647 10.119529 3.614118 0.963765 139.023059 0 175.164235 0 1.445647 0 2.409412-1.686588 2.409412-1.686588z m93.244235-46.019765c1.686588 0.722824 3.373176-1.686588 3.373177-1.686588 22.166588-32.527059 122.88-181.910588 143.36-273.227294 0 0 11.083294-44.333176 0-74.233977 0 0-14.456471-56.332047-76.860235-71.704094 0 0-17.829647-4.264659-36.623059-6.818635 0 0-69.150118 88.786824-35.900236 425.020235h0.722824c0 2.650353 1.927529 2.650353 1.927529 2.650353z m54.452706 64.813177s-1.686588 0-2.409411 1.686588c0 0 0 2.650353 0.722823 3.373176 22.166588 16.384 90.593882 63.367529 122.88 72.764236 0 0 60.717176 20.48 112.760471-69.150118l-233.953883-8.673882z m-23.853176-46.019765s1.686588 0.722824 3.373176 0c33.249882-16.143059 172.513882-87.220706 230.580706-143.36 0 0 35.900235-29.153882 38.309647-76.860235C840.884706 293.948235 775.830588 233.255153 775.830588 233.255153s-121.916235 146.709082-211.546353 342.353318h0.722824s-1.686588 1.686588 0 3.373176zM884.254118 426.947765c-14.456471 7.951059-29.394824 15.179294-43.369412 24.094117-18.311529 9.637647-36.141176 19.757176-54.211765 29.876706-30.599529 17.106824-60.958118 34.695529-91.075765 52.525177-11.565176 5.782588-22.166588 13.251765-33.490823 19.757176-6.023529 3.855059-26.503529 16.865882-31.081412 18.552471-7.469176 6.264471-16.624941 9.878588-24.094117 15.902117-8.192 3.614118-14.697412 10.360471-22.40753 14.456471-4.336941 4.096 1.204706 6.264471 5.059765 5.059765h181.187765c30.358588-4.818824 59.753412-17.829647 81.197176-40.237177 8.673882-8.914824 16.143059-19.275294 22.407529-30.117647 6.264471-10.601412 10.601412-22.407529 13.251765-34.213647 1.686588-6.746353 2.650353-13.733647 3.614118-20.720941 0-7.469176 1.686588-14.697412 0-22.166588 0.240941-5.300706-0.481882-10.601412-1.92753-15.661177-1.204706-5.782588-2.168471-12.769882-4.818823-17.106823z m-394.661647 133.24047c-1.686588 0.722824-3.373176-1.686588-3.373177-1.686588-22.166588-32.527059-122.639059-181.910588-143.119059-273.227294 0 0-11.083294-44.333176 0-74.233977 0 0 14.456471-56.332047 76.619294-71.704094 0 0 17.829647-4.264659 36.623059-6.818635 0 0 69.150118 88.786824 35.900236 425.020235h-0.722824c0 2.650353-1.927529 2.650353-1.927529 2.650353z m402.371764 331.294118v-122.157177h-28.912941V891.482353zM761.374118 818.718118h76.860235v21.443764H761.374118c0 22.166588 9.396706 29.876706 31.563294 29.876706h45.296941v21.443765h-46.983529c-15.420235 0-28.190118-0.963765-40.96-10.360471-13.733647-10.119529-20.48-26.503529-20.48-48.670117 0-42.646588 19.516235-63.126588 62.403764-63.126589h46.019765v21.443765h-45.296941c-20.48 0-30.599529 9.396706-31.563294 27.949177z m-213.473883-49.392942l30.840471 93.967059 25.539765-93.967059h33.249882l29.153882 93.967059 28.912941-93.967059h28.190118l-40.96 122.157177h-34.213647l-28.190118-91.316706-24.576 91.316706h-33.490823L518.023529 769.325176z m-68.909176 0l56.139294 122.157177h-30.599529l-12.047059-29.153882h-57.584941l-11.806118 29.153882h-29.394824l55.898353-122.157177h29.394824z m-35.177412 71.800471h39.273412l-19.998118-46.983529-19.275294 46.983529z m-142.878118 1.686588c0 21.202824 6.746353 30.599529 29.635765 30.59953 23.130353 0 29.876706-9.396706 29.876706-30.59953v-73.487059h27.708235v74.209883c0 15.420235-1.927529 26.503529-7.710117 32.527059-10.842353 11.806118-26.744471 17.106824-49.874824 17.106823-22.889412 0-38.791529-5.300706-49.633882-17.106823-6.264471-6.746353-7.710118-17.106824-7.710118-32.527059v-74.209883h27.708235v73.487059z m-78.305882-24.094117v-49.392942h27.708235V891.482353H222.629647v-50.356706H160.659576V891.482353H132.806776v-122.157177h27.8528v49.392942z" fill="" /></svg>