<?xml version="1.0" encoding="UTF-8" standalone="no"?>
<!-- Created with Inkscape (http://www.inkscape.org/) -->

<svg
   version="1.1"
   id="svg9"
   width="1122"
   height="357"
   viewBox="0 0 1122 357"
   xmlns="http://www.w3.org/2000/svg"
   xmlns:svg="http://www.w3.org/2000/svg">
  <defs
     id="defs13" />
  <g
     id="g15">
    <path
       style="fill:#000000"
       id="path501"
       d="" />
    <path
       style="fill:#000000"
       id="path261"
       d="" />
    <path
       style="fill:#000000"
       id="path223"
       d="" />
    <g
       id="g30471"
       transform="translate(-42.759453,246.26979)">
      <path
         style="fill:#38b6ff;fill-opacity:1;stroke-width:0.945669"
         d="M 184.48762,65.644038 C 146.24337,51.584331 116.01595,27.088009 95.924312,-6.1277258 72.870078,-44.241229 62.502658,-87.156411 62.522951,-144.39011 c 0.0075,-21.94312 1.133384,-36.12672 3.005316,-37.86988 0.673003,-0.6267 4.415269,-2.07097 8.316152,-3.20948 7.38551,-2.15554 72.525591,-22.28516 98.822351,-30.53816 8.32188,-2.61176 17.04568,-4.78263 19.3862,-4.82418 3.04496,-0.0541 21.59825,5.36513 65.22072,19.05016 33.53086,10.51914 61.36017,19.52068 61.8429,20.00341 2.94924,2.94924 3.06356,61.6103 0.16028,82.244208 -11.72674,83.343259 -48.5826,135.993625 -114.16537,163.090752 -10.99609,4.543304 -13.30707,4.777196 -20.62388,2.087318 z M 193.5439,-3.0126749 C 264.93358,-86.733669 257.3041,-77.2962 257.3041,-81.882352 v -4.092049 l -10.63877,-0.586768 c -5.85132,-0.322719 -19.14979,-0.82974 -29.55214,-1.126707 -22.73202,-0.648956 -23.56191,-0.770578 -22.23068,-3.258018 0.53893,-1.006985 13.54311,-19.949076 28.8982,-42.093526 15.35508,-22.14443 27.66492,-40.67264 27.35521,-41.17376 -0.89608,-1.44989 -80.52261,-1.21171 -81.48676,0.24375 -2.14947,3.24475 -47.30242,118.583895 -46.67923,119.23791 0.40131,0.421164 11.74727,-0.08482 25.21325,-1.124466 15.36117,-1.185944 24.82005,-1.557611 25.38661,-0.997538 0.57272,0.566153 -1.6166,16.543411 -5.98527,43.679547 -3.78856,23.532779 -7.12409,43.786474 -7.41229,45.00823 -0.39042,1.655052 -0.16072,2.13722 0.901,1.891336 0.78377,-0.181521 15.39556,-16.713734 32.47067,-36.7382639 z"
         id="path50530" />
      <g
         aria-label="QUICK"
         transform="scale(0.99741131,1.0025954)"
         id="text55705"
         style="font-size:192.332px;line-height:1.25;fill:#38b6ff;stroke-width:4.80831">
        <path
           d="m 480.61532,-162.90339 c 0,-18.0792 -9.6166,-27.6958 -27.69581,-27.6958 h -21.54118 c -18.07921,0 -27.69581,9.6166 -27.69581,27.6958 v 98.473989 c 0,18.079208 9.6166,27.695808 27.69581,27.695808 h 11.92458 l 6.53929,14.232568 c 0.76933,1.538656 1.34632,2.692648 3.26964,2.692648 h 20.00253 c 2.11565,0 3.65431,-1.346324 2.69265,-3.461976 l -7.69328,-16.540552 c 8.27027,-4.231304 12.50158,-12.50158 12.50158,-24.618496 z m -50.77565,5.3853 c 0,-5.00063 2.69265,-7.69328 7.69328,-7.69328 h 10.00126 c 5.00064,0 7.69328,2.69265 7.69328,7.69328 v 87.703393 c 0,5.192964 -2.69264,7.69328 -7.69328,7.69328 h -10.00126 c -5.00063,0 -7.69328,-2.500316 -7.69328,-7.69328 z"
           style="font-family:Norwester;-inkscape-font-specification:Norwester"
           id="path37" />
        <path
           d="m 555.23977,-190.59919 c -2.11565,0 -3.84664,1.73098 -3.84664,3.84664 v 116.937853 c 0,5.192964 -2.69265,7.69328 -7.69328,7.69328 h -10.00127 c -5.00063,0 -7.69328,-2.500316 -7.69328,-7.69328 V -186.75255 c 0,-2.11566 -1.73098,-3.84664 -3.84664,-3.84664 h -18.46387 c -2.11565,0 -3.84664,1.73098 -3.84664,3.84664 v 122.323149 c 0,18.079208 9.6166,27.695808 27.69581,27.695808 h 21.54118 c 18.07921,0 27.69581,-9.6166 27.69581,-27.695808 V -186.75255 c 0,-2.11566 -1.73099,-3.84664 -3.84664,-3.84664 z"
           style="font-family:Norwester;-inkscape-font-specification:Norwester"
           id="path39" />
        <path
           d="m 599.0911,-190.59919 c -2.11565,0 -3.07731,1.15399 -3.07731,3.07731 v 147.710975 c 0,1.92332 0.96166,3.077312 3.07731,3.077312 h 20.00253 c 1.92332,0 3.07731,-1.153992 3.07731,-3.077312 V -187.52188 c 0,-1.92332 -1.15399,-3.07731 -3.07731,-3.07731 z"
           style="font-family:Norwester;-inkscape-font-specification:Norwester"
           id="path41" />
        <path
           d="m 718.52892,-162.90339 c 0,-18.0792 -9.80893,-27.6958 -27.69581,-27.6958 h -21.54118 c -18.07921,0 -27.88814,9.6166 -27.88814,27.6958 v 98.473989 c 0,18.079208 9.80893,27.695808 27.88814,27.695808 h 21.54118 c 17.88688,0 27.69581,-9.6166 27.69581,-27.695808 v -20.771856 c 0,-1.92332 -1.15399,-3.077312 -3.07731,-3.077312 h -19.2332 c -2.11566,0 -3.07732,1.153992 -3.07732,3.077312 v 15.38656 c 0,5.192964 -2.69264,7.69328 -7.69328,7.69328 h -10.00126 c -5.00063,0 -7.69328,-2.500316 -7.69328,-7.69328 v -87.703393 c 0,-5.00063 2.50032,-7.69328 7.69328,-7.69328 h 10.00126 c 5.00064,0 7.69328,2.69265 7.69328,7.69328 v 15.38656 c 0,1.92332 0.96166,3.07731 3.07732,3.07731 h 19.2332 c 1.92332,0 3.07731,-1.15399 3.07731,-3.07731 z"
           style="font-family:Norwester;-inkscape-font-specification:Norwester"
           id="path43" />
        <path
           d="m 820.08011,-36.733593 c 3.07731,0 4.23131,-1.92332 2.88498,-4.423636 l -34.81209,-77.702131 32.69644,-67.12387 c 1.34632,-2.69264 0.19233,-4.61596 -2.69265,-4.61596 h -20.19486 c -2.11565,0 -3.46197,0.96166 -4.42363,2.88498 l -29.61913,60.58458 v -59.62292 c 0,-2.50032 -1.34633,-3.84664 -3.84664,-3.84664 h -18.46387 c -2.50032,0 -3.84664,1.34632 -3.84664,3.84664 v 146.172317 c 0,2.500316 1.34632,3.84664 3.84664,3.84664 h 18.46387 c 2.50031,0 3.84664,-1.346324 3.84664,-3.84664 v -42.505372 l 7.11628,-13.655572 24.23383,57.122604 c 0.76933,1.92332 2.11566,2.88498 4.42364,2.88498 z"
           style="font-family:Norwester;-inkscape-font-specification:Norwester"
           id="path45" />
      </g>
      <g
         aria-label="APP"
         transform="scale(0.99741131,1.0025954)"
         id="text55705-7"
         style="font-size:192.332px;line-height:1.25;fill:#a6a6a6;stroke-width:4.80831">
        <path
           d="m 933.33417,-35.810547 c 2.30799,0 3.07732,-1.153992 2.69265,-3.269644 L 904.09971,-186.9835 c -0.38466,-1.92332 -1.53866,-2.69265 -3.26964,-2.69265 h -26.73415 c -1.73099,0 -2.88498,0.76933 -3.26965,2.69265 l -31.92711,147.903309 c -0.57699,2.115652 0.38467,3.269644 2.50032,3.269644 H 861.979 c 1.73099,0 2.69265,-0.96166 3.07731,-2.692648 l 5.19297,-28.080472 h 34.23509 l 5.3853,28.080472 c 0.38466,1.730988 1.34632,2.692648 3.07731,2.692648 z m -33.6581,-53.083632 h -24.61849 l 12.30925,-67.123871 z"
           style="font-family:Norwester;-inkscape-font-specification:Norwester"
           id="path67" />
        <path
           d="m 953.33642,-38.887859 c 0,1.92332 1.15399,3.077312 3.07731,3.077312 h 20.00253 c 2.11565,0 3.07731,-1.153992 3.07731,-3.077312 v -48.467664 h 23.07983 c 18.0792,0 27.6958,-9.808932 27.6958,-27.695807 v -46.92901 c 0,-18.07921 -9.6166,-27.69581 -27.6958,-27.69581 h -46.15967 c -1.92332,0 -3.07731,1.15399 -3.07731,3.07731 z m 26.15715,-73.855491 v -51.54497 h 16.92522 c 5.19301,0 7.69331,2.69264 7.69331,7.69328 v 36.15841 c 0,4.8083 -2.5003,7.69328 -7.69331,7.69328 z"
           style="font-family:Norwester;-inkscape-font-specification:Norwester"
           id="path69" />
        <path
           d="m 1049.5021,-38.887859 c 0,1.92332 1.1539,3.077312 3.0773,3.077312 h 20.0025 c 2.1156,0 3.0773,-1.153992 3.0773,-3.077312 v -48.467664 h 23.0798 c 18.0793,0 27.6959,-9.808932 27.6959,-27.695807 v -46.92901 c 0,-18.07921 -9.6166,-27.69581 -27.6959,-27.69581 h -46.1596 c -1.9234,0 -3.0773,1.15399 -3.0773,3.07731 z m 26.1571,-73.855491 v -51.54497 h 16.9252 c 5.193,0 7.6933,2.69264 7.6933,7.69328 v 36.15841 c 0,4.8083 -2.5003,7.69328 -7.6933,7.69328 z"
           style="font-family:Norwester;-inkscape-font-specification:Norwester"
           id="path71" />
      </g>
      <g
         aria-label="INITIATIVE"
         transform="scale(1.0478122,0.95436945)"
         id="text55705-7-9"
         style="font-size:56.3217px;line-height:1.25;fill:#a6a6a6;stroke-width:1.40805">
        <path
           d="M 397.02195,58.092575 V 19.230601 h -4.84367 v 38.861974 z"
           style="font-family:Aileron;-inkscape-font-specification:Aileron"
           id="path112" />
        <path
           d="m 437.46093,58.092575 -0.11265,-38.861974 h -4.73102 v 19.430987 c 0,4.562058 0.0563,10.137906 0.16897,14.699964 L 414.48167,19.230601 h -7.43446 v 38.861974 h 4.84366 V 38.661588 c 0,-4.562058 -0.0563,-10.137906 -0.16896,-14.699964 l 18.30455,34.130951 z"
           style="font-family:Aileron;-inkscape-font-specification:Aileron"
           id="path114" />
        <path
           d="M 452.32977,58.092575 V 19.230601 h -4.84366 v 38.861974 z"
           style="font-family:Aileron;-inkscape-font-specification:Aileron"
           id="path116" />
        <path
           d="M 491.19174,23.17312 V 19.230601 H 458.6378 v 3.942519 h 13.85514 v 34.919455 h 4.84366 V 23.17312 Z"
           style="font-family:Aileron;-inkscape-font-specification:Aileron"
           id="path118" />
        <path
           d="M 501.66755,58.092575 V 19.230601 h -4.84367 v 38.861974 z"
           style="font-family:Aileron;-inkscape-font-specification:Aileron"
           id="path120" />
        <path
           d="m 531.74333,44.35008 4.61838,13.742495 h 5.23792 L 528.19507,19.230601 h -6.53332 l -13.96778,38.861974 h 5.18159 l 4.56206,-13.742495 z m -12.95399,-3.942519 6.02642,-17.347084 5.63217,17.347084 z"
           style="font-family:Aileron;-inkscape-font-specification:Aileron"
           id="path122" />
        <path
           d="m 572.35121,23.17312 v -3.942519 h -32.55395 v 3.942519 h 13.85514 v 34.919455 h 4.84367 V 23.17312 Z"
           style="font-family:Aileron;-inkscape-font-specification:Aileron"
           id="path124" />
        <path
           d="M 582.82702,58.092575 V 19.230601 h -4.84367 v 38.861974 z"
           style="font-family:Aileron;-inkscape-font-specification:Aileron"
           id="path126" />
        <path
           d="m 608.96028,58.092575 13.96779,-38.861974 h -5.1816 l -11.9402,35.201064 -11.54595,-35.201064 h -5.23792 l 13.40457,38.861974 z"
           style="font-family:Aileron;-inkscape-font-specification:Aileron"
           id="path128" />
        <path
           d="M 653.73601,54.150056 H 632.72802 V 40.632848 h 18.75512 V 36.690329 H 632.72802 V 23.17312 h 20.44478 v -3.942519 h -25.28845 v 38.861974 h 25.85166 z"
           style="font-family:Aileron;-inkscape-font-specification:Aileron"
           id="path130" />
      </g>
    </g>
  </g>
</svg>
