<svg xmlns="http://www.w3.org/2000/svg" viewBox="0 0 64 64"><defs><style>.cls-1{fill:#6989ff;}.cls-1,.cls-8{stroke:#6989ff;}.cls-1,.cls-2,.cls-4,.cls-5{stroke-linecap:round;stroke-linejoin:round;}.cls-1,.cls-2,.cls-4,.cls-5,.cls-8{stroke-width:2px;}.cls-2,.cls-8{fill:none;}.cls-2{stroke:#4f4f4f;}.cls-3{fill:#ff4931;}.cls-4{fill:#a1b6ff;stroke:#a1b6ff;}.cls-5{fill:#5b3b63;stroke:#5b3b63;opacity:0.1;}.cls-6{fill:#4f4f4f;}.cls-7{fill:#45d821;}.cls-8{stroke-miterlimit:10;}</style></defs><title>servers</title><g id="servers"><rect class="cls-1" x="5" y="9" width="54" height="14" rx="3.1" ry="3.1"/><path class="cls-2" d="M41,16.5a2,2,0,0,1,4,0"/><path class="cls-2" d="M19,16.5a2,2,0,0,1,4,0"/><circle class="cls-3" cx="10" cy="15" r="2"/><rect class="cls-4" x="5" y="26" width="54" height="14" rx="3.1" ry="3.1"/><circle class="cls-3" cx="10" cy="32" r="2"/><rect class="cls-1" x="5" y="43" width="54" height="14" rx="3.1" ry="3.1"/><path class="cls-5" d="M5.21,55A3.1,3.1,0,0,0,8.1,57H55.9a3.1,3.1,0,0,0,2.89-2Z"/><path class="cls-5" d="M5.21,38A3.1,3.1,0,0,0,8.1,40H55.9a3.1,3.1,0,0,0,2.89-2Z"/><path class="cls-5" d="M5.21,21A3.1,3.1,0,0,0,8.1,23H55.9a3.1,3.1,0,0,0,2.89-2Z"/><circle class="cls-3" cx="10" cy="49" r="2"/><rect class="cls-6" x="26" y="23" width="12" height="3"/><rect class="cls-6" x="26" y="40" width="12" height="3"/><circle class="cls-7" cx="14" cy="15" r="2"/><circle class="cls-7" cx="14" cy="32" r="2"/><circle class="cls-7" cx="14" cy="49" r="2"/><line class="cls-2" x1="22" y1="48" x2="22" y2="51"/><line class="cls-2" x1="26" y1="48" x2="26" y2="51"/><line class="cls-2" x1="30" y1="48" x2="30" y2="51"/><line class="cls-2" x1="34" y1="48" x2="34" y2="51"/><line class="cls-2" x1="38" y1="48" x2="38" y2="51"/><line class="cls-2" x1="42" y1="48" x2="42" y2="51"/><path class="cls-3" d="M29,23h6a0,0,0,0,1,0,0v6a3,3,0,0,1-3,3h0a3,3,0,0,1-3-3V23a0,0,0,0,1,0,0Z"/><line class="cls-8" x1="32" y1="26" x2="32" y2="22"/></g></svg>