<?xml version="1.0" encoding="utf-8"?>
<!-- Generator: Adobe Illustrator 26.0.1, SVG Export Plug-In . SVG Version: 6.00 Build 0)  -->
<svg version="1.1" id="Layer_1" xmlns="http://www.w3.org/2000/svg" xmlns:xlink="http://www.w3.org/1999/xlink" x="0px" y="0px"
	 viewBox="0 0 558 320.3" style="enable-background:new 0 0 558 320.3;" xml:space="preserve">
<style type="text/css">
	.st0{fill:url(#SVGID_1_);}
	.st1{fill:#FFFFFF;}
	.st2{fill:none;stroke:#FFFFFF;stroke-width:0.6809;stroke-miterlimit:10;}
	.st3{fill:url(#SVGID_00000102518742810453171080000004613325581293104517_);}
	.st4{fill:url(#SVGID_00000071561695161444650820000004899510367590437788_);}
	.st5{fill:url(#SVGID_00000150074699681464539240000010549925038654418074_);}
	.st6{fill:#F8A58D;}
	.st7{fill:#6F54A3;}
	.st8{fill:url(#SVGID_00000033337369425388978370000007568108978812183219_);}
	.st9{clip-path:url(#SVGID_00000041999306401597759630000009676408782835533502_);}
	.st10{fill:#871FFF;}
	.st11{fill:url(#SVGID_00000022555226617697659520000001091393791726982822_);}
	.st12{fill:#19171C;}
	.st13{fill:#CF3393;}
	.st14{fill:#F69F87;}
	.st15{fill:url(#SVGID_00000118358432200611443900000014062849961106888111_);}
	.st16{fill:url(#SVGID_00000067206816016167920360000002829328040763019937_);}
	.st17{fill:none;stroke:#FFFFFF;stroke-width:0.2945;stroke-miterlimit:10;}
	.st18{fill:#80C7F5;}
	.st19{fill:url(#SVGID_00000020386321806588926850000007064116535464126104_);}
	
		.st20{fill:none;stroke:url(#SVGID_00000003816121249016643420000005300682804001330062_);stroke-width:0.5168;stroke-miterlimit:10;}
	.st21{fill:url(#SVGID_00000023991985425686372390000006470796744637735826_);}
	.st22{fill:url(#SVGID_00000113312533599759968300000016299592911662881426_);}
	.st23{fill:url(#SVGID_00000119834919985972458550000008449199416421883025_);}
	.st24{fill:url(#SVGID_00000062172272966641616740000008151645864973016458_);}
	.st25{fill:url(#SVGID_00000144316074531336186750000001109690404774771343_);}
	.st26{fill:url(#SVGID_00000083774824314371492210000001387399035852764578_);}
	.st27{fill:url(#SVGID_00000022545536629442922460000007946984399296009386_);}
	.st28{fill:url(#SVGID_00000153691727851000312090000017198905225015545740_);}
	.st29{fill:url(#SVGID_00000076562991768146184610000010661453451224420774_);}
	.st30{fill:url(#SVGID_00000173854526392216923040000015455248694730490535_);}
	.st31{fill:url(#SVGID_00000042725823270692827920000007128921948815189159_);}
	.st32{fill:url(#SVGID_00000000189376081930000520000000847822374820732088_);}
	.st33{fill:url(#SVGID_00000084499766359624261470000000955077655808463262_);}
	.st34{fill:url(#SVGID_00000026852788515067736090000010892460436426818191_);}
	.st35{fill:url(#SVGID_00000119075838596699130700000013743757924670302350_);}
	.st36{fill:url(#SVGID_00000106124270076563748260000018137992737710450311_);}
	.st37{fill:url(#SVGID_00000058565133208450750360000011271721323272440994_);}
	.st38{fill:url(#SVGID_00000057132911677440315930000012812261293822282655_);}
	.st39{fill:url(#SVGID_00000163769466087553681400000015067978060525994914_);}
	.st40{fill:url(#SVGID_00000057830956894357032650000011545637100821593781_);}
	.st41{fill:url(#SVGID_00000150810190292082272410000000643736430635317130_);}
	.st42{fill:url(#SVGID_00000124129722834133864060000008949461404934723988_);}
	.st43{fill:url(#SVGID_00000120547655976679301070000000675047698619095939_);}
	.st44{fill:url(#SVGID_00000074424729903187144580000009262730017247162774_);}
	.st45{fill:url(#SVGID_00000052789927831684154530000004839553887460892837_);}
	.st46{fill:url(#SVGID_00000163771218163541134570000013368300860697922967_);}
	.st47{fill:url(#SVGID_00000171692727903655455310000000873519433602804385_);}
	.st48{fill:url(#SVGID_00000111162516332043484350000008212664002000820921_);}
	.st49{fill:url(#SVGID_00000042698884107253310250000002759433620978524321_);}
	.st50{fill:url(#SVGID_00000168825935222073993650000016444896505626292377_);}
	.st51{fill:url(#SVGID_00000092453108817625789310000008660727850186089116_);}
	.st52{fill:url(#SVGID_00000103950659879086147470000001170069047721366400_);}
	.st53{fill:url(#SVGID_00000119834272128496067610000000565434813032104112_);}
	.st54{fill:url(#SVGID_00000180336380551185417900000001051622688670997401_);}
	.st55{fill:url(#SVGID_00000007390054879651906690000014195068110765951659_);}
	.st56{fill:url(#SVGID_00000160880159331710491470000016642758681538420671_);}
	.st57{fill:url(#SVGID_00000086650197037871569090000006601958801867654551_);}
</style>
<g id="Layer_2_00000076586350476278354490000004045752388259641490_">
	
		<linearGradient id="SVGID_1_" gradientUnits="userSpaceOnUse" x1="306.3387" y1="700.5468" x2="306.3387" y2="598.7904" gradientTransform="matrix(1 0 0 1 0 -379.9023)">
		<stop  offset="8.011200e-04" style="stop-color:#871FFF"/>
		<stop  offset="1" style="stop-color:#80C7F5"/>
	</linearGradient>
	<path class="st0" d="M220.6,271.9l82.1,47.4c2.2,1.3,5,1.3,7.4,0l82.1-47.4c2.7-1.6,2.7-5.4,0-7L310,217.5c-2.2-1.3-5-1.3-7.4,0
		l-82.1,47.4C217.8,266.5,217.8,270.4,220.6,271.9z"/>
	<path class="st1" d="M322.6,254.5c-0.4,2.4-0.8,9.8-0.8,9.8h11c0,0,0.1-10.2-5-15.4C324.6,245.6,322.8,252.6,322.6,254.5z"/>
	<path class="st2" d="M168.3,9.6c16.8-12.7,55.4-14.2,74.8,7"/>
	<path class="st2" d="M321.8,17.7c42.9-17.9,85,15.5,91.3,35.5"/>
	
		<linearGradient id="SVGID_00000008136121890146519620000014352858783473381272_" gradientUnits="userSpaceOnUse" x1="183.0145" y1="629.2379" x2="183.0145" y2="468.7861" gradientTransform="matrix(1 0 0 1 0 -379.9023)">
		<stop  offset="8.011200e-04" style="stop-color:#871FFF"/>
		<stop  offset="1" style="stop-color:#80C7F5"/>
	</linearGradient>
	<path style="fill:url(#SVGID_00000008136121890146519620000014352858783473381272_);" d="M47.7,172.6l129.5,74.7
		c3.6,2.1,8,2.1,11.5,0l129.5-74.7c4.2-2.5,4.2-8.6,0-11.1L188.8,86.8c-3.6-2.1-8-2.1-11.5,0L47.7,161.5
		C43.5,163.9,43.5,170.1,47.7,172.6z"/>
	<path class="st1" d="M264.4,39.1c24,13.8,43.4,47.4,43.4,75c0,0.6,0,1.1-0.1,1.7c1.1,0.5,2.4,1.1,3.6,1.8
		c14.3,8.3,25.9,28.4,25.9,44.9c-0.1,15.9-11,22.7-24.6,15.7L216,122c-16.2-9.3-29.3-31.9-29.2-50.6c0.1-18.8,13.2-26.5,29.5-17
		c1.7,1,3.3,2.1,4.9,3.3C224.1,34.8,242.3,26.4,264.4,39.1z"/>
	
		<linearGradient id="SVGID_00000050627322721175177260000011327054500098740869_" gradientUnits="userSpaceOnUse" x1="195.4271" y1="475.5734" x2="373.8482" y2="475.5734" gradientTransform="matrix(1 0 0 1 0 -379.9023)">
		<stop  offset="8.011200e-04" style="stop-color:#871FFF"/>
		<stop  offset="1" style="stop-color:#80C7F5"/>
	</linearGradient>
	<path style="fill:url(#SVGID_00000050627322721175177260000011327054500098740869_);" d="M373.7,142.7c0,0.2,0,0.3,0,0.4
		c0,0.2,0,0.5-0.1,0.7c0,0.1,0,0.2,0,0.2c0,0.2-0.1,0.4-0.1,0.5c0,0.2,0,0.4-0.1,0.5c0,0.1,0,0.2-0.1,0.3c0,0.2-0.1,0.4-0.1,0.6
		s0,0.3-0.1,0.4c0,0.2-0.1,0.2-0.1,0.3c-0.1,0.2-0.1,0.4-0.2,0.6c0,0.2-0.1,0.2-0.1,0.4c0,0.1-0.1,0.2-0.1,0.3
		c-0.1,0.2-0.2,0.5-0.2,0.7c0,0.1-0.1,0.2-0.1,0.3c0,0.1-0.1,0.2-0.1,0.2c-0.1,0.3-0.2,0.6-0.3,0.9c-0.1,0.1-0.1,0.2-0.1,0.3
		c0,0.1,0,0.1-0.1,0.2c-0.2,0.4-0.4,1-0.6,1.3v0.1c0,0.1-0.1,0.1-0.1,0.1c-0.3,0.6-0.6,1.1-0.9,1.6c0,0,0,0.1-0.1,0.1l0,0
		c-0.3,0.4-0.6,0.8-0.9,1.1c-0.1,0.1-0.2,0.2-0.2,0.3c-0.3,0.4-0.6,0.6-1,1c0,0,0,0.1-0.1,0.1c-0.4,0.3-0.6,0.6-1,0.9
		c-0.1,0.1-0.2,0.2-0.3,0.2c-0.4,0.3-0.7,0.5-1.1,0.8l-36.6,21.3c0.1-0.1,0.2-0.1,0.2-0.2c0.2-0.1,0.3-0.2,0.4-0.3
		c0.2-0.1,0.3-0.2,0.4-0.3c0.1-0.1,0.2-0.2,0.3-0.2c0.1-0.1,0.2-0.2,0.3-0.2c0.2-0.2,0.3-0.3,0.4-0.4c0.1-0.1,0.2-0.2,0.3-0.3
		c0,0,0-0.1,0.1-0.1c0.2-0.2,0.4-0.4,0.6-0.7c0.2-0.2,0.2-0.2,0.4-0.4c0.1-0.1,0.2-0.2,0.2-0.2c0.3-0.4,0.6-0.8,0.9-1.1l0.1-0.1l0,0
		c0.2-0.2,0.2-0.4,0.4-0.6c0.2-0.3,0.4-0.6,0.5-0.9c0-0.1,0.1-0.1,0.1-0.2c0-0.1,0.1-0.2,0.1-0.2c0.1-0.2,0.2-0.3,0.2-0.4
		c0.1-0.2,0.2-0.4,0.3-0.7c0.1-0.2,0.1-0.3,0.2-0.4c0.1-0.2,0.2-0.4,0.2-0.5c0.1-0.2,0.1-0.2,0.2-0.4c0.1-0.2,0.1-0.4,0.2-0.5
		c0.1-0.2,0.2-0.5,0.2-0.7c0.1-0.2,0.1-0.4,0.2-0.6c0-0.1,0.1-0.2,0.1-0.3s0.1-0.2,0.1-0.3l0,0c0.1-0.2,0.1-0.5,0.2-0.7
		c0-0.2,0.1-0.4,0.1-0.6c0-0.3,0.1-0.5,0.1-0.8c0-0.2,0-0.2,0.1-0.4c0-0.1,0-0.1,0-0.1v-0.1c0-0.3,0.1-0.6,0.1-1c0-0.2,0-0.3,0-0.4
		c0-0.4,0.1-0.9,0.1-1.4l0,0v-0.1c0-0.3-0.1-0.6-0.1-0.8c0-0.1,0-0.1,0-0.2l0,0c0,0,0-0.3,0-0.4c0-0.2,0-0.4,0-0.6
		c0-0.4,0-0.6-0.1-1c0-0.1,0-0.1,0-0.2c0-0.1,0-0.2,0-0.3V159c0-0.4-0.1-0.7-0.1-1.1c0-0.2,0-0.3-0.1-0.4c-0.1-0.5-0.2-1-0.2-1.4
		l0,0c0,0,0,0,0-0.1s0-0.1,0-0.2c-0.1-0.4-0.2-0.9-0.2-1.3c0-0.2-0.1-0.4-0.1-0.5c-0.1-0.4-0.2-0.6-0.2-1c0-0.1,0-0.1,0-0.2
		c0-0.1-0.1-0.2-0.1-0.3c0-0.1,0-0.1-0.1-0.2c-0.1-0.3-0.2-0.6-0.2-1c-0.1-0.2-0.1-0.4-0.2-0.6c-0.1-0.4-0.2-0.7-0.3-1
		c0-0.1-0.1-0.2-0.1-0.2s0-0.2-0.1-0.2c0,0,0,0,0-0.1c-0.2-0.5-0.3-1-0.5-1.5v-0.1c-0.2-0.4-0.3-1-0.5-1.4v0.2
		c0-0.1-0.1-0.2-0.1-0.2s-0.1-0.2-0.1-0.2c-0.2-0.4-0.3-0.7-0.4-1.1c-0.1-0.2-0.2-0.4-0.2-0.5c-0.2-0.4-0.3-0.7-0.4-1.1
		c0-0.1-0.1-0.2-0.1-0.2s-0.1-0.2-0.1-0.2s0,0,0-0.1c-0.2-0.5-0.4-1-0.6-1.4c-0.1-0.2-0.2-0.2-0.2-0.4c-0.2-0.4-0.4-0.7-0.6-1.1
		v-0.1c-0.1-0.1-0.1-0.2-0.2-0.3c-0.1-0.2-0.2-0.3-0.2-0.4c-0.2-0.2-0.3-0.5-0.4-0.7c-0.2-0.4-0.4-0.8-0.6-1.2
		c-0.2-0.2-0.3-0.4-0.4-0.7c0,0,0-0.1-0.1-0.1c-0.1-0.2-0.2-0.2-0.2-0.4c-0.2-0.3-0.4-0.6-0.6-1c-0.4-0.6-0.7-1.1-1.1-1.7
		c0-0.1-0.1-0.1-0.1-0.2c-0.1-0.2-0.2-0.3-0.3-0.4c-0.5-0.7-1-1.4-1.4-2.1l0,0l0,0c-0.4-0.5-0.7-1-1.1-1.4c-0.3-0.4-0.6-0.7-0.9-1.1
		c-0.1-0.1-0.1-0.1-0.2-0.2l0,0l0,0c-0.4-0.4-0.7-0.9-1.1-1.2c-0.1-0.2-0.2-0.2-0.3-0.4c-0.3-0.3-0.5-0.6-0.8-0.9c0,0,0,0-0.1-0.1
		c-0.1-0.1-0.2-0.2-0.2-0.2c-0.1-0.1-0.2-0.2-0.2-0.2c-0.2-0.2-0.4-0.5-0.6-0.7c-0.2-0.2-0.4-0.3-0.5-0.5c-0.2-0.2-0.4-0.4-0.6-0.6
		l-0.1-0.1c-0.1-0.1-0.2-0.2-0.3-0.2c-0.1-0.1-0.2-0.1-0.2-0.2c-0.2-0.2-0.4-0.4-0.6-0.6c-0.2-0.2-0.4-0.3-0.5-0.4
		c-0.2-0.2-0.4-0.4-0.7-0.6c-0.1-0.1-0.1-0.1-0.2-0.2c-0.1-0.1-0.2-0.2-0.3-0.2c-0.1,0-0.1-0.1-0.2-0.1c-0.2-0.2-0.5-0.4-0.7-0.6
		c-0.2-0.2-0.4-0.3-0.5-0.4c-0.3-0.2-0.5-0.4-0.8-0.6c-0.1-0.1-0.2-0.2-0.2-0.2s-0.1-0.1-0.2-0.2c0,0,0,0-0.1,0
		c-0.4-0.3-0.8-0.6-1.2-0.8c0,0-0.1,0-0.1-0.1c-0.4-0.3-0.9-0.5-1.3-0.8c-1.2-0.7-2.5-1.3-3.6-1.8c0-0.6,0.1-1.1,0.1-1.7
		c0-1.8-0.1-3.8-0.2-5.6l0,0c0-0.4-0.1-0.8-0.2-1.2c-0.2-1.3-0.3-2.6-0.5-4l0,0c-0.2-0.7-0.2-1.4-0.4-2.2l0,0
		c-0.1-0.3-0.2-0.6-0.2-0.9l0,0c-0.1-0.4-0.2-0.6-0.2-1c-0.2-0.5-0.2-1.1-0.4-1.6l0,0c-0.2-0.5-0.3-1.1-0.4-1.6l0,0
		c-0.2-0.6-0.3-1.1-0.4-1.7c-0.1-0.4-0.2-0.6-0.3-1l0,0c-0.1-0.3-0.2-0.5-0.2-0.8l0,0c-0.3-0.9-0.5-1.7-0.8-2.6l0,0
		c0-0.1-0.1-0.2-0.1-0.2s0,0,0-0.1c-0.3-0.8-0.5-1.5-0.8-2.3l0,0c-0.4-1.2-1-2.6-1.4-3.8c-0.2-0.4-0.4-1-0.6-1.4l0,0
		c-0.1-0.2-0.2-0.4-0.3-0.6l0,0c-0.4-0.8-0.7-1.6-1.1-2.4l0,0c-0.2-0.3-0.3-0.5-0.4-0.8c-0.3-0.6-0.5-1.1-0.8-1.7l0,0
		c-0.2-0.4-0.4-0.9-0.6-1.3l0,0c-0.2-0.4-0.4-0.8-0.6-1.2l0,0c-0.6-1.1-1.2-2.2-1.8-3.3l0,0c-0.2-0.4-0.4-0.7-0.6-1.1l0,0
		c-0.3-0.4-0.5-0.9-0.8-1.4l0,0c-0.2-0.4-0.5-0.8-0.7-1.2l0,0c-0.3-0.4-0.6-0.9-0.9-1.3l0,0c-0.2-0.3-0.4-0.6-0.6-0.9l0,0
		c-0.8-1.1-1.6-2.4-2.5-3.5l0,0l-0.1-0.1c-0.6-0.8-1.1-1.6-1.8-2.3l0,0c-0.5-0.6-1-1.2-1.4-1.8l-0.1-0.1c-0.1-0.1-0.2-0.2-0.2-0.2
		l0,0c-0.6-0.7-1.1-1.4-1.8-2.1l0,0c-0.2-0.2-0.4-0.4-0.5-0.6l0,0c-0.4-0.5-0.9-1-1.3-1.4l0,0c-0.2-0.3-0.5-0.5-0.7-0.8l0,0
		c-0.4-0.4-0.6-0.7-1-1c-1-1-1.9-1.9-3-2.8l0,0c-0.4-0.4-0.7-0.6-1.1-1l0,0c-0.3-0.3-0.6-0.5-0.9-0.8l0,0c-0.4-0.4-0.8-0.6-1.1-1
		l0,0c-0.3-0.2-0.6-0.5-0.9-0.7l0,0c-0.4-0.3-0.8-0.6-1.2-1l0,0c-0.3-0.2-0.6-0.4-0.8-0.6l0,0c-0.4-0.4-0.9-0.6-1.4-1l0,0
		c-0.2-0.2-0.4-0.3-0.6-0.4l0,0c-0.6-0.4-1.4-1-2-1.4c-0.1,0-0.1-0.1-0.2-0.1c-0.7-0.4-1.4-0.9-2.1-1.3c-0.6-0.4-1.3-0.7-1.8-1.1
		c-0.2-0.2-0.5-0.3-0.7-0.4c-0.5-0.2-1-0.5-1.4-0.7c-0.2-0.1-0.4-0.2-0.6-0.4c-0.3-0.2-1.2-0.5-2.2-0.9c-19-7.5-33.8,1.4-36.3,21.9
		c-0.8-0.6-1.6-1.1-2.3-1.7l0,0c-0.1-0.1-0.2-0.1-0.2-0.2l0,0l0,0c-0.8-0.5-1.5-1-2.3-1.4l0,0c-0.4-0.2-0.9-0.5-1.3-0.7
		c-0.2-0.1-0.3-0.2-0.5-0.2c-0.3-0.2-0.6-0.3-1-0.5c-0.1,0-0.2-0.1-0.2-0.1c-0.1,0-0.2-0.1-0.2-0.1h-0.1c-0.4-0.2-0.9-0.4-1.3-0.6
		h-0.1c-0.4-0.2-0.9-0.4-1.4-0.5c0,0,0,0-0.1,0s-0.2-0.1-0.2-0.1c-0.1,0-0.2-0.1-0.2-0.1c-0.3-0.1-0.6-0.2-1-0.3
		c-0.2-0.1-0.4-0.1-0.5-0.2c-0.3-0.1-0.6-0.2-0.8-0.2c-0.1,0-0.1,0-0.2,0c-0.1,0-0.2-0.1-0.3-0.1c-0.1,0-0.1,0-0.2,0
		c-0.3-0.1-0.5-0.1-0.7-0.2c-0.2,0-0.4-0.1-0.6-0.1c-0.2,0-0.4-0.1-0.7-0.1c-0.1,0-0.2,0-0.3,0c-0.1,0-0.2,0-0.3,0h-0.1
		c-0.2,0-0.4,0-0.6,0c-0.2,0-0.5,0-0.7,0c-0.2,0-0.4,0-0.5,0s-0.2,0-0.2,0c-0.2,0-0.3,0-0.4,0s-0.2,0-0.2,0c-0.2,0-0.3,0-0.5,0.1
		c-0.4,0.1-1,0.2-1.4,0.2c-0.1,0-0.1,0-0.2,0c0,0,0,0-0.1,0s-0.2,0.1-0.2,0.1c-0.3,0.1-0.6,0.2-0.9,0.2c-0.2,0.1-0.3,0.1-0.4,0.2
		c-0.2,0.1-0.4,0.2-0.6,0.2c0,0,0,0-0.1,0s-0.2,0.1-0.2,0.1c-0.2,0.1-0.4,0.2-0.5,0.2c-0.1,0.1-0.2,0.1-0.4,0.2
		c-0.4,0.2-0.7,0.4-1,0.6l0,0l36.6-21.3c0.4-0.2,0.7-0.4,1.1-0.6c0.2-0.1,0.2-0.1,0.4-0.2c0.3-0.2,0.5-0.2,0.8-0.3
		c0.1,0,0.1-0.1,0.2-0.1c0.2-0.1,0.4-0.2,0.5-0.2c0.2-0.1,0.3-0.1,0.4-0.2c0.3-0.1,0.6-0.2,0.9-0.2c0.1,0,0.2-0.1,0.3-0.1l0,0
		c0.1,0,0.1,0,0.2,0c0.4-0.1,1-0.2,1.4-0.2c0.1,0,0.2,0,0.2,0s0.2,0,0.3,0c0.3,0,0.6-0.1,1-0.1c0.1,0,0.2,0,0.3,0c0.1,0,0.2,0,0.2,0
		c0.2,0,0.5,0,0.7,0c0.2,0,0.3,0,0.4,0s0.2,0,0.2,0c0.2,0,0.4,0.1,0.6,0.1c0.2,0,0.3,0,0.5,0.1c0.1,0,0.2,0,0.2,0
		c0.2,0,0.4,0.1,0.6,0.1s0.3,0.1,0.5,0.1c0.1,0,0.2,0.1,0.3,0.1c0.2,0,0.4,0.1,0.5,0.2h0.1l26.5-13.9c0.5-0.3,1.1-0.6,1.7-0.9
		c0.2-0.1,0.4-0.2,0.6-0.2c0.4-0.2,0.8-0.4,1.1-0.5c0.1,0,0.2-0.1,0.2-0.1c0.2-0.1,0.5-0.2,0.7-0.2c0.2-0.1,0.4-0.2,0.6-0.2
		c0.4-0.1,0.7-0.2,1.1-0.3c0.2-0.1,0.4-0.1,0.5-0.2h0.1c0.5-0.1,1-0.2,1.5-0.2c0.2,0,0.3,0,0.4-0.1c0.2,0,0.4-0.1,0.6-0.1
		s0.3,0,0.4,0c0.4,0,0.9-0.1,1.3-0.1c0.2,0,0.3,0,0.5,0c0.1,0,0.2,0,0.3,0c0.4,0,0.7,0,1.1,0.1c0.2,0,0.4,0,0.6,0c0.1,0,0.2,0,0.3,0
		c0.4,0,0.6,0.1,1,0.1c0.2,0,0.5,0.1,0.7,0.1c0.1,0,0.2,0,0.3,0.1c0.3,0.1,0.6,0.1,0.8,0.2s0.5,0.1,0.7,0.2c0.2,0,0.3,0.1,0.4,0.1
		c0.3,0.1,0.5,0.2,0.8,0.2c0.2,0.1,0.4,0.1,0.6,0.2c0.2,0.1,0.4,0.2,0.6,0.2c0.2,0.1,0.5,0.2,0.7,0.2c0.2,0.1,0.3,0.1,0.4,0.2
		c0.3,0.1,0.6,0.2,0.9,0.3c0.2,0.1,0.4,0.2,0.6,0.2c0.1,0,0.2,0.1,0.2,0.1c0.6,0.2,1.1,0.4,1.8,0.6c0.6,0.2,1.1,0.5,1.8,0.7
		c0.1,0.1,0.2,0.1,0.3,0.2c0.2,0.1,0.4,0.2,0.6,0.3c0.3,0.2,0.6,0.3,0.9,0.4c0.2,0.1,0.4,0.2,0.6,0.3c0.2,0.2,0.5,0.2,0.7,0.4
		c0.2,0.1,0.4,0.2,0.5,0.3c0.4,0.2,1,0.5,1.4,0.8c0.2,0.1,0.3,0.2,0.4,0.2c0.6,0.4,1.1,0.6,1.7,1c0.1,0,0.1,0.1,0.2,0.1l0,0
		c0.6,0.4,1.2,0.8,1.8,1.2c0.1,0.1,0.2,0.1,0.2,0.2c0.2,0.2,0.4,0.4,0.7,0.5c0.4,0.2,0.6,0.5,1,0.7c0.2,0.1,0.2,0.2,0.4,0.3
		c0.3,0.2,0.6,0.4,0.8,0.6c0.2,0.2,0.5,0.4,0.7,0.6c0.2,0.2,0.3,0.2,0.4,0.4c0.3,0.2,0.6,0.5,0.9,0.7c0.2,0.2,0.4,0.3,0.6,0.5
		c0.2,0.2,0.4,0.3,0.6,0.5c0.3,0.3,0.6,0.5,0.9,0.8c0.2,0.2,0.4,0.3,0.5,0.4c0.2,0.2,0.4,0.4,0.6,0.6c0.3,0.3,0.6,0.6,0.9,0.8
		c0.2,0.2,0.3,0.2,0.4,0.4c0.2,0.2,0.5,0.4,0.7,0.7c0.3,0.3,0.6,0.5,0.8,0.8c0.1,0.1,0.2,0.2,0.3,0.3c0.3,0.3,0.6,0.6,0.8,0.9
		c0.2,0.3,0.5,0.5,0.7,0.8c0.1,0.1,0.2,0.2,0.2,0.2c0.4,0.4,0.7,0.8,1.1,1.2c0.2,0.2,0.4,0.4,0.5,0.6l0.1,0.1
		c0.6,0.6,1.1,1.3,1.7,1.9l0,0c0.1,0.1,0.2,0.2,0.2,0.3c0.5,0.6,1,1.1,1.4,1.8v0.1c0.6,0.8,1.1,1.6,1.8,2.4h-0.2l0,0
		c0.7,1.1,1.8,2.3,2.6,3.5c0.1,0.2,0.4,0.3,0.5,0.4c0.1,0.2,0.2,0.3,0.3,0.4c0.3,0.4,0.6,0.9,0.9,1.3c0.3,0.4,0.5,0.8,0.8,1.2
		s0.6,0.9,0.8,1.4c0.2,0.3,0.4,0.6,0.5,0.9c0.1,0.1,0.1,0.2,0.2,0.3c0.6,1.1,1.3,2.2,1.8,3.3c0,0.1,0.1,0.2,0.1,0.2
		c0.2,0.4,0.4,0.7,0.6,1.1c0.2,0.4,0.4,0.9,0.6,1.3c0.1,0.1,0.1,0.2,0.2,0.2c0.3,0.5,0.5,1.1,0.8,1.6c0.1,0.2,0.2,0.4,0.3,0.6
		c0,0,0,0.1,0.1,0.1c0.4,0.7,0.6,1.4,1,2.1c0,0.1,0.1,0.2,0.1,0.2c0.1,0.2,0.2,0.4,0.3,0.6c0.2,0.4,0.4,0.8,0.5,1.2
		c0.1,0.2,0.2,0.4,0.2,0.6c0.2,0.3,0.2,0.6,0.4,0.9c0.1,0.2,0.2,0.4,0.3,0.6c0.2,0.4,0.3,0.7,0.4,1.1c0.1,0.2,0.2,0.5,0.3,0.7
		c0.1,0.1,0.1,0.2,0.2,0.3c0.2,0.6,0.4,1.3,0.7,1.9c0,0.1,0.1,0.2,0.1,0.2l0,0c0.2,0.7,0.5,1.5,0.7,2.2c0,0.1,0.1,0.2,0.1,0.2
		c0.1,0.3,0.2,0.6,0.2,0.8c0.2,0.4,0.2,0.9,0.4,1.2c0.1,0.2,0.1,0.3,0.2,0.4c0.1,0.3,0.2,0.6,0.2,1c0.1,0.3,0.2,0.6,0.2,0.9
		c0.1,0.2,0.2,0.5,0.2,0.7c0.1,0.3,0.2,0.6,0.2,1c0.1,0.2,0.1,0.4,0.2,0.6c0.1,0.4,0.2,0.7,0.2,1.1c0.1,0.3,0.2,0.6,0.2,0.9
		c0,0.2,0.1,0.2,0.1,0.4c0.2,0.6,0.2,1.2,0.3,1.8c0,0.1,0.1,0.2,0.1,0.3c0,0,0,0,0,0.1c0.2,0.7,0.2,1.4,0.3,2.2c0,0.1,0,0.2,0,0.2
		c0,0.2,0.1,0.4,0.1,0.7c0.1,0.4,0.1,0.8,0.2,1.2c0,0.2,0.1,0.4,0.1,0.6c0,0.3,0.1,0.6,0.1,0.9c0,0.2,0.1,0.5,0.2,0.7
		c0,0.3,0.2,0.6,0.2,1c0,0.3,0.2,4.6,0.1,4.9c0.2,0.1,0.3,0.2,0.4,0.2c0.4,0.2,0.7,0.3,1,0.5l0,0h0.1c0.3,0.2,0.6,0.3,1,0.5
		c0.3,0.2,0.6,0.3,0.8,0.4c0.1,0.1,0.2,0.1,0.3,0.2c0.4,0.2,0.6,0.4,1,0.6c0,0,0.1,0,0.1,0.1l0,0c0.4,0.2,0.7,0.5,1.1,0.7l0.1,0.1
		c0.2,0.1,0.3,0.2,0.4,0.3c0.2,0.2,0.4,0.3,0.6,0.4c0.1,0.1,0.2,0.1,0.2,0.2c0.2,0.2,0.4,0.2,0.5,0.4c0.2,0.2,0.3,0.2,0.4,0.4
		c0.1,0.1,0.2,0.2,0.3,0.2c0.2,0.2,0.4,0.3,0.5,0.4c0.2,0.1,0.2,0.2,0.4,0.3s0.2,0.2,0.4,0.3c0.2,0.2,0.4,0.3,0.5,0.4
		c0.1,0.1,0.2,0.2,0.3,0.3c0.2,0.2,0.2,0.2,0.4,0.4c0.2,0.2,0.4,0.4,0.5,0.5c0.1,0.1,0.2,0.2,0.2,0.2c0.2,0.2,0.3,0.3,0.4,0.4
		c0.2,0.2,0.4,0.3,0.5,0.5c0.1,0.1,0.2,0.2,0.2,0.2c0.2,0.2,0.4,0.4,0.5,0.5c0.2,0.2,0.3,0.3,0.4,0.4c0.1,0.1,0.1,0.1,0.2,0.2
		c0.2,0.2,0.4,0.5,0.6,0.7c0.1,0.2,0.2,0.2,0.3,0.4c0,0,0,0.1,0.1,0.1c0.4,0.4,0.6,0.8,1,1.1l0,0c0.1,0.1,0.1,0.2,0.2,0.2
		c0.3,0.4,0.6,0.7,0.9,1.1c0,0,0,0.1,0.1,0.1c0.4,0.5,0.7,1,1.1,1.4l0,0l0,0c0.5,0.7,1,1.4,1.4,2.1c0.1,0.1,0.2,0.2,0.2,0.2
		s0.1,0.1,0.1,0.2c0.6,0.9,1.1,1.8,1.8,2.7c0.1,0.1,0.1,0.2,0.2,0.2c0,0.1,0.1,0.2,0.1,0.2c0.4,0.6,0.8,1.3,1.1,2
		c0,0.1,0.1,0.1,0.1,0.2c0.2,0.2,0.2,0.4,0.4,0.6c0.2,0.3,0.3,0.5,0.4,0.8c0,0.1,0.1,0.1,0.1,0.2c0.2,0.4,0.3,0.6,0.5,1
		c0.1,0.2,0.1,0.2,0.2,0.4c0,0,0,0,0,0.1c0.2,0.4,0.4,0.9,0.6,1.2c0,0.1,0.1,0.1,0.1,0.2c0.1,0.2,0.2,0.3,0.2,0.4
		c0.1,0.2,0.2,0.5,0.3,0.7c0.1,0.2,0.1,0.2,0.2,0.4c0.1,0.2,0.2,0.4,0.2,0.5s0.2,0.3,0.2,0.4c0.1,0.2,0.2,0.4,0.2,0.6
		c0.1,0.2,0.2,0.3,0.2,0.4s0.1,0.2,0.1,0.2c0.2,0.4,0.3,0.8,0.4,1.2c0,0.1,0,0.1,0.1,0.2l0,0c0.2,0.4,0.3,0.9,0.4,1.4
		c0,0.1,0,0.1,0.1,0.2c0.1,0.2,0.1,0.4,0.2,0.5c0.1,0.2,0.2,0.5,0.2,0.7c0,0.1,0.1,0.2,0.1,0.3c0.1,0.2,0.1,0.4,0.2,0.6
		c0.1,0.2,0.1,0.4,0.2,0.5c0.1,0.2,0.1,0.3,0.1,0.4c0.1,0.2,0.1,0.4,0.2,0.6c0,0.2,0.1,0.2,0.1,0.4c0.1,0.2,0.1,0.4,0.2,0.6
		c0,0.2,0.1,0.4,0.1,0.5s0,0.2,0.1,0.2c0.1,0.4,0.2,0.7,0.2,1.1c0,0.1,0,0.2,0,0.2l0,0c0.1,0.4,0.2,0.9,0.2,1.3c0,0.1,0,0.1,0,0.2
		c0,0.2,0,0.3,0.1,0.4c0,0.2,0.1,0.5,0.1,0.7c0,0.2,0,0.2,0,0.4s0,0.4,0.1,0.5c0,0.2,0.1,0.3,0.1,0.4c0,0.2,0.1,0.4,0.1,0.6
		C373.8,139.5,373.7,142.6,373.7,142.7z M195.4,52.4L195.4,52.4L195.4,52.4L195.4,52.4z"/>
	
		<linearGradient id="SVGID_00000178163416177029712520000014549715514565665163_" gradientUnits="userSpaceOnUse" x1="425.673" y1="634.9515" x2="425.673" y2="533.1953" gradientTransform="matrix(1 0 0 1 0 -379.9023)">
		<stop  offset="8.011200e-04" style="stop-color:#871FFF"/>
		<stop  offset="1" style="stop-color:#80C7F5"/>
	</linearGradient>
	<path style="fill:url(#SVGID_00000178163416177029712520000014549715514565665163_);" d="M339.9,206.3l82.1,47.4
		c2.2,1.3,5,1.3,7.4,0l82.1-47.4c2.7-1.6,2.7-5.4,0-7l-82.1-47.4c-2.2-1.3-5-1.3-7.4,0l-82.1,47.4
		C337.2,200.9,337.2,204.8,339.9,206.3z"/>
	<path class="st6" d="M113.6,159.6l17.4,10l43.4-25.1l-17.4-10L113.6,159.6z"/>
	<path class="st1" d="M174.4,144.5v3.3c0,1.1-0.6,2-1.4,2.6l-39,22.6c-1.8,1-4,1-5.8,0l-13-7.5c-1-0.5-1.4-1.5-1.4-2.6v-3.3l17.4,10
		L174.4,144.5z"/>
	<polygon class="st6" points="139.7,129.5 139.7,139.5 122.3,149.5 122.3,139.5 	"/>
	<polygon class="st1" points="96.1,154.5 157.1,119.5 157,69.2 96.1,104.4 	"/>
	<path class="st7" d="M96.1,154.5l-2.9-1.7c-1-0.5-1.4-1.5-1.4-2.6v-46c0-1.6,0.9-3,2.2-3.8l56.5-32.6c1.4-0.8,3-0.8,4.4,0l2.1,1.2
		l-60.9,35.1L96.1,154.5L96.1,154.5z"/>
	
		<linearGradient id="SVGID_00000060028741104792807450000012353746493242559410_" gradientUnits="userSpaceOnUse" x1="126.6559" y1="458.3416" x2="126.6559" y2="528.8376" gradientTransform="matrix(1 0 0 1 0 -379.9023)">
		<stop  offset="0" style="stop-color:#CF3393"/>
		<stop  offset="0.9984" style="stop-color:#F8A58D"/>
	</linearGradient>
	<path style="fill:url(#SVGID_00000060028741104792807450000012353746493242559410_);" d="M103.8,145.1l46-26.6c1.8-1.1,3-3,3-5v-33
		c0-1.7-1.8-2.7-3.3-1.8l-46,26.6c-1.8,1.1-3,3-3,5v33C100.5,144.9,102.3,145.9,103.8,145.1z"/>
	<g>
		<g>
			<g>
				<defs>
					<path id="SVGID_00000047777525279267217420000001049353495174789768_" d="M103.4,145.2l46-26.6c1.8-1.1,3-3,3-5v-33
						c0-1.7-1.8-2.7-3.3-1.8L103,105.3c-1.8,1.1-3,3-3,5v33C100.1,145.1,101.9,146.1,103.4,145.2z"/>
				</defs>
				<clipPath id="SVGID_00000173140026506208811580000001633484823400827836_">
					<use xlink:href="#SVGID_00000047777525279267217420000001049353495174789768_"  style="overflow:visible;"/>
				</clipPath>
				<g style="clip-path:url(#SVGID_00000173140026506208811580000001633484823400827836_);">
					<path class="st10" d="M105.9,118.2l12-7c3-1.8,6.7-0.2,8,3.3l3.7,9.7c0.9-0.7,2.2-0.6,3.8,0.3l16.2,9.8
						c2.6,1.6,4.7,5.2,4.7,7.9l-0.3,4.5c0,1.4-0.5,2.6-1.4,3c-0.2,0.3-0.6,1-1.1,1.8l3.4,23c0.2,1-0.5,1.8-1.5,2h-0.2
						c-1,0.2-1.8-0.5-2-1.5l-3.1-20.8l-17.7,10.3l3.4,22.9c0.2,1-0.6,2-1.6,2.2l0,0c-1,0.2-2-0.6-2.2-1.6l-3.3-22.1
						c-0.6-0.1-1.4-0.4-2.2-0.8l-9.9-6.2l-2.6,17.4c-0.2,1-1,1.5-1.8,1.4l-0.4-0.1c-1-0.2-1.5-1-1.4-1.8l2.8-19l-2.6-1.7
						c-2.6-1.6-4.9-5-5-7.5l-0.2-2.5c-0.1-1.6,0.7-2.6,2-2.6l-2.3-17.8C102.6,122.1,103.8,119.5,105.9,118.2z"/>
					<g>
						<path class="st1" d="M140.2,121.5l-1.1-1.8c0,0-4.5-11.6-7.4-14.6c-1.8-1.8-3.5-2.2-6.1-1.7c-2.8,0.6-5.6,2.3-7,3.8
							c-5,5.4-15.7,25-15.7,25l7.8,1.8l5.5-8.6l-2.2,18.4l11.6,8.6l19.3-10.4l-3-10.6l5-4.7L140.2,121.5z"/>
						<circle cx="125.7" cy="100.1" r="3.5"/>
						<path d="M110.9,134.3l-2.7,4.4c-1.1,1.8-3.4,2.5-5.3,1.3l0,0c-1.8-1.1-2.3-3.4-1.3-5.2l1.4-2.5L110.9,134.3z"/>
						<path class="st10" d="M125.7,96.6c-1.9,0-3.5,1.6-3.5,3.5c0,0.5,0.1,1,0.3,1.4c0.6-0.2,1.3-3.3,1.3-3.3s4,1.3,5.4,0.9
							C128.6,97.7,127.3,96.6,125.7,96.6z"/>
						<polygon points="124.4,106.9 130.5,118 129.7,106.8 128,108.4 						"/>
					</g>
					
						<linearGradient id="SVGID_00000183242176058694866200000002989316369913884802_" gradientUnits="userSpaceOnUse" x1="-2461.3386" y1="550.6112" x2="-2332.3625" y2="550.6112" gradientTransform="matrix(-1 0 0 1 -2242.0737 -379.9023)">
						<stop  offset="0" style="stop-color:#73BAE7"/>
						<stop  offset="1" style="stop-color:#86C5EC"/>
					</linearGradient>
					<path style="fill:url(#SVGID_00000183242176058694866200000002989316369913884802_);" d="M90.3,191.5l3.4-28.6l-1.4-0.5
						c-0.9-0.5-1.3-1.1-1.2-1.8l0,0v-3.9l0,0c0.1-0.4,0.4-0.8,0.9-1.1l82.2-36.7c1.3-0.7,3.6-0.6,5.1,0.2l38.9,22.4
						c0.7,0.4,1.1,1,1.2,1.4l0,0l0,0c0,0.2,0,0.3,0,0.4v3.3c0.1,0.6-0.2,1.1-0.9,1.5l-5.1,3l5,33.8c0.1,0.6-0.3,1.1-0.8,1.2
						c-0.6,0.2-1.1-0.3-1.2-0.9l-4.9-33l-71.8,30.6l0.5,6.2l0,0l2.8,32.5c0.1,0.7-0.4,1.4-1.1,1.4c-0.7,0.1-1.4-0.4-1.4-1.1
						l-2.6-31.1l-0.6-6.3l-0.8,0.4c-1.3,0.7-3.6,0.6-5.1-0.2l-35-20.6l-3.3,27.4c-0.1,0.7-0.7,1.2-1.4,1.1l0,0
						C90.6,192.7,90.2,192.2,90.3,191.5z"/>
					<path class="st10" d="M129,147.4l24.6-10.7c0.2-0.1,0.3-0.1,0.5,0l8.4,4.7c0.4,0.2,0.4,0.6,0.1,0.8l-0.2,0.1l0.2,0.1
						c0.3,0.2,0.3,0.6,0,0.8l-24.4,10.6c-0.2,0.1-0.3,0.1-0.4,0l-7.4-4.3c-0.3-0.2-0.3-0.6,0-0.7l-1.1-0.6
						C128.9,148,128.8,147.5,129,147.4z"/>
					<path class="st10" d="M156.8,163.3l1.1-22.7v-0.1c0-0.3,0.3-0.5,0.5-0.6l0.2,0.1l28.1-13l0.3-0.2c0.2-0.2,0.4-0.1,0.6,0.2
						l1,0.7c0.2,0,0.2,0.1,0.2,0.3l-1.1,20.2c0,0.1-0.1,0.2-0.1,0.3l-0.2,3.1c0,0.3-0.2,0.6-0.4,0.7l-6.6,3.3l1.7,2.8
						c0.1,0.6-0.2,1.1-0.7,1.4l-4.7,2c-0.2,0.2-0.5,0.2-0.7,0.2c-0.4,0.1-0.8,0-1.1-0.2l-3.4-1.9l-12.7,5.5c-0.2,0.1-0.3,0.1-0.4,0
						c-0.4,0.1-0.8-0.2-1-0.5c-0.2-0.2-0.3-0.4-0.2-0.7L156.8,163.3C156.9,163.3,156.8,163.3,156.8,163.3z"/>
				</g>
			</g>
		</g>
	</g>
	<g>
		<circle class="st12" cx="171.2" cy="120.4" r="2.6"/>
		<path class="st13" d="M169.7,182.5h1.7v-32.4h7.7v32.4l0,0v2.9h-9.4c-0.8,0-1.4-0.6-1.4-1.4C168.3,183.1,168.9,182.5,169.7,182.5z
			 M158.9,180.4c0,0.8,0.6,1.4,1.4,1.4h9.4v-2.2l0,0v-30.4H162V179h-1.7C159.5,179,158.9,179.6,158.9,180.4z"/>
		<path class="st1" d="M161.1,151.4h18.8c0,0-2-29-8.7-29C165.3,122.4,161.1,151.4,161.1,151.4z"/>
		<g>
			<path d="M176.4,133.4l-1.4,6.8c-0.4,1.7-2,2.7-3.7,2.4c-0.1,0-0.2-0.1-0.3-0.1l0,0l-16.6-5.4c-1.5-0.5-2.4-2.2-1.8-3.7
				c0.5-1.5,2.1-2.4,3.6-1.9l16.7,4.9l-4,2.2l1.9-6.6c0.4-1.6,2.1-2.5,3.7-2C175.8,130.4,176.7,131.9,176.4,133.4z"/>
		</g>
		<polygon class="st1" points="177.8,135.9 168.8,132.6 168.8,126.4 175,127.8 		"/>
		<path class="st14" d="M172.3,120.2l-3.6-0.1c0,0.1,0,0.1,0,0.2c0.2-1.3,1.2-2.4,2.6-2.4c1.4,0,2.6,1.1,2.6,2.6
			c0,0.4-0.1,0.7-0.2,1C172.5,121,172.3,120.2,172.3,120.2z"/>
	</g>
	<g>
		<path class="st13" d="M329.9,219.5c0,3.4-3.3,6-5.2,9c-1.8,2.7-2.6,6.9-5.4,8.8c-2.6,1.8-6.9,1-10.2,1.8c-3.2,0.9-6.2,3.8-9.8,3.8
			c-3.5,0-6.6-2.9-9.8-3.8c-3.4-1-7.6-0.1-10.2-1.8c-3-1.9-3.8-6.1-5.4-8.8c-1.8-2.9-5.2-5.4-5.2-9c0-3.4,3.3-6,5.2-9
			c1.8-2.7,2.6-6.9,5.4-8.8c2.6-1.8,6.9-1,10.2-1.8c3.2-0.9,6.2-3.8,9.8-3.8c3.5,0,6.6,2.9,9.8,3.8c3.4,1,7.6,0.1,10.2,1.8
			c3,1.9,3.8,6.1,5.4,8.8C326.5,213.5,329.9,216.1,329.9,219.5z"/>
	</g>
	<g>
		<path class="st1" d="M296.7,251.1c0.4-1.4,0.7-2.6,1-4c0.2-1.4,0.4-2.6,0.6-4c0.3-2.6,0.4-5.4,0.5-8.1c0.2-5.4,0.4-10.7,0.3-16.1
			h0.4c-0.1,5.4,0.1,10.7,0.3,16.1c0.2,2.6,0.2,5.4,0.5,8.1c0.2,1.4,0.4,2.6,0.6,4c0.2,1.4,0.5,2.6,1,4H296.7z"/>
	</g>
	<g>
		<circle cx="327.5" cy="245.6" r="1.5"/>
		
			<linearGradient id="SVGID_00000163046457500154082720000003749719691313368960_" gradientUnits="userSpaceOnUse" x1="-12557.3008" y1="622.9327" x2="-12569.5596" y2="638.6495" gradientTransform="matrix(-1 0 0 1 -12232.7412 -379.9023)">
			<stop  offset="0" style="stop-color:#CF3393"/>
			<stop  offset="0.9984" style="stop-color:#F8A58D"/>
		</linearGradient>
		<path style="fill:url(#SVGID_00000163046457500154082720000003749719691313368960_);" d="M327.1,245.5c-0.2,0.4-0.5,2.4-1.9,2
			c-0.1-0.2,0.8-0.4,0.6-1.4c-0.1-0.6,0.2-1.2,0.5-1.4c-0.6,0-1-0.4-1-1c0-0.6,0.4-1,1-1c0.6,0,1,0.4,1,1c0,0.2-0.1,0.4-0.2,0.5
			c0.1,0,0.2,0,0.3,0c0.7,0,1.3,0.4,1.4,1.1C328.4,245.4,327.9,245.5,327.1,245.5z"/>
		
			<linearGradient id="SVGID_00000117672077486916086660000004510699997017720733_" gradientUnits="userSpaceOnUse" x1="-12559.1357" y1="621.5012" x2="-12571.3955" y2="637.218" gradientTransform="matrix(-1 0 0 1 -12232.7412 -379.9023)">
			<stop  offset="0" style="stop-color:#CF3393"/>
			<stop  offset="0.9984" style="stop-color:#F8A58D"/>
		</linearGradient>
		<path style="fill:url(#SVGID_00000117672077486916086660000004510699997017720733_);" d="M338.2,257.5c-0.1,0.6-0.6,1-1.2,0.9
			l-1.8-0.3c-0.6-0.1-1-0.6-0.9-1.2l0.8-4.8c0.1-0.6,0.6-1,1.2-0.9l1.8,0.3c0.6,0.1,1,0.6,0.9,1.2L338.2,257.5z"/>
		<path class="st6" d="M321.4,271.4l0.4-7.2h11l8.6,19l2.2-1.1c1.1-0.4,1.6,0.4,1.6,0.4c0.7,1.1-0.4,1.8-0.4,1.8l-7.8,3.8l-9.5-21.4
			l-0.6,8.2l-9.8,6.1l1.4,2.9c0.6,1.1-0.4,1.8-0.4,1.8c-1.3,0.7-2.1-0.3-2.1-0.3l-4.6-8.1L321.4,271.4z"/>
		<path d="M338.6,254c0-1-0.8-1.8-1.8-1.8c0,0,0,0-0.1,0c-0.5,0-1,0.2-1,0.2l-7.8,2.4l-0.4-1.4l-3.3,1.3l0.6,2.6
			c0.5,2.3,2.8,1.5,2.8,1.5l9.6-3C338,255.7,338.6,255,338.6,254z"/>
		<path class="st17" d="M333.6,251c0,0,1-2.6,3.8-1.8"/>
		<path class="st17" d="M331.6,250.5c0,0,1.2-4.9,7-3.3"/>
		<path class="st17" d="M337.3,260.1c0,0,2.6,0.1,2.6-2.2"/>
		<path class="st17" d="M341.8,257.8c0,0,1.1,4-4.2,4.6"/>
	</g>
	<g>
		<polygon class="st18" points="140.1,9.6 140.1,38.8 151.8,45.5 155.8,55.3 160.2,50.4 173.7,58.2 173.7,29.1 		"/>
		<g>
			<g>
				<path class="st1" d="M163.8,35.2c0-2.6-1.6-5.6-3.5-6.7c-1.4-0.9-2.7-0.4-3.3,1c-0.5-2-1.8-3.9-3.3-4.7
					c-1.9-1.1-3.5,0.1-3.5,2.6c0,1.3,0.4,2.7,1.1,4L157,43l5.8-5l0,0C163.5,37.4,163.8,36.5,163.8,35.2z"/>
			</g>
		</g>
		
			<linearGradient id="SVGID_00000047051367014493970410000009489670357336415365_" gradientUnits="userSpaceOnUse" x1="440.022" y1="384.1292" x2="387.1751" y2="436.976" gradientTransform="matrix(-1 0 0 1 572.6428 -379.9023)">
			<stop  offset="8.011200e-04" style="stop-color:#871FFF"/>
			<stop  offset="1" style="stop-color:#80C7F5"/>
		</linearGradient>
		<path style="fill:url(#SVGID_00000047051367014493970410000009489670357336415365_);" d="M173.7,29.1l0.1,29.1l5.5-3.2
			c1.8-1,2.8-2.9,2.8-4.9l-0.1-21c0-3-1.6-5.8-4.2-7.3L151.3,6.6c-1.8-1-3.9-1-5.6,0l-5.6,3.3L173.7,29.1z M155.8,55.3l4.4-5
			l2.3,1.3L155.8,55.3z"/>
	</g>
	<g>
		<polygon class="st1" points="335.3,219.2 335.4,237.7 342.8,242 345.2,248.3 348.1,245.1 356.8,250 356.7,231.5 		"/>
		
			<ellipse transform="matrix(0.9201 -0.3916 0.3916 0.9201 -65.0026 156.0438)" class="st13" cx="350.1" cy="237.4" rx="1.1" ry="2"/>
		
			<ellipse transform="matrix(0.9201 -0.3916 0.3916 0.9201 -64.2845 153.9372)" class="st13" cx="345.2" cy="234.6" rx="1.1" ry="2"/>
		
			<ellipse transform="matrix(0.9201 -0.3916 0.3916 0.9201 -63.5635 151.8566)" class="st13" cx="340.5" cy="231.8" rx="1.1" ry="2"/>
		<path class="st13" d="M356.7,231.5l0.1,18.6l3.5-2c1.1-0.6,1.8-1.8,1.8-3.1l-0.1-13.4c0-1.9-1-3.7-2.6-4.7l-16.9-9.8
			c-1.1-0.6-2.5-0.6-3.6,0l-3.6,2.1L356.7,231.5z M345.2,248.3l2.8-3.2l1.4,0.9L345.2,248.3z"/>
	</g>
	
		<linearGradient id="SVGID_00000121279915585518872930000014468938629758012324_" gradientUnits="userSpaceOnUse" x1="-323.1255" y1="548.9602" x2="-318.2312" y2="548.9602" gradientTransform="matrix(-1 0 0 1 128.3447 -379.9023)">
		<stop  offset="8.011200e-04" style="stop-color:#6A5CA7"/>
		<stop  offset="1" style="stop-color:#73BFE9"/>
	</linearGradient>
	
		<path style="fill:none;stroke:url(#SVGID_00000121279915585518872930000014468938629758012324_);stroke-width:0.5168;stroke-miterlimit:10;" d="
		M451.2,176.4c-1.3-5-2.7-9.8-4.4-14.7"/>
	<path class="st13" d="M440.9,153.9v79.6L478,212v-79.6L440.9,153.9z M443.6,225.9v-70.3l2.6-1.5v3l26.6-15.3v-3l2.6-1.5v70.3
		L443.6,225.9z"/>
	
		<linearGradient id="SVGID_00000157270762699858273800000011378470085380680887_" gradientUnits="userSpaceOnUse" x1="456.7616" y1="611.9881" x2="456.7616" y2="509.3317" gradientTransform="matrix(1 0 0 1 0 -379.9023)">
		<stop  offset="0" style="stop-color:#CF3293"/>
		<stop  offset="1" style="stop-color:#F8A58D"/>
	</linearGradient>
	<path style="fill:url(#SVGID_00000157270762699858273800000011378470085380680887_);" d="M478,132.5l-4.4-2.6
		c-0.6-0.3-1.2-0.3-1.8,0l-34.5,19.9c-1.1,0.6-1.8,1.8-1.8,3.1v77.5l5.4,3v-79.6L478,132.5z"/>
	<polygon class="st1" points="443.6,225.9 443.6,155.5 446.3,153.9 446.3,157 472.8,141.7 472.8,138.6 475.4,137.1 475.4,207.5 	"/>
	
		<linearGradient id="SVGID_00000006703932879384926400000017883336473377114043_" gradientUnits="userSpaceOnUse" x1="456.8416" y1="552.2898" x2="486.5201" y2="552.2898" gradientTransform="matrix(1 0 0 1 0 -379.9023)">
		<stop  offset="0" style="stop-color:#CF3293"/>
		<stop  offset="1" style="stop-color:#F8A58D"/>
	</linearGradient>
	<polygon style="fill:url(#SVGID_00000006703932879384926400000017883336473377114043_);" points="456.8,190.4 456.8,167.9 
		482.9,152.9 486.5,154.3 460.4,191.9 	"/>
	<polygon class="st1" points="460.4,191.9 460.4,169.3 486.5,154.3 486.5,176.8 	"/>
	<polygon class="st13" points="486.5,154.3 477.8,174.3 460.4,169.3 	"/>
	<g>
		<polygon class="st1" points="384.5,166.2 384.6,191 394.4,196.7 397.8,204.8 401.5,200.7 413,207.3 413,182.7 		"/>
		<g>
			<g>
				<polygon class="st13" points="408.4,188 387,175.7 387,174.4 408.4,186.7 				"/>
			</g>
			<g>
				<polygon class="st13" points="408.4,192.2 387,179.9 387,178.6 408.4,190.9 				"/>
			</g>
			<g>
				<polygon class="st13" points="408.4,196.2 387,183.9 387,182.6 408.4,194.9 				"/>
			</g>
			<g>
				<polygon class="st13" points="397.7,194.2 387,188 387,186.7 397.7,192.9 				"/>
			</g>
		</g>
		
			<linearGradient id="SVGID_00000076592037090617443990000015807455667450525601_" gradientUnits="userSpaceOnUse" x1="385.449" y1="548.7115" x2="420.2376" y2="583.5001" gradientTransform="matrix(1 0 0 1 0 -379.9023)">
			<stop  offset="0" style="stop-color:#CF3393"/>
			<stop  offset="0.9984" style="stop-color:#F8A58D"/>
		</linearGradient>
		<path style="fill:url(#SVGID_00000076592037090617443990000015807455667450525601_);" d="M384.5,166.2l4.7-2.7
			c1.5-0.9,3.3-0.9,4.7,0l22.4,13c2.2,1.3,3.6,3.6,3.6,6.2l0.1,17.8c0,1.8-1,3.3-2.4,4.2l-4.7,2.7l-0.1-24.6L384.5,166.2z
			 M403.6,201.9l-2.2-1.3l-3.7,4.2L403.6,201.9z"/>
	</g>
	<g>
		
			<linearGradient id="SVGID_00000020375674862753569350000004810047228508993161_" gradientUnits="userSpaceOnUse" x1="233.2702" y1="607.9672" x2="280.9479" y2="607.9672" gradientTransform="matrix(1 0 0 1 0 -379.9023)">
			<stop  offset="0" style="stop-color:#CF3293"/>
			<stop  offset="1" style="stop-color:#F8A58D"/>
		</linearGradient>
		<path style="fill:url(#SVGID_00000020375674862753569350000004810047228508993161_);" d="M281,193.7c-0.6-1.4-23-11.5-23-11.5v0.1
			c-0.5-0.4-1.1-0.6-1.8-0.6l-20.1,9.8c-2.2,0.8-2.7,2.2-2.7,3.7v64c0,1.5,0,4.1,2.7,4.9l24.4,10.5c1.8-0.7-1.9-3.5-1.9-5l0.3-64.9
			L281,193.7z"/>
		<path class="st1" d="M279,265.6l-18.5,8.6c-1.5,0-2.7-1.2-2.7-2.7v-65.4c0-1.5,0.6-2.8,2.7-3.6l18.6-9.8c1-0.5,2.7,1.2,2.7,2.7
			v66.5C281.7,263.5,280.8,264.9,279,265.6z"/>
		<polygon points="264.9,260.9 264.9,272.6 276.7,266.7 276.7,255.1 		"/>
		<polygon points="268.1,254 264.9,255.1 264.9,243.7 268.1,242.6 		"/>
		<polygon points="276.8,249.5 273.8,250.6 273.8,239.1 276.8,237.9 		"/>
		<polygon points="268,236.8 264.9,237.9 264.9,226.4 268,225.2 		"/>
		<polygon points="276.8,232.2 273.7,233.3 273.7,221.9 276.8,220.7 		"/>
		<polygon points="268,218.7 264.9,219.9 264.9,208.4 268,207.2 		"/>
		<polygon points="276.8,214.2 273.7,215.3 273.7,203.8 276.8,202.7 		"/>
	</g>
	<g>
		
			<linearGradient id="SVGID_00000178167705318831006610000016104679344564810907_" gradientUnits="userSpaceOnUse" x1="291.6561" y1="497.761" x2="225.4004" y2="485.6001" gradientTransform="matrix(1 0 0 1 0 -379.9023)">
			<stop  offset="8.011200e-04" style="stop-color:#871FFF"/>
			<stop  offset="1" style="stop-color:#80C7F5"/>
		</linearGradient>
		<path style="fill:url(#SVGID_00000178167705318831006610000016104679344564810907_);" d="M218.1,109.4l-0.6-5.8
			c-0.2-3,1.1-3.2,3.4-3.1c3.1,0.1,4-1.1,4.4-2.8c0.4-1.8,0.2-0.5,0.8-3.8c0.7-3.4-0.4-4.8-2.1-7c-1.7-2.2-1.6-3.8-0.5-5.2
			c1.1-1.4,1.1-1.4,2.9-3.3c1.8-1.8,3.1-1.1,5.8,1.5c1.3,1.4,2.6,1.8,3.6,1.8c1-0.6,1.8-1.1,3-1.5l7.4,11.2
			c-7.4,1.8-11.6,9.8-9.4,19.7c2.6,11,12.1,20,21.4,20c9.3,0,14.8-9,12.3-20c-1.8-7.5-6.7-14.1-12.6-17.4l-0.4,7.5l-11-16.9
			c-1.1-1.8-1-3.8,0.2-4.7L259,71l-0.5,10.8c9.4,4.6,17.5,14.1,21.2,25.3c0.8,1.6,2,2.9,4.9,3.8c2.5,0.7,3.8,1.4,4.2,4.4l0.6,5.8
			c0.2,3-1.1,3.2-3.4,3.1c-3.1-0.1-4,1.1-4.4,2.9c-0.4,1.8-0.2,0.5-0.8,3.8c-0.7,3.4,0.4,4.8,2.1,7c1.7,2.2,1.6,3.8,0.5,5.2
			c-1.1,1.4-1.1,1.4-2.9,3.3c-1.8,1.8-3.1,1.1-5.8-1.5c-2.6-2.6-5-1.8-5.8-1.6c-0.8,0.2-2.6,0.8-3.7,1.4s-2,1.1-1.7,5
			c0.3,3.9-1.9,3.4-3.1,3.3l-5.8-1c-1.1-0.2-3.4-0.4-3.9-4.4c-0.5-4-1.6-4.8-2.7-5.8c-1.1-1-3.3-2.2-4.1-2.6
			c-0.9-0.5-3.4-2.2-5.6-0.3c-2.2,1.8-3.4,2.1-5.6-0.4s-2.2-2.6-3.6-4.3c-1.4-1.8-1.8-3.6-0.5-5.2c1.3-1.6,2.2-2.7,0.7-6.5
			c-1.4-3.8-1-2.4-1.7-4.2c-0.7-1.8-1.9-3.4-5.2-4.5C219.9,113,218.5,112.3,218.1,109.4z"/>
		
			<linearGradient id="SVGID_00000044143118214153861950000010281087786471865010_" gradientUnits="userSpaceOnUse" x1="291.5487" y1="497.8947" x2="225.293" y2="485.7338" gradientTransform="matrix(1 0 0 1 0 -379.9023)">
			<stop  offset="8.011200e-04" style="stop-color:#871FFF"/>
			<stop  offset="1" style="stop-color:#80C7F5"/>
		</linearGradient>
		<path style="fill:url(#SVGID_00000044143118214153861950000010281087786471865010_);" d="M217.7,109.5l-0.6-5.8
			c-0.2-3,1.1-3.2,3.4-3.1c3.1,0.1,4-1.1,4.4-2.8c0.4-1.8,0.2-0.5,0.8-3.8c0.7-3.4-0.4-4.8-2.1-7c-1.7-2.1-1.6-3.8-0.5-5.2
			c1.1-1.4,1.1-1.4,2.9-3.3c1.8-1.8,3.1-1.1,5.8,1.5c1.3,1.4,2.6,1.8,3.6,1.8c1-0.6,1.8-1.1,3-1.5l7.4,11.2
			c-7.4,1.8-11.6,9.8-9.4,19.7c2.6,11,12.1,20,21.4,20c9.3,0,14.8-9,12.3-20c-1.8-7.5-6.7-14.1-12.6-17.4l-0.4,7.5l-11-16.9
			c-1.1-1.8-1-3.8,0.2-4.7l12.2-8.6l-0.5,10.8c9.4,4.6,17.5,14.1,21.2,25.3c0.8,1.6,2,2.9,4.9,3.8c2.5,0.7,3.8,1.4,4.2,4.4l0.6,5.8
			c0.2,3-1.1,3.2-3.4,3.1c-3.1-0.1-4,1.1-4.4,2.9c-0.4,1.8-0.2,0.5-0.8,3.8c-0.7,3.4,0.4,4.8,2.1,7c1.7,2.2,1.6,3.8,0.5,5.2
			c-1.1,1.4-1.1,1.4-2.9,3.3c-1.8,1.8-3.1,1.1-5.8-1.5c-2.6-2.6-5-1.8-5.8-1.6c-0.8,0.2-2.6,0.8-3.7,1.4c-1,0.6-2,1.1-1.7,5
			s-1.9,3.4-3.1,3.3l-5.8-1c-1.1-0.2-3.4-0.4-3.9-4.4c-0.5-4-1.6-4.8-2.7-5.8c-1.1-1-3.3-2.2-4.1-2.6c-0.9-0.5-3.4-2.2-5.6-0.3
			c-2.2,1.8-3.4,2.1-5.6-0.4c-2.2-2.5-2.2-2.6-3.6-4.3c-1.4-1.8-1.8-3.6-0.5-5.2c1.3-1.6,2.2-2.7,0.7-6.5c-1.4-3.8-1-2.4-1.7-4.2
			c-0.7-1.8-1.9-3.4-5.2-4.5C219.6,113.2,218.2,112.5,217.7,109.5z"/>
		
			<linearGradient id="SVGID_00000083072972071527406480000013830134670712362413_" gradientUnits="userSpaceOnUse" x1="291.4297" y1="498.0916" x2="225.174" y2="485.9307" gradientTransform="matrix(1 0 0 1 0 -379.9023)">
			<stop  offset="8.011200e-04" style="stop-color:#871FFF"/>
			<stop  offset="1" style="stop-color:#80C7F5"/>
		</linearGradient>
		<path style="fill:url(#SVGID_00000083072972071527406480000013830134670712362413_);" d="M217.4,109.6l-0.6-5.8
			c-0.2-3,1.1-3.2,3.4-3.1c3.1,0.1,4-1.1,4.4-2.8c0.4-1.8,0.2-0.5,0.8-3.8c0.7-3.4-0.4-4.8-2.1-7c-1.7-2.2-1.6-3.8-0.5-5.2
			c1.1-1.4,1.1-1.4,2.9-3.3c1.8-1.8,3.1-1.1,5.8,1.5c1.3,1.4,2.6,1.8,3.6,1.8c1-0.6,1.8-1.1,3-1.5l7.4,11.2
			c-7.4,1.8-11.6,9.8-9.4,19.7c2.6,11,12.1,20,21.4,20c9.3,0,14.8-9,12.3-20c-1.8-7.5-6.7-14.1-12.6-17.4l-0.4,7.5l-11-16.9
			c-1.1-1.8-1-3.8,0.2-4.7l12.2-8.6L257.8,82c9.4,4.6,17.5,14.1,21.2,25.3c0.8,1.6,2,2.9,4.9,3.8c2.5,0.7,3.8,1.4,4.2,4.4l0.6,5.8
			c0.2,3-1.1,3.2-3.4,3.1c-3.1-0.1-4,1.1-4.4,2.9c-0.4,1.8-0.2,0.5-0.8,3.8c-0.7,3.4,0.4,4.8,2.1,7c1.7,2.1,1.6,3.8,0.5,5.2
			c-1.1,1.4-1.1,1.4-2.9,3.3c-1.8,1.8-3.1,1.1-5.8-1.5c-2.6-2.6-5-1.8-5.8-1.6c-0.8,0.2-2.6,0.8-3.7,1.4s-2,1.1-1.7,5
			c0.4,4-1.9,3.4-3.1,3.3l-5.8-1c-1.1-0.2-3.4-0.4-3.9-4.4c-0.4-4-1.6-4.8-2.7-5.8c-1.1-1-3.3-2.2-4.1-2.6c-0.9-0.5-3.4-2.2-5.6-0.3
			c-2.2,1.8-3.4,2.1-5.6-0.4c-2.2-2.5-2.2-2.6-3.6-4.3c-1.4-1.8-1.8-3.6-0.5-5.2c1.3-1.6,2.2-2.7,0.7-6.5c-1.4-3.8-1-2.4-1.7-4.2
			c-0.7-1.8-1.9-3.4-5.2-4.5C219.3,113.3,217.8,112.7,217.4,109.6z"/>
		
			<linearGradient id="SVGID_00000150062774054400052120000014250577387065503907_" gradientUnits="userSpaceOnUse" x1="291.2823" y1="498.4432" x2="225.0266" y2="486.2824" gradientTransform="matrix(1 0 0 1 0 -379.9023)">
			<stop  offset="8.011200e-04" style="stop-color:#871FFF"/>
			<stop  offset="1" style="stop-color:#80C7F5"/>
		</linearGradient>
		<path style="fill:url(#SVGID_00000150062774054400052120000014250577387065503907_);" d="M217.1,109.9l-0.6-5.8
			c-0.2-3,1.1-3.2,3.4-3.1c3.1,0.1,4-1.1,4.4-2.8c0.4-1.8,0.2-0.5,0.8-3.8c0.7-3.4-0.4-4.8-2.1-7c-1.7-2.2-1.6-3.8-0.5-5.2
			c1.1-1.4,1.1-1.4,2.9-3.3c1.8-1.8,3.1-1.1,5.8,1.5c1.3,1.4,2.6,1.8,3.6,1.8c1-0.6,1.8-1.1,3-1.5l7.4,11.2
			c-7.4,1.8-11.6,9.8-9.4,19.7c2.6,11,12.1,20,21.4,20c9.3,0,14.8-9,12.3-20c-1.8-7.5-6.7-14.1-12.6-17.4l-0.4,7.6l-11-16.9
			c-1.1-1.8-1-3.8,0.2-4.7l12.2-8.6l-0.5,10.8c9.4,4.6,17.5,14.1,21.2,25.3c0.8,1.6,2,2.9,4.9,3.8c2.5,0.7,3.8,1.4,4.2,4.4l0.6,5.8
			c0.2,3-1.1,3.2-3.4,3.1c-3.1-0.1-4,1.1-4.4,2.9c-0.4,1.8-0.2,0.5-0.8,3.8c-0.7,3.4,0.4,4.8,2.1,7s1.6,3.8,0.5,5.2
			c-1.1,1.4-1.1,1.4-2.9,3.3c-1.8,1.8-3.1,1.1-5.8-1.5c-2.6-2.6-5-1.8-5.8-1.6c-0.8,0.2-2.6,0.8-3.7,1.4s-2,1.1-1.7,5
			c0.4,4-1.9,3.4-3.1,3.3l-5.8-1c-1.1-0.2-3.4-0.4-3.9-4.4c-0.4-4-1.6-4.8-2.7-5.8c-1.1-1-3.3-2.2-4.1-2.6c-0.9-0.5-3.4-2.2-5.6-0.3
			c-2.2,1.8-3.4,2.1-5.6-0.4c-2.2-2.5-2.2-2.6-3.6-4.3c-1.4-1.8-1.8-3.6-0.5-5.2c1.3-1.6,2.2-2.7,0.7-6.5c-1.4-3.8-1-2.4-1.7-4.2
			c-0.7-1.8-1.9-3.4-5.2-4.5C218.9,113.6,217.6,112.8,217.1,109.9z"/>
		
			<linearGradient id="SVGID_00000105387920001101256910000015983183453917833612_" gradientUnits="userSpaceOnUse" x1="291.1865" y1="498.5137" x2="224.9308" y2="486.3529" gradientTransform="matrix(1 0 0 1 0 -379.9023)">
			<stop  offset="8.011200e-04" style="stop-color:#871FFF"/>
			<stop  offset="1" style="stop-color:#80C7F5"/>
		</linearGradient>
		<path style="fill:url(#SVGID_00000105387920001101256910000015983183453917833612_);" d="M216.8,110l-0.6-5.8
			c-0.2-3,1.1-3.2,3.4-3.1c3.1,0.1,4-1.1,4.4-2.8c0.4-1.8,0.2-0.5,0.8-3.8c0.7-3.4-0.4-4.8-2.1-7c-1.7-2.1-1.6-3.8-0.5-5.2
			c1.1-1.4,1.1-1.4,2.9-3.3c1.8-1.8,3.1-1.1,5.8,1.5c1.3,1.4,2.6,1.8,3.6,1.8c1-0.6,1.8-1.1,3-1.5l7.4,11.2
			c-7.4,1.8-11.6,9.8-9.4,19.7c2.6,11,12.1,20,21.4,20c9.3,0,14.8-9,12.3-20c-1.8-7.5-6.7-14.1-12.6-17.4l-0.4,7.5l-11.2-17
			c-1.1-1.8-1-3.8,0.2-4.7l12.2-8.6L257,82.4c9.4,4.6,17.5,14.1,21.2,25.3c0.8,1.6,2,2.9,4.9,3.8c2.5,0.7,3.8,1.4,4.2,4.4l0.6,5.8
			c0.2,3-1.1,3.2-3.4,3.1c-3.1-0.1-4,1.1-4.4,2.9c-0.4,1.8-0.2,0.5-0.8,3.8c-0.7,3.4,0.4,4.8,2.1,7s1.6,3.8,0.5,5.2
			c-1.1,1.4-1.1,1.4-2.9,3.3c-1.8,1.8-3.1,1.1-5.8-1.5c-2.6-2.6-5-1.8-5.8-1.6c-0.8,0.2-2.6,0.8-3.7,1.4c-1,0.6-2,1.1-1.7,5
			c0.3,3.9-1.9,3.4-3.1,3.3l-5.8-1c-1.1-0.2-3.4-0.4-3.9-4.4c-0.5-4-1.6-4.8-2.7-5.8c-1.1-1-3.3-2.2-4.1-2.6
			c-0.9-0.5-3.4-2.2-5.6-0.3s-3.4,2.1-5.6-0.4s-2.2-2.6-3.6-4.3c-1.4-1.8-1.8-3.6-0.5-5.2c1.3-1.6,2.2-2.7,0.7-6.5
			c-1.4-3.8-1-2.4-1.7-4.2c-0.7-1.8-1.9-3.4-5.2-4.5C218.5,113.7,217.2,113,216.8,110z"/>
		
			<linearGradient id="SVGID_00000156588607448762315250000002198020846062784389_" gradientUnits="userSpaceOnUse" x1="291.0443" y1="498.837" x2="224.7886" y2="486.6761" gradientTransform="matrix(1 0 0 1 0 -379.9023)">
			<stop  offset="8.011200e-04" style="stop-color:#871FFF"/>
			<stop  offset="1" style="stop-color:#80C7F5"/>
		</linearGradient>
		<path style="fill:url(#SVGID_00000156588607448762315250000002198020846062784389_);" d="M216.5,110.1l-0.6-5.8
			c-0.2-3,1.1-3.2,3.4-3.1c3.1,0.1,4-1.1,4.4-2.8c0.4-1.8,0.2-0.5,0.8-3.8c0.7-3.4-0.4-4.8-2.1-7c-1.7-2.2-1.6-3.8-0.5-5.2
			c1.1-1.4,1.1-1.4,2.9-3.3c1.8-1.8,3.1-1.1,5.8,1.5c1.3,1.4,2.6,1.8,3.6,1.8c1-0.6,1.8-1.1,3-1.5l7.4,11.2
			c-7.4,1.8-11.6,9.8-9.4,19.7c2.6,11,12.1,20,21.4,20c9.3,0,14.8-9,12.3-20c-1.8-7.5-6.7-14.1-12.6-17.4l-0.4,7.5l-11-16.9
			c-1.1-1.8-1-3.8,0.2-4.7l12.2-8.4l-0.5,10.8c9.4,4.6,17.5,14.1,21.2,25.3c0.8,1.6,2,2.9,4.9,3.8c2.5,0.7,3.8,1.4,4.2,4.4l0.6,5.8
			c0.2,3-1.1,3.2-3.4,3.1c-3.1-0.1-4,1.1-4.4,2.9c-0.4,1.8-0.2,0.5-0.8,3.8c-0.7,3.4,0.4,4.8,2.1,7s1.6,3.8,0.5,5.2
			c-1.1,1.4-1.1,1.4-2.9,3.3c-1.8,1.8-3.1,1.1-5.8-1.5c-2.6-2.6-5-1.8-5.8-1.6c-0.8,0.2-2.6,0.8-3.7,1.4c-1,0.6-2,1.1-1.7,5
			c0.3,3.9-1.9,3.4-3.1,3.3l-5.8-1c-1.1-0.2-3.4-0.4-3.9-4.4c-0.5-4-1.6-4.8-2.7-5.8c-1.1-1-3.3-2.2-4.1-2.6
			c-0.9-0.5-3.4-2.2-5.6-0.3s-3.4,2.1-5.6-0.4s-2.2-2.6-3.6-4.3c-1.4-1.8-1.8-3.6-0.5-5.2c1.4-1.6,2.2-2.7,0.7-6.5
			c-1.4-3.8-1-2.4-1.7-4.2c-0.7-1.8-1.9-3.4-5.2-4.5C218.2,113.8,216.9,113.2,216.5,110.1z"/>
		
			<linearGradient id="SVGID_00000114034941192031731930000016850188683882831541_" gradientUnits="userSpaceOnUse" x1="290.911" y1="499.1112" x2="224.6555" y2="486.9504" gradientTransform="matrix(1 0 0 1 0 -379.9023)">
			<stop  offset="8.011200e-04" style="stop-color:#871FFF"/>
			<stop  offset="1" style="stop-color:#80C7F5"/>
		</linearGradient>
		<path style="fill:url(#SVGID_00000114034941192031731930000016850188683882831541_);" d="M216.1,110.4l-0.6-5.8
			c-0.2-3,1.1-3.2,3.4-3.1c3.1,0.1,4-1.1,4.4-2.8c0.4-1.8,0.2-0.5,0.8-3.8c0.7-3.4-0.4-4.8-2.1-7s-1.6-3.8-0.5-5.2
			c1.1-1.4,1.1-1.4,2.9-3.3c1.8-1.8,3.1-1.1,5.8,1.5c1.3,1.4,2.6,1.8,3.6,1.8c1-0.6,1.8-1.1,3-1.5l7.4,11.2
			c-7.4,1.8-11.6,9.8-9.4,19.7c2.6,11,12.1,20,21.4,20c9.3,0,14.8-9,12.3-20c-1.8-7.5-6.7-14.1-12.6-17.4l-0.4,7.5l-11-16.8
			c-1.1-1.8-1-3.8,0.2-4.7l12.2-8.5l-0.5,10.8c9.4,4.6,17.5,14.1,21.2,25.3c0.8,1.6,2,2.9,4.9,3.8c2.5,0.7,3.8,1.4,4.2,4.4l0.6,5.8
			c0.2,3-1.1,3.2-3.4,3.1c-3.1-0.1-4,1.1-4.4,2.9c-0.4,1.8-0.2,0.5-0.8,3.8c-0.7,3.4,0.4,4.8,2.1,7s1.6,3.8,0.5,5.2
			c-1.1,1.4-1.1,1.4-2.9,3.3c-1.8,1.8-3.1,1.1-5.8-1.5c-2.6-2.6-5-1.8-5.8-1.6c-0.8,0.2-2.6,0.8-3.7,1.4c-1,0.6-2,1.1-1.7,5
			c0.3,3.9-1.9,3.4-3.1,3.3l-5.8-1c-1.1-0.2-3.4-0.4-3.9-4.4c-0.5-4-1.6-4.8-2.7-5.8c-1.1-1-3.3-2.2-4.1-2.6
			c-0.9-0.5-3.4-2.2-5.6-0.3s-3.4,2.1-5.6-0.4c-2.2-2.5-2.2-2.6-3.6-4.3c-1.4-1.8-1.8-3.6-0.5-5.2c1.3-1.6,2.2-2.7,0.7-6.5
			c-1.4-3.8-1-2.4-1.7-4.2c-0.7-1.8-1.9-3.4-5.2-4.5C217.9,114,216.5,113.3,216.1,110.4z"/>
		
			<linearGradient id="SVGID_00000148635422116151762090000012556635232872731777_" gradientUnits="userSpaceOnUse" x1="290.8205" y1="499.1534" x2="224.5648" y2="486.9925" gradientTransform="matrix(1 0 0 1 0 -379.9023)">
			<stop  offset="8.011200e-04" style="stop-color:#871FFF"/>
			<stop  offset="1" style="stop-color:#80C7F5"/>
		</linearGradient>
		<path style="fill:url(#SVGID_00000148635422116151762090000012556635232872731777_);" d="M215.8,110.5l-0.6-5.8
			c-0.2-3,1.1-3.2,3.4-3.1c3.1,0.1,4-1.1,4.4-2.8c0.4-1.8,0.2-0.5,0.8-3.8c0.7-3.4-0.4-4.8-2.1-7c-1.7-2.1-1.6-3.8-0.5-5.2
			c1.1-1.4,1.1-1.4,2.9-3.3c1.8-1.8,3.1-1.1,5.8,1.5c1.3,1.4,2.6,1.8,3.6,1.8c1-0.6,1.8-1.1,3-1.5l7.4,11.2
			c-7.4,1.8-11.6,9.8-9.4,19.7c2.6,11,12.1,20,21.4,20c9.3,0,14.8-9,12.3-20c-1.8-7.5-6.7-14.1-12.6-17.4l-0.4,7.5l-11-16.9
			c-1.1-1.8-1-3.8,0.2-4.7l12.2-8.6l-0.5,10.8c9.4,4.6,17.5,14.1,21.2,25.3c0.8,1.6,2,2.9,4.9,3.8c2.5,0.7,3.8,1.4,4.2,4.4l0.6,5.8
			c0.2,3-1.1,3.2-3.4,3.1c-3.1-0.1-4,1.1-4.4,2.9c-0.4,1.8-0.2,0.5-0.8,3.8c-0.7,3.4,0.4,4.8,2.1,7s1.6,3.8,0.5,5.2
			c-1.1,1.4-1.1,1.4-2.9,3.3c-1.8,1.8-3.1,1.1-5.8-1.5c-2.6-2.6-5-1.8-5.8-1.6c-0.8,0.2-2.6,0.8-3.7,1.4c-1,0.6-2,1.1-1.7,5
			c0.4,4-1.9,3.4-3.1,3.3l-5.8-1c-1.1-0.2-3.4-0.4-3.9-4.4c-0.4-4-1.6-4.8-2.7-5.8c-1.1-1-3.3-2.2-4.1-2.6c-0.9-0.5-3.4-2.2-5.6-0.3
			s-3.4,2.1-5.6-0.4s-2.2-2.6-3.6-4.3c-1.4-1.8-1.8-3.6-0.5-5.2c1.4-1.6,2.2-2.7,0.7-6.5c-1.4-3.8-1-2.4-1.7-4.2
			c-0.7-1.8-1.9-3.4-5.2-4.5C217.6,114.2,216.2,113.6,215.8,110.5z"/>
		
			<linearGradient id="SVGID_00000140729666389120912120000007589544307701675690_" gradientUnits="userSpaceOnUse" x1="290.6873" y1="499.4276" x2="224.4316" y2="487.2668" gradientTransform="matrix(1 0 0 1 0 -379.9023)">
			<stop  offset="8.011200e-04" style="stop-color:#871FFF"/>
			<stop  offset="1" style="stop-color:#80C7F5"/>
		</linearGradient>
		<path style="fill:url(#SVGID_00000140729666389120912120000007589544307701675690_);" d="M215.5,110.7l-0.6-5.8
			c-0.2-3,1.1-3.2,3.4-3.1c3.1,0.1,4-1.1,4.4-2.8c0.4-1.8,0.2-0.5,0.8-3.8c0.7-3.4-0.4-4.8-2.1-7c-1.7-2.1-1.6-3.8-0.5-5.2
			c1.1-1.4,1.1-1.4,2.9-3.3c1.8-1.8,3.1-1.1,5.8,1.5c1.3,1.4,2.6,1.8,3.6,1.8c1-0.6,1.8-1.1,3-1.5l7.4,11.2
			c-7.4,1.8-11.6,9.8-9.4,19.7c2.6,11,12.1,20,21.4,20c9.3,0,14.8-9,12.3-20c-1.8-7.5-6.7-14.1-12.6-17.4l-0.4,7.6l-11-16.9
			c-1.1-1.8-1-3.8,0.2-4.7l12.2-8.6l-0.5,10.8c9.4,4.6,17.5,14.1,21.2,25.3c0.8,1.6,2,2.9,4.9,3.8c2.5,0.7,3.8,1.4,4.2,4.4l0.6,5.8
			c0.2,3-1.1,3.2-3.4,3.1c-3.1-0.1-4,1.1-4.4,2.9c-0.4,1.8-0.2,0.5-0.8,3.8c-0.7,3.4,0.4,4.8,2.1,7c1.7,2.1,1.6,3.8,0.5,5.2
			c-1.1,1.4-1.1,1.4-2.9,3.3c-1.8,1.8-3.1,1.1-5.8-1.5c-2.6-2.6-5-1.8-5.8-1.6c-0.8,0.2-2.6,0.8-3.7,1.4c-1,0.6-2,1.1-1.7,5
			c0.3,3.9-1.9,3.4-3.1,3.3l-5.8-1c-1.1-0.2-3.4-0.4-3.9-4.4c-0.5-4-1.6-4.8-2.7-5.8c-1.1-1-3.3-2.2-4.1-2.6
			c-0.9-0.5-3.4-2.2-5.6-0.3s-3.4,2.1-5.6-0.4c-2.2-2.5-2.2-2.6-3.6-4.3c-1.4-1.8-1.8-3.6-0.5-5.2c1.3-1.6,2.2-2.7,0.7-6.5
			c-1.4-3.8-1-2.4-1.7-4.2s-1.9-3.4-5.2-4.5C217.3,114.4,215.9,113.7,215.5,110.7z"/>
		
			<linearGradient id="SVGID_00000121273542415573948180000001363834999674866325_" gradientUnits="userSpaceOnUse" x1="290.5799" y1="499.5613" x2="224.3242" y2="487.4005" gradientTransform="matrix(1 0 0 1 0 -379.9023)">
			<stop  offset="8.011200e-04" style="stop-color:#871FFF"/>
			<stop  offset="1" style="stop-color:#80C7F5"/>
		</linearGradient>
		<path style="fill:url(#SVGID_00000121273542415573948180000001363834999674866325_);" d="M215.1,110.8l-0.6-5.8
			c-0.2-3,1.1-3.2,3.4-3.1c3.1,0.1,4-1.1,4.4-2.8c0.4-1.8,0.2-0.5,0.8-3.8c0.7-3.4-0.4-4.8-2.1-7c-1.7-2.1-1.6-3.8-0.5-5.2
			c1.1-1.4,1.1-1.4,2.9-3.3c1.8-1.8,3.1-1.1,5.8,1.5c1.3,1.4,2.6,1.8,3.6,1.8c1-0.6,1.8-1.1,3-1.5l7.4,11.2
			c-7.4,1.8-11.6,9.8-9.4,19.7c2.6,11,12.1,20,21.4,20c9.3,0,14.8-9,12.3-20c-1.8-7.5-6.7-14.1-12.6-17.4l-0.4,7.5l-11-16.9
			c-1.1-1.8-1-3.8,0.2-4.7l12.2-8.6l-0.5,10.8c9.4,4.6,17.5,14.1,21.2,25.3c0.8,1.6,2,2.9,4.9,3.8c2.5,0.7,3.8,1.4,4.2,4.4l0.6,5.8
			c0.2,3-1.1,3.2-3.4,3.1c-3.1-0.1-4,1.1-4.4,2.9c-0.4,1.8-0.2,0.5-0.8,3.8c-0.7,3.4,0.4,4.8,2.1,7s1.6,3.8,0.5,5.2
			c-1.1,1.4-1.1,1.4-2.9,3.3c-1.8,1.8-3.1,1.1-5.8-1.5c-2.6-2.6-5-1.8-5.8-1.6c-0.8,0.2-2.6,0.8-3.7,1.4c-1,0.6-2,1.1-1.7,5
			c0.4,4-1.9,3.4-3.1,3.3l-5.8-1c-1.1-0.2-3.4-0.4-3.9-4.4c-0.4-4-1.6-4.8-2.7-5.8c-1.1-1-3.3-2.2-4.1-2.6c-0.9-0.5-3.4-2.2-5.6-0.3
			c-2.2,1.8-3.4,2.1-5.6-0.4c-2.2-2.5-2.2-2.6-3.6-4.3c-1.4-1.8-1.8-3.6-0.5-5.2c1.3-1.6,2.2-2.7,0.7-6.5c-1.4-3.8-1-2.4-1.7-4.2
			c-0.7-1.8-1.9-3.4-5.2-4.5C216.9,114.4,215.6,113.8,215.1,110.8z"/>
		
			<linearGradient id="SVGID_00000163761353125758225520000008328947748445320103_" gradientUnits="userSpaceOnUse" x1="290.4699" y1="499.7092" x2="224.2142" y2="487.5484" gradientTransform="matrix(1 0 0 1 0 -379.9023)">
			<stop  offset="8.011200e-04" style="stop-color:#871FFF"/>
			<stop  offset="1" style="stop-color:#80C7F5"/>
		</linearGradient>
		<path style="fill:url(#SVGID_00000163761353125758225520000008328947748445320103_);" d="M214.9,111l-0.6-5.8
			c-0.2-3,1.1-3.2,3.4-3.1c3.1,0.1,4-1.1,4.4-2.8c0.4-1.8,0.2-0.5,0.8-3.8c0.7-3.4-0.4-4.8-2.1-7c-1.7-2.2-1.6-3.8-0.5-5.2
			c1.1-1.4,1.1-1.4,2.9-3.3c1.8-1.8,3.1-1.1,5.8,1.5c1.3,1.4,2.6,1.8,3.6,1.8c1-0.6,1.8-1.1,3-1.5l7.4,11.2
			c-7.4,1.8-11.6,9.8-9.4,19.7c2.6,11,12.1,20,21.4,20s14.8-9,12.3-20c-1.8-7.5-6.7-14.1-12.6-17.4l-0.4,7.5l-11.3-17
			c-1.1-1.8-1-3.8,0.2-4.7l12.2-8.6L255,83.3c9.4,4.6,17.5,14.1,21.2,25.3c0.8,1.6,2,2.9,4.9,3.8c2.5,0.7,3.8,1.4,4.2,4.4l0.6,5.8
			c0.2,3-1.1,3.2-3.4,3.1c-3.1-0.1-4,1.1-4.4,2.9c-0.4,1.8-0.2,0.5-0.8,3.8c-0.7,3.4,0.4,4.8,2.1,7s1.6,3.8,0.5,5.2
			c-1.1,1.4-1.1,1.4-2.9,3.3c-1.8,1.8-3.1,1.1-5.8-1.5c-2.6-2.6-5-1.8-5.8-1.6c-0.8,0.2-2.6,0.8-3.7,1.4c-1,0.6-2,1.1-1.7,5
			c0.3,3.9-1.9,3.4-3.1,3.3l-5.8-1c-1.1-0.2-3.4-0.4-3.9-4.4c-0.5-4-1.6-4.8-2.7-5.8c-1.1-1-3.3-2.2-4.1-2.6
			c-0.9-0.5-3.4-2.2-5.6-0.3c-2.2,1.8-3.4,2.1-5.6-0.4s-2.2-2.6-3.6-4.3c-1.4-1.8-1.8-3.6-0.5-5.2c1.4-1.6,2.2-2.7,0.7-6.5
			c-1.4-3.8-1-2.4-1.7-4.2s-1.9-3.4-5.2-4.5C216.5,114.7,215.3,114,214.9,111z"/>
		
			<linearGradient id="SVGID_00000016757355331951793400000008446109571948754052_" gradientUnits="userSpaceOnUse" x1="290.3134" y1="500.1098" x2="224.0578" y2="487.949" gradientTransform="matrix(1 0 0 1 0 -379.9023)">
			<stop  offset="8.011200e-04" style="stop-color:#871FFF"/>
			<stop  offset="1" style="stop-color:#80C7F5"/>
		</linearGradient>
		<path style="fill:url(#SVGID_00000016757355331951793400000008446109571948754052_);" d="M214.5,111.2l-0.6-5.8
			c-0.2-3,1.1-3.2,3.4-3.1c3.1,0.1,4-1.1,4.4-2.8c0.4-1.8,0.2-0.5,0.8-3.8c0.7-3.4-0.4-4.8-2.1-7c-1.7-2.1-1.6-3.8-0.5-5.2
			c1.1-1.4,1.1-1.4,2.9-3.3c1.8-1.8,3.1-1.1,5.8,1.5c1.3,1.4,2.6,1.8,3.6,1.8c1-0.6,1.8-1.1,3-1.5l7.4,11.2
			c-7.4,1.8-11.6,9.8-9.4,19.7c2.6,11,12.1,20,21.4,20c9.3,0,14.8-9,12.3-20c-1.8-7.5-6.7-14.1-12.6-17.4l-0.4,7.5l-11-16.9
			c-1.1-1.8-1-3.8,0.2-4.7l12.2-8.4l-0.5,10.8c9.4,4.6,17.5,14.1,21.2,25.3c0.8,1.6,2,2.9,4.9,3.8c2.5,0.7,3.8,1.4,4.2,4.4l0.6,5.8
			c0.2,3-1.1,3.2-3.4,3.1c-3.1-0.1-4,1.1-4.4,2.9c-0.4,1.8-0.2,0.5-0.8,3.8c-0.7,3.4,0.4,4.8,2.1,7s1.6,3.8,0.5,5.2
			c-1.1,1.4-1.1,1.4-2.9,3.3c-1.8,1.8-3.1,1.1-5.8-1.5c-2.6-2.6-5-1.8-5.8-1.6c-0.8,0.2-2.6,0.8-3.7,1.4s-2,1.1-1.7,5
			c0.3,3.9-1.9,3.4-3.1,3.3l-5.8-1c-1.1-0.2-3.4-0.4-3.9-4.4c-0.5-4-1.6-4.8-2.7-5.8c-1.1-1-3.3-2.2-4.1-2.6
			c-0.9-0.5-3.4-2.2-5.6-0.3c-2.2,1.8-3.4,2.1-5.6-0.4s-2.2-2.6-3.6-4.3c-1.4-1.8-1.8-3.6-0.5-5.2c1.3-1.6,2.2-2.7,0.7-6.5
			c-1.4-3.8-1-2.4-1.7-4.2c-0.7-1.8-1.9-3.4-5.2-4.5C216.3,114.8,214.9,114.2,214.5,111.2z"/>
		
			<linearGradient id="SVGID_00000097470660652791298470000010223197527196501125_" gradientUnits="userSpaceOnUse" x1="290.2086" y1="500.2293" x2="223.953" y2="488.0685" gradientTransform="matrix(1 0 0 1 0 -379.9023)">
			<stop  offset="8.011200e-04" style="stop-color:#871FFF"/>
			<stop  offset="1" style="stop-color:#80C7F5"/>
		</linearGradient>
		<path style="fill:url(#SVGID_00000097470660652791298470000010223197527196501125_);" d="M214.1,111.4l-0.6-5.8
			c-0.2-3,1.1-3.2,3.4-3.1c3.1,0.1,4-1.1,4.4-2.8c0.4-1.8,0.2-0.5,0.8-3.8c0.7-3.4-0.4-4.8-2.1-7c-1.7-2.1-1.6-3.8-0.5-5.2
			c1.1-1.4,1.1-1.4,2.9-3.3c1.8-1.8,3.1-1.1,5.8,1.5c1.3,1.4,2.6,1.8,3.6,1.8c1-0.6,1.8-1.1,3-1.5l7.4,11.2
			c-7.4,1.8-11.6,9.8-9.4,19.7c2.6,11,12.1,20,21.4,20c9.3,0,14.8-9,12.3-20c-1.8-7.5-6.7-14.1-12.6-17.4l-0.4,7.5l-11-16.9
			c-1.1-1.8-1-3.8,0.2-4.7L255,73l-0.5,10.8c9.4,4.6,17.5,14.1,21.2,25.3c0.8,1.6,2,2.9,4.9,3.8c2.5,0.7,3.8,1.4,4.2,4.4l0.6,5.8
			c0.2,3-1.1,3.2-3.4,3.1c-3.1-0.1-4,1.1-4.4,2.9c-0.4,1.8-0.2,0.5-0.8,3.8c-0.7,3.4,0.4,4.8,2.1,7s1.6,3.8,0.5,5.2
			c-1.1,1.4-1.1,1.4-2.9,3.3c-1.8,1.8-3.1,1.1-5.8-1.5c-2.6-2.6-5-1.8-5.8-1.6c-0.8,0.2-2.6,0.8-3.7,1.4c-1,0.6-2,1.1-1.7,5
			c0.3,3.9-1.9,3.4-3.1,3.3l-5.8-1c-1.1-0.2-3.4-0.4-3.9-4.4c-0.4-4-1.6-4.8-2.7-5.8c-1.1-1-3.3-2.2-4.1-2.6
			c-0.9-0.5-3.4-2.2-5.6-0.3c-2.2,1.8-3.4,2.1-5.6-0.4s-2.2-2.6-3.6-4.3c-1.4-1.8-1.8-3.6-0.5-5.2c1.4-1.6,2.2-2.7,0.7-6.5
			c-1.4-3.8-1-2.4-1.7-4.2c-0.7-1.8-1.9-3.4-5.2-4.5C215.9,115,214.5,114.4,214.1,111.4z"/>
		
			<linearGradient id="SVGID_00000111900877743273421820000008171043115017247661_" gradientUnits="userSpaceOnUse" x1="290.0755" y1="500.5036" x2="223.8198" y2="488.3428" gradientTransform="matrix(1 0 0 1 0 -379.9023)">
			<stop  offset="8.011200e-04" style="stop-color:#871FFF"/>
			<stop  offset="1" style="stop-color:#80C7F5"/>
		</linearGradient>
		<path style="fill:url(#SVGID_00000111900877743273421820000008171043115017247661_);" d="M213.8,111.6l-0.6-5.8
			c-0.2-3,1.1-3.2,3.4-3.1c3.1,0.1,4-1.1,4.4-2.8c0.4-1.8,0.2-0.5,0.8-3.8c0.7-3.4-0.4-4.8-2.1-7s-1.6-3.8-0.5-5.2
			c1.1-1.4,1.1-1.4,2.9-3.3c1.8-1.8,3.1-1.1,5.8,1.5c1.3,1.4,2.6,1.8,3.6,1.8c1-0.6,1.8-1.1,3-1.5l7.4,11.2
			c-7.4,1.8-11.6,9.8-9.4,19.7c2.6,11,12.1,20,21.4,20c9.3,0,14.8-9,12.3-20c-1.8-7.5-6.7-14.1-12.6-17.4l-0.4,7.5l-11-16.8
			c-1.1-1.8-1-3.8,0.2-4.7l12.2-8.6L254.2,84c9.4,4.6,17.5,14.1,21.2,25.3c0.8,1.6,2,2.9,4.9,3.8c2.5,0.7,3.8,1.4,4.2,4.4l0.6,5.8
			c0.2,3-1.1,3.2-3.4,3.1c-3.1-0.1-4,1.1-4.4,2.9c-0.4,1.8-0.2,0.5-0.8,3.8c-0.7,3.4,0.4,4.8,2.1,7c1.7,2.2,1.6,3.8,0.5,5.2
			c-1.1,1.4-1.1,1.4-2.9,3.3c-1.8,1.8-3.1,1.1-5.8-1.5c-2.6-2.6-5-1.8-5.8-1.6c-0.8,0.2-2.6,0.8-3.7,1.4s-2,1.1-1.7,5
			c0.4,4-1.9,3.4-3.1,3.3l-5.8-1c-1.1-0.2-3.4-0.4-3.9-4.4c-0.4-4-1.6-4.8-2.7-5.8c-1.1-1-3.3-2.2-4.1-2.6c-0.9-0.5-3.4-2.2-5.6-0.3
			c-2.2,1.8-3.4,2.1-5.6-0.4c-2.2-2.5-2.2-2.6-3.6-4.3c-1.4-1.8-1.8-3.6-0.5-5.2c1.3-1.6,2.2-2.7,0.7-6.5c-1.4-3.8-1-2.4-1.7-4.2
			c-0.7-1.8-1.9-3.4-5.2-4.5C215.6,115.2,214.2,114.5,213.8,111.6z"/>
		
			<linearGradient id="SVGID_00000043419611742684519700000015647234491809310377_" gradientUnits="userSpaceOnUse" x1="289.9823" y1="500.5599" x2="223.7266" y2="488.3991" gradientTransform="matrix(1 0 0 1 0 -379.9023)">
			<stop  offset="8.011200e-04" style="stop-color:#871FFF"/>
			<stop  offset="1" style="stop-color:#80C7F5"/>
		</linearGradient>
		<path style="fill:url(#SVGID_00000043419611742684519700000015647234491809310377_);" d="M213.4,111.6l-0.6-5.8
			c-0.2-3,1.1-3.2,3.4-3.1c3.1,0.1,4-1.1,4.4-2.8c0.4-1.8,0.2-0.5,0.8-3.8c0.7-3.4-0.4-4.8-2.1-7c-1.7-2.1-1.6-3.8-0.5-5.2
			c1.1-1.4,1.1-1.4,2.9-3.3c1.8-1.8,3.1-1.1,5.8,1.5c1.3,1.4,2.6,1.8,3.6,1.8c1-0.6,1.8-1.1,3-1.5l7.4,11.2
			c-7.4,1.8-11.6,9.8-9.4,19.7c2.6,11,12.1,20,21.4,20c9.3,0,14.8-9,12.3-20c-1.8-7.5-6.7-14.1-12.6-17.4l-0.4,7.5l-11-16.9
			c-1.1-1.8-1-3.8,0.2-4.7l12.2-8.6L253.8,84c9.4,4.6,17.5,14.1,21.2,25.3c0.8,1.6,2,2.9,4.9,3.8c2.5,0.7,3.8,1.4,4.2,4.4l0.6,5.8
			c0.2,3-1.1,3.2-3.4,3.1c-3.1-0.1-4,1.1-4.4,2.9c-0.4,1.8-0.2,0.5-0.8,3.8c-0.7,3.4,0.4,4.8,2.1,7c1.7,2.1,1.6,3.8,0.5,5.2
			c-1.1,1.4-1.1,1.4-2.9,3.3c-1.8,1.8-3.1,1.1-5.8-1.5c-2.6-2.6-5-1.8-5.8-1.6c-0.8,0.2-2.6,0.8-3.7,1.4c-1,0.6-2,1.1-1.7,5
			c0.4,4-1.9,3.4-3.1,3.3l-5.8-1c-1.1-0.2-3.4-0.4-3.9-4.4s-1.6-4.8-2.7-5.8c-1.1-1-3.3-2.2-4.1-2.6c-0.9-0.5-3.4-2.2-5.6-0.3
			c-2.2,1.8-3.4,2.1-5.6-0.4s-2.2-2.6-3.6-4.3c-1.4-1.8-1.8-3.6-0.5-5.2c1.3-1.6,2.2-2.7,0.7-6.5c-1.4-3.8-1-2.4-1.7-4.2
			c-0.7-1.8-1.9-3.4-5.2-4.5C215.3,115.3,213.9,114.7,213.4,111.6z"/>
		
			<linearGradient id="SVGID_00000093866996894205508400000011894516133894742677_" gradientUnits="userSpaceOnUse" x1="289.8516" y1="500.82" x2="223.596" y2="488.6591" gradientTransform="matrix(1 0 0 1 0 -379.9023)">
			<stop  offset="8.011200e-04" style="stop-color:#871FFF"/>
			<stop  offset="1" style="stop-color:#80C7F5"/>
		</linearGradient>
		<path style="fill:url(#SVGID_00000093866996894205508400000011894516133894742677_);" d="M213.2,111.9l-0.6-5.8
			c-0.2-3,1.1-3.2,3.4-3.1c3.1,0.1,4-1.1,4.4-2.8c0.4-1.8,0.2-0.5,0.8-3.8c0.7-3.4-0.4-4.8-2.1-7c-1.7-2.1-1.6-3.8-0.5-5.2
			c1.1-1.4,1.1-1.4,2.9-3.3c1.8-1.8,3.1-1.1,5.8,1.5c1.3,1.4,2.6,1.8,3.6,1.8c1-0.6,1.8-1.1,3-1.5l7.4,11.2
			c-7.4,1.8-11.6,9.8-9.4,19.7c2.6,11,12.1,20,21.4,20c9.4,0,14.8-9,12.3-20c-1.8-7.5-6.7-14.1-12.6-17.4l-0.4,7.5l-11-16.9
			c-1.1-1.8-1-3.8,0.2-4.7l12.2-8.6l-0.5,10.8c9.4,4.6,17.5,14.1,21.2,25.3c0.8,1.6,2,2.9,4.9,3.8c2.5,0.7,3.8,1.4,4.2,4.4l0.6,5.8
			c0.2,3-1.1,3.2-3.4,3.1c-3.1-0.1-4,1.1-4.4,2.9c-0.4,1.8-0.2,0.5-0.8,3.8c-0.7,3.4,0.4,4.8,2.1,7c1.7,2.1,1.6,3.8,0.5,5.2
			c-1.1,1.4-1.1,1.4-2.9,3.3c-1.8,1.8-3.1,1.1-5.8-1.5c-2.6-2.6-5-1.8-5.8-1.6c-0.8,0.2-2.6,0.8-3.7,1.4s-2,1.1-1.7,5
			s-1.9,3.4-3.1,3.3l-5.8-1c-1.1-0.2-3.4-0.4-3.9-4.4c-0.4-4-1.6-4.8-2.7-5.8c-1.1-1-3.3-2.2-4.1-2.6c-0.9-0.5-3.4-2.2-5.6-0.3
			c-2.2,1.8-3.4,2.1-5.6-0.4c-2.2-2.5-2.2-2.6-3.6-4.3c-1.4-1.8-1.8-3.6-0.5-5.2c1.3-1.6,2.2-2.7,0.7-6.5c-1.4-3.8-1-2.4-1.7-4.2
			s-1.9-3.4-5.2-4.5C214.9,115.5,213.6,114.8,213.2,111.9z"/>
		
			<linearGradient id="SVGID_00000026849612691803888940000011120614851645797252_" gradientUnits="userSpaceOnUse" x1="289.7158" y1="501.1085" x2="223.4602" y2="488.9476" gradientTransform="matrix(1 0 0 1 0 -379.9023)">
			<stop  offset="8.011200e-04" style="stop-color:#871FFF"/>
			<stop  offset="1" style="stop-color:#80C7F5"/>
		</linearGradient>
		<path style="fill:url(#SVGID_00000026849612691803888940000011120614851645797252_);" d="M212.8,112l-0.6-5.8
			c-0.2-3,1.1-3.2,3.4-3.1c3.1,0.1,4-1.1,4.4-2.8c0.4-1.8,0.2-0.5,0.8-3.8c0.7-3.4-0.4-4.8-2.1-7c-1.7-2.2-1.6-3.8-0.5-5.2
			c1.1-1.4,1.1-1.4,2.9-3.3c1.8-1.8,3.1-1.1,5.8,1.5c1.3,1.4,2.6,1.8,3.6,1.8c1-0.6,1.8-1.1,3-1.5l7.4,11.2
			c-7.4,1.8-11.6,9.8-9.4,19.7c2.6,11,12.1,20,21.4,20c9.3,0,14.8-9,12.3-20c-1.8-7.5-6.7-14.1-12.6-17.4l-0.4,7.5l-11-16.9
			c-1.1-1.8-1-3.8,0.2-4.7l12.2-8.5l-0.5,10.8c9.4,4.6,17.5,14.1,21.2,25.3c0.8,1.6,2,2.9,4.9,3.8c2.5,0.7,3.8,1.4,4.2,4.4l0.6,5.8
			c0.2,3-1.1,3.2-3.4,3.1c-3.1-0.1-4,1.1-4.4,2.9s-0.2,0.5-0.8,3.8c-0.7,3.4,0.4,4.8,2.1,7c1.7,2.2,1.6,3.8,0.5,5.2
			c-1.1,1.4-1.1,1.4-2.9,3.3c-1.8,1.8-3.1,1.1-5.8-1.5c-2.6-2.6-5-1.8-5.8-1.6c-0.8,0.2-2.6,0.8-3.7,1.4c-1,0.6-2,1.1-1.7,5
			s-1.9,3.4-3.1,3.3l-5.8-1c-1.1-0.2-3.4-0.4-3.9-4.4c-0.5-4-1.6-4.8-2.7-5.8c-1.1-1-3.3-2.2-4.1-2.6c-0.9-0.5-3.4-2.2-5.6-0.3
			c-2.2,1.8-3.4,2.1-5.6-0.4s-2.2-2.6-3.6-4.3c-1.4-1.8-1.8-3.6-0.5-5.2c1.3-1.6,2.2-2.7,0.7-6.5c-1.4-3.8-1-2.4-1.7-4.2
			c-0.7-1.8-1.9-3.4-5.2-4.5C214.6,115.7,213.3,115.1,212.8,112z"/>
		
			<linearGradient id="SVGID_00000182529033565275588830000000013004742451342726_" gradientUnits="userSpaceOnUse" x1="289.62" y1="501.179" x2="223.3645" y2="489.0182" gradientTransform="matrix(1 0 0 1 0 -379.9023)">
			<stop  offset="8.011200e-04" style="stop-color:#871FFF"/>
			<stop  offset="1" style="stop-color:#80C7F5"/>
		</linearGradient>
		<path style="fill:url(#SVGID_00000182529033565275588830000000013004742451342726_);" d="M212.5,112.2l-0.6-5.8
			c-0.2-3,1.1-3.2,3.4-3.1c3.1,0.1,4-1.1,4.4-2.8c0.4-1.8,0.2-0.5,0.8-3.8c0.7-3.4-0.4-4.8-2.1-7c-1.7-2.2-1.6-3.8-0.5-5.2
			c1.1-1.4,1.1-1.4,2.9-3.3c1.8-1.8,3.1-1.1,5.8,1.5c1.3,1.4,2.6,1.8,3.6,1.8c1-0.6,1.8-1.1,3-1.5l7.4,11.2
			c-7.4,1.8-11.6,9.8-9.4,19.7c2.6,11,12.1,20,21.4,20c9.3,0,14.8-9,12.3-20c-1.8-7.5-6.7-14.1-12.6-17.4L252,104l-11.3-17
			c-1.1-1.8-1-3.8,0.2-4.7l12.2-8.6l-0.5,10.8c9.4,4.6,17.5,14.1,21.2,25.3c0.8,1.6,2,2.9,4.9,3.8c2.5,0.7,3.8,1.4,4.2,4.4l0.6,5.8
			c0.2,3-1.1,3.2-3.4,3.1c-3.1-0.1-4,1.1-4.4,2.9s-0.2,0.5-0.8,3.8c-0.7,3.4,0.4,4.8,2.1,7c1.7,2.2,1.6,3.8,0.5,5.2
			c-1.1,1.4-1.1,1.4-2.9,3.3c-1.8,1.8-3.1,1.1-5.8-1.5c-2.6-2.6-5-1.8-5.8-1.6c-0.8,0.2-2.6,0.8-3.7,1.4c-1,0.6-2,1.1-1.7,5
			c0.4,4-1.9,3.4-3.1,3.3l-5.8-1c-1.1-0.2-3.4-0.4-3.9-4.4c-0.4-4-1.6-4.8-2.7-5.8c-1.1-1-3.3-2.2-4.1-2.6c-0.9-0.5-3.4-2.2-5.6-0.3
			c-2.2,1.8-3.4,2.1-5.6-0.4s-2.2-2.6-3.6-4.3c-1.4-1.8-1.8-3.6-0.5-5.2c1.3-1.6,2.2-2.7,0.7-6.5c-1.4-3.8-1-2.4-1.7-4.2
			c-0.7-1.8-1.9-3.4-5.2-4.5C214.2,115.9,212.9,115.2,212.5,112.2z"/>
		
			<linearGradient id="SVGID_00000017505462294953960210000017297308542432267449_" gradientUnits="userSpaceOnUse" x1="289.4779" y1="501.5023" x2="223.2222" y2="489.3414" gradientTransform="matrix(1 0 0 1 0 -379.9023)">
			<stop  offset="8.011200e-04" style="stop-color:#871FFF"/>
			<stop  offset="1" style="stop-color:#80C7F5"/>
		</linearGradient>
		<path style="fill:url(#SVGID_00000017505462294953960210000017297308542432267449_);" d="M212.1,112.3l-0.6-5.8
			c-0.2-3,1.1-3.2,3.4-3.1c3.1,0.1,4-1.1,4.4-2.8c0.4-1.8,0.2-0.5,0.8-3.8c0.7-3.4-0.4-4.8-2.1-7c-1.7-2.2-1.6-3.8-0.5-5.2
			c1.1-1.4,1.1-1.4,2.9-3.3c1.8-1.8,3.1-1.1,5.8,1.5c1.3,1.4,2.6,1.8,3.6,1.8c1-0.6,1.8-1.1,3-1.5l7.4,11.2
			c-7.4,1.8-11.6,9.8-9.4,19.7c2.6,11,12.1,20,21.4,20c9.3,0,14.8-9,12.3-20c-1.8-7.5-6.7-14.1-12.6-17.4l-0.4,7.5l-11-16.7
			c-1.1-1.8-1-3.8,0.2-4.7L253,74l-0.5,10.8c9.4,4.6,17.5,14.1,21.2,25.3c0.8,1.6,2,2.9,4.9,3.8c2.5,0.7,3.8,1.4,4.2,4.4l0.6,5.8
			c0.2,3-1.1,3.2-3.4,3.1c-3.1-0.1-4,1.1-4.4,2.9c-0.4,1.8-0.2,0.5-0.8,3.8c-0.7,3.4,0.4,4.8,2.1,7c1.7,2.1,1.6,3.8,0.5,5.2
			c-1.1,1.4-1.1,1.4-2.9,3.3c-1.8,1.8-3.1,1.1-5.8-1.5c-2.6-2.6-5-1.8-5.8-1.6c-0.8,0.2-2.6,0.8-3.7,1.4c-1,0.6-2,1.1-1.7,5
			c0.4,4-1.9,3.4-3.1,3.3l-5.8-1c-1.1-0.2-3.4-0.4-3.9-4.4c-0.4-4-1.6-4.8-2.7-5.8c-1.1-1-3.3-2.2-4.1-2.6c-0.9-0.5-3.4-2.2-5.6-0.3
			c-2.2,1.8-3.4,2.1-5.6-0.4c-2.2-2.5-2.2-2.6-3.6-4.3c-1.4-1.8-1.8-3.6-0.5-5.2c1.3-1.6,2.2-2.7,0.7-6.5c-1.4-3.8-1-2.4-1.7-4.2
			c-0.7-1.8-1.9-3.4-5.2-4.5C214,116,212.6,115.3,212.1,112.3z"/>
		
			<linearGradient id="SVGID_00000170991706675605214050000001568541228756842910_" gradientUnits="userSpaceOnUse" x1="289.3731" y1="501.6217" x2="223.1174" y2="489.4609" gradientTransform="matrix(1 0 0 1 0 -379.9023)">
			<stop  offset="8.011200e-04" style="stop-color:#871FFF"/>
			<stop  offset="1" style="stop-color:#80C7F5"/>
		</linearGradient>
		<path style="fill:url(#SVGID_00000170991706675605214050000001568541228756842910_);" d="M211.8,112.5l-0.6-5.8
			c-0.2-3,1.1-3.2,3.4-3.1c3.1,0.1,4-1.1,4.4-2.8c0.4-1.8,0.2-0.5,0.8-3.8c0.7-3.4-0.4-4.8-2.1-7c-1.7-2.2-1.6-3.8-0.5-5.2
			c1.1-1.4,1.1-1.4,2.9-3.3c1.8-1.8,3.1-1.1,5.8,1.5c1.3,1.4,2.6,1.8,3.6,1.8c1-0.6,1.8-1.1,3-1.5l7.4,11.2
			c-7.4,1.8-11.6,9.8-9.4,19.7c2.6,11,12.1,20,21.4,20c9.3,0,14.8-9,12.3-20c-1.8-7.5-6.7-14.1-12.6-17.4l-0.4,7.5l-11-16.9
			c-1.1-1.8-1-3.8,0.2-4.7l12.2-8.6l-0.5,10.8c9.4,4.6,17.5,14.1,21.2,25.3c0.8,1.6,2,2.9,4.9,3.8c2.5,0.7,3.8,1.4,4.2,4.4l0.6,5.8
			c0.2,3-1.1,3.2-3.4,3.1c-3.1-0.1-4,1.1-4.4,2.9c-0.4,1.8-0.2,0.5-0.8,3.8c-0.7,3.4,0.4,4.8,2.1,7c1.7,2.1,1.6,3.8,0.5,5.2
			c-1.1,1.4-1.1,1.4-2.9,3.3c-1.8,1.8-3.1,1.1-5.8-1.5c-2.6-2.6-5-1.8-5.8-1.6c-0.8,0.2-2.6,0.8-3.7,1.4c-1,0.6-2,1.1-1.7,5
			c0.4,4-1.9,3.4-3.1,3.3l-5.8-1c-1.1-0.2-3.4-0.4-3.9-4.4c-0.4-4-1.6-4.8-2.7-5.8c-1.1-1-3.3-2.2-4.1-2.6c-0.9-0.5-3.4-2.2-5.6-0.3
			c-2.2,1.8-3.4,2.1-5.6-0.4c-2.2-2.5-2.2-2.6-3.6-4.3c-1.4-1.8-1.8-3.6-0.5-5.2c1.3-1.6,2.2-2.7,0.7-6.5c-1.4-3.8-1-2.4-1.7-4.2
			c-0.7-1.8-1.9-3.4-5.2-4.5C213.6,116.2,212.2,115.5,211.8,112.5z"/>
		
			<linearGradient id="SVGID_00000062885981077550683310000004133837607723177894_" gradientUnits="userSpaceOnUse" x1="289.2541" y1="501.8186" x2="222.9984" y2="489.6578" gradientTransform="matrix(1 0 0 1 0 -379.9023)">
			<stop  offset="8.011200e-04" style="stop-color:#871FFF"/>
			<stop  offset="1" style="stop-color:#80C7F5"/>
		</linearGradient>
		<path style="fill:url(#SVGID_00000062885981077550683310000004133837607723177894_);" d="M211.5,112.7l-0.6-5.8
			c-0.2-3,1.1-3.2,3.4-3.1c3.1,0.1,4-1.1,4.4-2.8c0.4-1.8,0.2-0.5,0.8-3.8c0.7-3.4-0.4-4.8-2.1-7c-1.7-2.1-1.6-3.8-0.5-5.2
			c1.1-1.4,1.1-1.4,2.9-3.3c1.8-1.8,3.1-1.1,5.8,1.5c1.3,1.4,2.6,1.8,3.6,1.8c1-0.6,1.8-1.1,3-1.5l7.4,11.2
			c-7.4,1.8-11.6,9.8-9.4,19.7c2.6,11,12.1,20,21.4,20c9.4,0,14.8-9,12.3-20c-1.8-7.5-6.7-14.1-12.6-17.4l-0.4,7.5l-11-16.9
			c-1.1-1.8-1-3.8,0.2-4.7l12.2-8.6l-0.5,10.8c9.4,4.6,17.5,14.1,21.2,25.3c0.8,1.6,2,2.9,4.9,3.8c2.5,0.7,3.8,1.4,4.2,4.4l0.6,5.8
			c0.2,3-1.1,3.2-3.4,3.1c-3.1-0.1-4,1.1-4.4,2.9c-0.4,1.8-0.2,0.5-0.8,3.8c-0.7,3.4,0.4,4.8,2.1,7s1.6,3.8,0.5,5.2
			c-1.1,1.4-1.1,1.4-2.9,3.3c-1.8,1.8-3.1,1.1-5.8-1.5c-2.6-2.6-5-1.8-5.8-1.6c-0.8,0.2-2.6,0.8-3.7,1.4c-1,0.6-2,1.1-1.7,5
			c0.3,3.9-1.9,3.4-3.1,3.3l-5.8-1c-1.1-0.2-3.4-0.4-3.9-4.4c-0.4-4-1.6-4.8-2.7-5.8c-1.1-1-3.3-2.2-4.1-2.6
			c-0.9-0.5-3.4-2.2-5.6-0.3c-2.2,1.8-3.4,2.1-5.6-0.4s-2.2-2.6-3.6-4.3c-1.4-1.8-1.8-3.6-0.5-5.2c1.4-1.6,2.2-2.7,0.7-6.5
			c-1.4-3.8-1-2.4-1.7-4.2c-0.7-1.8-1.9-3.4-5.2-4.5C213.3,116.4,212,115.7,211.5,112.7z"/>
		
			<linearGradient id="SVGID_00000109735596915178993560000002874668534615952304_" gradientUnits="userSpaceOnUse" x1="289.1208" y1="502.0929" x2="222.8652" y2="489.932" gradientTransform="matrix(1 0 0 1 0 -379.9023)">
			<stop  offset="8.011200e-04" style="stop-color:#871FFF"/>
			<stop  offset="1" style="stop-color:#80C7F5"/>
		</linearGradient>
		<path style="fill:url(#SVGID_00000109735596915178993560000002874668534615952304_);" d="M211.2,112.8l-0.6-5.8
			c-0.2-3,1.1-3.2,3.4-3.1c3.1,0.1,4-1.1,4.4-2.8c0.4-1.8,0.2-0.5,0.8-3.8c0.7-3.4-0.4-4.8-2.1-7c-1.7-2.1-1.6-3.8-0.5-5.2
			c1.1-1.4,1.1-1.4,2.9-3.3c1.8-1.8,3.1-1.1,5.8,1.5c1.3,1.4,2.6,1.8,3.6,1.8c1-0.6,1.8-1.1,3-1.5l7.4,11.2
			c-7.4,1.8-11.6,9.8-9.4,19.7c2.6,11,12.1,20,21.4,20c9.4,0,14.8-9,12.3-20c-1.8-7.5-6.7-14.1-12.6-17.4l-0.4,7.5l-11-16.9
			c-1.1-1.8-1-3.8,0.2-4.7l12.2-8.5l-0.5,10.8c9.4,4.6,17.5,14.1,21.2,25.3c0.8,1.6,2,2.9,4.9,3.8c2.5,0.7,3.8,1.4,4.2,4.4l0.6,5.8
			c0.2,3-1.1,3.2-3.4,3.1c-3.1-0.1-4,1.1-4.4,2.9c-0.4,1.8-0.2,0.5-0.8,3.8c-0.7,3.4,0.4,4.8,2.1,7s1.6,3.8,0.5,5.2
			c-1.1,1.4-1.1,1.4-2.9,3.3c-1.8,1.8-3.1,1.1-5.8-1.5c-2.6-2.6-5-1.8-5.8-1.6c-0.8,0.2-2.6,0.8-3.7,1.4c-1,0.6-2,1.1-1.7,5
			c0.3,3.9-1.9,3.4-3.1,3.3l-5.8-1c-1.1-0.2-3.4-0.4-3.9-4.4c-0.4-4-1.6-4.8-2.7-5.8c-1.1-1-3.3-2.2-4.1-2.6
			c-0.9-0.5-3.4-2.2-5.6-0.3s-3.4,2.1-5.6-0.4c-2.2-2.5-2.2-2.6-3.6-4.3c-1.4-1.8-1.8-3.6-0.5-5.2c1.3-1.6,2.2-2.7,0.7-6.5
			c-1.4-3.8-1-2.4-1.7-4.2c-0.7-1.8-1.9-3.4-5.2-4.5C212.9,116.5,211.6,115.9,211.2,112.8z"/>
		
			<linearGradient id="SVGID_00000088816434082522531610000014040689024684438411_" gradientUnits="userSpaceOnUse" x1="288.9877" y1="502.3671" x2="222.732" y2="490.2063" gradientTransform="matrix(1 0 0 1 0 -379.9023)">
			<stop  offset="8.011200e-04" style="stop-color:#871FFF"/>
			<stop  offset="1" style="stop-color:#80C7F5"/>
		</linearGradient>
		<path style="fill:url(#SVGID_00000088816434082522531610000014040689024684438411_);" d="M210.9,113l-0.6-5.8
			c-0.2-3,1.1-3.2,3.4-3.1c3.1,0.1,4-1.1,4.4-2.8c0.4-1.8,0.2-0.5,0.8-3.8c0.7-3.4-0.4-4.8-2.1-7s-1.6-3.8-0.5-5.2
			c1.1-1.4,1.1-1.4,2.9-3.3c1.8-1.8,3.1-1.1,5.8,1.5c1.3,1.4,2.6,1.8,3.6,1.8c1-0.6,1.8-1.1,3-1.5l7.4,11.2
			c-7.4,1.8-11.6,9.8-9.4,19.7c2.6,11,12.1,20,21.4,20c9.3,0,14.8-9,12.3-20c-1.8-7.5-6.7-14.1-12.6-17.4l-0.4,7.5l-11-16.9
			c-1.1-1.8-1-3.8,0.2-4.7l12.2-8.4l-0.5,10.8c9.4,4.6,17.5,14.1,21.2,25.3c0.8,1.6,2,2.9,4.9,3.8c2.5,0.7,3.8,1.4,4.2,4.4l0.6,5.8
			c0.2,3-1.1,3.2-3.4,3.1c-3.1-0.1-4,1.1-4.4,2.9c-0.4,1.8-0.2,0.5-0.8,3.8c-0.7,3.4,0.4,4.8,2.1,7s1.6,3.8,0.5,5.2
			c-1.1,1.4-1.1,1.4-2.9,3.3c-1.8,1.8-3.1,1.1-5.8-1.5c-2.6-2.6-5-1.8-5.8-1.6c-0.8,0.2-2.6,0.8-3.7,1.4c-1,0.6-2,1.1-1.7,5
			c0.3,3.9-1.9,3.4-3.1,3.3l-5.8-1c-1.1-0.2-3.4-0.4-3.9-4.4c-0.4-4-1.6-4.8-2.7-5.8c-1.1-1-3.3-2.2-4.1-2.6
			c-0.9-0.5-3.4-2.2-5.6-0.3c-2.2,1.8-3.4,2.1-5.6-0.4c-2.2-2.5-2.2-2.6-3.6-4.3c-1.4-1.8-1.8-3.6-0.5-5.2c1.4-1.6,2.2-2.7,0.7-6.5
			c-1.4-3.8-1-2.4-1.7-4.2c-0.7-1.8-1.9-3.4-5.2-4.5C212.6,116.7,211.2,116,210.9,113z"/>
		
			<linearGradient id="SVGID_00000010295170790249537700000001767273357383419562_" gradientUnits="userSpaceOnUse" x1="288.9035" y1="502.3745" x2="222.6478" y2="490.2137" gradientTransform="matrix(1 0 0 1 0 -379.9023)">
			<stop  offset="8.011200e-04" style="stop-color:#871FFF"/>
			<stop  offset="1" style="stop-color:#80C7F5"/>
		</linearGradient>
		<path style="fill:url(#SVGID_00000010295170790249537700000001767273357383419562_);" d="M210.5,113.2l-0.6-5.8
			c-0.2-3,1.1-3.2,3.4-3.1c3.1,0.1,4-1.1,4.4-2.8c0.4-1.8,0.2-0.5,0.8-3.8c0.7-3.4-0.4-4.8-2.1-7c-1.7-2.2-1.6-3.8-0.5-5.2
			c1.1-1.4,1.1-1.4,2.9-3.3c1.8-1.8,3.1-1.1,5.8,1.5c1.3,1.4,2.6,1.8,3.6,1.8c1-0.6,1.8-1.1,3-1.5l7.4,11.2
			c-7.4,1.8-11.6,9.8-9.4,19.7c2.6,11,12.1,20,21.4,20c9.3,0,14.8-9,12.3-20c-1.8-7.5-6.7-14.1-12.6-17.4l-0.4,7.5l-11.2-17
			c-1.1-1.8-1-3.8,0.2-4.7l12.2-8.6l-0.5,10.8c9.4,4.6,17.5,14.1,21.2,25.3c0.8,1.6,2,2.9,4.9,3.8c2.5,0.7,3.8,1.4,4.2,4.4l0.6,5.8
			c0.2,3-1.1,3.2-3.4,3.1c-3.1-0.1-4,1.1-4.4,2.9c-0.4,1.8-0.2,0.5-0.8,3.8c-0.7,3.4,0.4,4.8,2.1,7c1.7,2.1,1.6,3.8,0.5,5.2
			c-1.1,1.4-1.1,1.4-2.9,3.3c-1.8,1.8-3.1,1.1-5.8-1.5c-2.6-2.6-5-1.8-5.8-1.6c-0.8,0.2-2.6,0.8-3.7,1.4c-1,0.6-2,1.1-1.7,5
			c0.4,4-1.9,3.4-3.1,3.3l-5.8-1c-1.1-0.2-3.4-0.4-3.9-4.4c-0.4-4-1.6-4.8-2.7-5.8c-1.1-1-3.3-2.2-4.1-2.6c-0.9-0.5-3.4-2.2-5.6-0.3
			c-2.2,1.8-3.4,2.1-5.6-0.4s-2.2-2.6-3.6-4.3c-1.4-1.8-1.8-3.6-0.5-5.2c1.3-1.6,2.2-2.7,0.7-6.5c-1.4-3.8-1-2.4-1.7-4.2
			c-0.7-1.8-1.9-3.4-5.2-4.5C212.3,116.8,210.9,116.2,210.5,113.2z"/>
		
			<linearGradient id="SVGID_00000040547276849479028360000001336430393289823890_" gradientUnits="userSpaceOnUse" x1="288.7755" y1="502.6204" x2="222.5198" y2="490.4595" gradientTransform="matrix(1 0 0 1 0 -379.9023)">
			<stop  offset="8.011200e-04" style="stop-color:#871FFF"/>
			<stop  offset="1" style="stop-color:#80C7F5"/>
		</linearGradient>
		<path style="fill:url(#SVGID_00000040547276849479028360000001336430393289823890_);" d="M210.1,113.3l-0.6-5.8
			c-0.2-3,1.1-3.2,3.4-3.1c3.1,0.1,4-1.1,4.4-2.8c0.4-1.8,0.2-0.5,0.8-3.8c0.7-3.4-0.4-4.8-2.1-7c-1.7-2.1-1.6-3.8-0.5-5.2
			c1.1-1.4,1.1-1.4,2.9-3.3c1.8-1.8,3.1-1.1,5.8,1.5c1.3,1.4,2.6,1.8,3.6,1.8c1-0.6,1.8-1.1,3-1.5l7.4,11.2
			c-7.4,1.8-11.6,9.8-9.4,19.7c2.6,11,12.1,20,21.4,20c9.3,0,14.8-9,12.3-20c-1.8-7.5-6.7-14.1-12.6-17.4l-0.4,7.5l-11-16.9
			c-1.1-1.8-1-3.8,0.2-4.7l12.2-8.6l-0.5,10.8c9.4,4.6,17.5,14.1,21.2,25.3c0.8,1.6,2,2.9,4.9,3.8c2.5,0.7,3.8,1.4,4.2,4.4l0.6,5.8
			c0.2,3-1.1,3.2-3.4,3.1c-3.1-0.1-4,1.1-4.4,2.9c-0.4,1.8-0.2,0.5-0.8,3.8c-0.7,3.4,0.4,4.8,2.1,7c1.7,2.1,1.6,3.8,0.5,5.2
			c-1.1,1.4-1.1,1.4-2.9,3.3c-1.8,1.8-3.1,1.1-5.8-1.5c-2.6-2.6-5-1.8-5.8-1.6c-0.8,0.2-2.6,0.8-3.7,1.4c-1,0.6-2,1.1-1.7,5
			c0.3,3.9-1.9,3.4-3.1,3.3l-5.8-1c-1.1-0.2-3.4-0.4-3.9-4.4c-0.5-4-1.6-4.8-2.7-5.8c-1.1-1-3.3-2.2-4.1-2.6
			c-0.9-0.5-3.4-2.2-5.6-0.3s-3.4,2.1-5.6-0.4c-2.2-2.5-2.2-2.6-3.6-4.3c-1.4-1.8-1.8-3.6-0.5-5.2c1.3-1.6,2.2-2.7,0.7-6.5
			c-1.4-3.8-1-2.4-1.7-4.2s-1.9-3.4-5.2-4.5C212,117,210.5,116.4,210.1,113.3z"/>
		
			<linearGradient id="SVGID_00000089557981968427352620000003342844716904834705_" gradientUnits="userSpaceOnUse" x1="288.6423" y1="502.8946" x2="222.3866" y2="490.7338" gradientTransform="matrix(1 0 0 1 0 -379.9023)">
			<stop  offset="8.011200e-04" style="stop-color:#871FFF"/>
			<stop  offset="1" style="stop-color:#80C7F5"/>
		</linearGradient>
		<path style="fill:url(#SVGID_00000089557981968427352620000003342844716904834705_);" d="M209.8,113.6l-0.6-5.8
			c-0.2-3,1.1-3.2,3.4-3.1c3.1,0.1,4-1.1,4.4-2.8c0.4-1.8,0.2-0.5,0.8-3.8c0.7-3.4-0.4-4.8-2.1-7c-1.7-2.1-1.6-3.8-0.5-5.2
			c1.1-1.4,1.1-1.4,2.9-3.3c1.8-1.8,3.1-1.1,5.8,1.5c1.3,1.4,2.6,1.8,3.6,1.8c1-0.6,1.8-1.1,3-1.5l7.4,11.2
			c-7.4,1.8-11.6,9.8-9.4,19.7c2.6,11,12.1,20,21.4,20c9.4,0,14.8-9,12.3-20c-1.8-7.5-6.7-14.1-12.6-17.4l-0.4,7.5l-11-16.9
			c-1.1-1.8-1-3.8,0.2-4.7l12.2-8.6L250.2,86c9.4,4.6,17.5,14.1,21.2,25.3c0.8,1.6,2,2.9,4.9,3.8c2.5,0.7,3.8,1.4,4.2,4.4l0.6,5.8
			c0.2,3-1.1,3.2-3.4,3.1c-3.1-0.1-4,1.1-4.4,2.9c-0.4,1.8-0.2,0.5-0.8,3.8c-0.7,3.4,0.4,4.8,2.1,7s1.6,3.8,0.5,5.2
			c-1.1,1.4-1.1,1.4-2.9,3.3c-1.8,1.8-3.1,1.1-5.8-1.5c-2.6-2.6-5-1.8-5.8-1.6c-0.8,0.2-2.6,0.8-3.7,1.4c-1,0.6-2,1.1-1.7,5
			c0.3,3.9-1.9,3.4-3.1,3.3l-5.8-1c-1.1-0.2-3.4-0.4-3.9-4.4c-0.5-4-1.6-4.8-2.7-5.8c-1.1-1-3.3-2.2-4.1-2.6
			c-0.9-0.5-3.4-2.2-5.6-0.3c-2.2,1.8-3.4,2.1-5.6-0.4s-2.2-2.6-3.6-4.3c-1.4-1.8-1.8-3.6-0.5-5.2c1.3-1.6,2.2-2.7,0.7-6.5
			c-1.4-3.8-1-2.4-1.7-4.2c-0.7-1.8-1.9-3.4-5.2-4.5C211.7,117.2,210.3,116.5,209.8,113.6z"/>
		
			<linearGradient id="SVGID_00000151544963538938422450000006783663064304402079_" gradientUnits="userSpaceOnUse" x1="288.5233" y1="503.0915" x2="222.2677" y2="490.9306" gradientTransform="matrix(1 0 0 1 0 -379.9023)">
			<stop  offset="8.011200e-04" style="stop-color:#871FFF"/>
			<stop  offset="1" style="stop-color:#80C7F5"/>
		</linearGradient>
		<path style="fill:url(#SVGID_00000151544963538938422450000006783663064304402079_);" d="M209.5,113.7l-0.6-5.8
			c-0.2-3,1.1-3.2,3.4-3.1c3.1,0.1,4-1.1,4.4-2.8c0.4-1.8,0.2-0.5,0.8-3.8c0.7-3.4-0.4-4.8-2.1-7c-1.7-2.2-1.6-3.8-0.5-5.2
			c1.1-1.4,1.1-1.4,2.9-3.3c1.8-1.8,3.1-1.1,5.8,1.5c1.3,1.4,2.6,1.8,3.6,1.8c1-0.6,1.8-1.1,3-1.5l7.4,11.2
			c-7.4,1.8-11.6,9.8-9.4,19.7c2.6,11,12.1,20,21.4,20c9.4,0,14.8-9,12.3-20c-1.8-7.5-6.7-14.1-12.6-17.4l-0.4,7.5l-11-16.9
			c-1.1-1.8-1-3.8,0.2-4.7l12.2-8.6l-0.5,10.8c9.4,4.6,17.5,14.1,21.2,25.3c0.8,1.6,2,2.9,4.9,3.8c2.5,0.7,3.8,1.4,4.2,4.4l0.6,5.8
			c0.2,3-1.1,3.2-3.4,3.1c-3.1-0.1-4,1.1-4.4,2.9c-0.4,1.8-0.2,0.5-0.8,3.8c-0.7,3.4,0.4,4.8,2.1,7s1.6,3.8,0.5,5.2
			c-1.1,1.4-1.1,1.4-2.9,3.3c-1.8,1.8-3.1,1.1-5.8-1.5c-2.6-2.6-5-1.8-5.8-1.6c-0.8,0.2-2.6,0.8-3.7,1.4c-1,0.6-2,1.1-1.7,5
			c0.3,3.9-1.9,3.4-3.1,3.3l-5.8-1c-1.1-0.2-3.4-0.4-3.9-4.4c-0.5-4-1.6-4.8-2.7-5.8c-1.1-1-3.3-2.2-4.1-2.6
			c-0.9-0.5-3.4-2.2-5.6-0.3s-3.4,2.1-5.6-0.4s-2.2-2.6-3.6-4.3c-1.4-1.8-1.8-3.6-0.5-5.2c1.3-1.6,2.2-2.7,0.7-6.5
			c-1.4-3.8-1-2.4-1.7-4.2c-0.7-1.8-1.9-3.4-5.2-4.5C211.3,117.4,209.9,116.7,209.5,113.7z"/>
		
			<linearGradient id="SVGID_00000019677674959741115760000007831349033867022745_" gradientUnits="userSpaceOnUse" x1="288.4185" y1="503.211" x2="222.1628" y2="491.0502" gradientTransform="matrix(1 0 0 1 0 -379.9023)">
			<stop  offset="8.011200e-04" style="stop-color:#871FFF"/>
			<stop  offset="1" style="stop-color:#80C7F5"/>
		</linearGradient>
		<path style="fill:url(#SVGID_00000019677674959741115760000007831349033867022745_);" d="M209.2,113.8l-0.6-5.8
			c-0.2-3,1.1-3.2,3.4-3.1c3.1,0.1,4-1.1,4.4-2.8c0.4-1.8,0.2-0.5,0.8-3.8c0.7-3.4-0.4-4.8-2.1-7c-1.7-2.1-1.6-3.8-0.5-5.2
			c1.1-1.4,1.1-1.4,2.9-3.3c1.8-1.8,3.1-1.1,5.8,1.5c1.3,1.4,2.6,1.8,3.6,1.8c1-0.6,1.8-1.1,3-1.5l7.4,11.2
			c-7.4,1.8-11.6,9.8-9.4,19.7c2.6,11,12.1,20,21.4,20c9.3,0,14.8-9,12.3-20c-1.8-7.5-6.7-14.1-12.6-17.4l-0.4,7.5l-11-16.9
			c-1.1-1.8-1-3.8,0.2-4.7l12.2-8.6l-0.5,10.8c9.4,4.6,17.5,14.1,21.2,25.3c0.8,1.6,2,2.9,4.9,3.8c2.5,0.7,3.8,1.4,4.2,4.4l0.6,5.8
			c0.2,3-1.1,3.2-3.4,3.1c-3.1-0.1-4,1.1-4.4,2.9c-0.4,1.8-0.2,0.5-0.8,3.8c-0.7,3.4,0.4,4.8,2.1,7s1.6,3.8,0.5,5.2
			c-1.1,1.4-1.1,1.4-2.9,3.3c-1.8,1.8-3.1,1.1-5.8-1.5c-2.6-2.6-5-1.8-5.8-1.6c-0.8,0.2-2.6,0.8-3.7,1.4c-1,0.6-2,1.1-1.7,5
			c0.3,3.9-1.9,3.4-3.1,3.3l-5.8-1c-1.1-0.2-3.4-0.4-3.9-4.4c-0.4-4-1.6-4.8-2.7-5.8c-1.1-1-3.3-2.2-4.1-2.6
			c-0.9-0.5-3.4-2.2-5.6-0.3s-3.4,2.1-5.6-0.4s-2.2-2.6-3.6-4.3c-1.4-1.8-1.8-3.6-0.5-5.2c1.4-1.6,2.2-2.7,0.7-6.5
			c-1.4-3.8-1-2.4-1.7-4.2c-0.7-1.8-1.9-3.4-5.2-4.5C210.9,117.5,209.7,116.8,209.2,113.8z"/>
		
			<linearGradient id="SVGID_00000071517488177808923250000007508141453427001729_" gradientUnits="userSpaceOnUse" x1="288.2943" y1="503.4363" x2="222.0386" y2="491.2754" gradientTransform="matrix(1 0 0 1 0 -379.9023)">
			<stop  offset="8.011200e-04" style="stop-color:#871FFF"/>
			<stop  offset="1" style="stop-color:#80C7F5"/>
		</linearGradient>
		<path style="fill:url(#SVGID_00000071517488177808923250000007508141453427001729_);" d="M208.9,114l-0.6-5.8
			c-0.2-3,1.1-3.2,3.4-3.1c3.1,0.1,4-1.1,4.4-2.8c0.4-1.8,0.2-0.5,0.8-3.8c0.7-3.4-0.4-4.8-2.1-7c-1.7-2.1-1.6-3.8-0.5-5.2
			c1.1-1.4,1.1-1.4,2.9-3.3c1.8-1.8,3.1-1.1,5.8,1.5c1.3,1.4,2.6,1.8,3.6,1.8c1-0.6,1.8-1.1,3-1.5l7.4,11.2
			c-7.4,1.8-11.6,9.8-9.4,19.7c2.6,11,12.1,20,21.4,20c9.3,0,14.8-9,12.3-20c-1.8-7.5-6.7-14.1-12.6-17.4l-0.4,7.5l-11.2-17
			c-1.1-1.8-1-3.8,0.2-4.7l12.2-8.6l-0.5,10.8c9.4,4.6,17.5,14.1,21.2,25.3c0.8,1.6,2,2.9,4.9,3.8c2.5,0.7,3.8,1.4,4.2,4.4l0.6,5.8
			c0.2,3-1.1,3.2-3.4,3.1c-3.1-0.1-4,1.1-4.4,2.9c-0.4,1.8-0.2,0.5-0.8,3.8c-0.7,3.4,0.4,4.8,2.1,7c1.7,2.2,1.6,3.8,0.5,5.2
			c-1.1,1.4-1.1,1.4-2.9,3.3c-1.8,1.8-3.1,1.1-5.8-1.5c-2.6-2.6-5-1.8-5.8-1.6c-0.8,0.2-2.6,0.8-3.7,1.4s-2,1.1-1.7,5
			c0.4,4-1.9,3.4-3.1,3.3l-5.8-1c-1.1-0.2-3.4-0.4-3.9-4.4c-0.4-4-1.6-4.8-2.7-5.8c-1.1-1-3.3-2.2-4.1-2.6c-0.9-0.5-3.4-2.2-5.6-0.3
			c-2.2,1.8-3.4,2.1-5.6-0.4s-2.2-2.6-3.6-4.3c-1.4-1.8-1.8-3.6-0.5-5.2c1.3-1.6,2.2-2.7,0.7-6.5c-1.4-3.8-1-2.4-1.7-4.2
			c-0.7-1.8-1.9-3.4-5.2-4.5C210.6,117.6,209.3,117,208.9,114z"/>
		
			<linearGradient id="SVGID_00000135663220994532683630000017317993089911943081_" gradientUnits="userSpaceOnUse" x1="288.1495" y1="503.7737" x2="221.8938" y2="491.6129" gradientTransform="matrix(1 0 0 1 0 -379.9023)">
			<stop  offset="8.011200e-04" style="stop-color:#871FFF"/>
			<stop  offset="1" style="stop-color:#80C7F5"/>
		</linearGradient>
		<path style="fill:url(#SVGID_00000135663220994532683630000017317993089911943081_);" d="M208.5,114.2l-0.6-5.8
			c-0.2-3,1.1-3.2,3.4-3.1c3.1,0.1,4-1.1,4.4-2.8c0.4-1.8,0.2-0.5,0.8-3.8c0.7-3.4-0.4-4.8-2.1-7c-1.7-2.2-1.6-3.8-0.5-5.2
			c1.1-1.4,1.1-1.4,2.9-3.3c1.8-1.8,3.1-1.1,5.8,1.5c1.3,1.4,2.6,1.8,3.6,1.8c1-0.6,1.8-1.1,3-1.5l7.4,11.2
			c-7.4,1.8-11.6,9.8-9.4,19.7c2.6,11,12.1,20,21.4,20c9.3,0,14.8-9,12.3-20c-1.8-7.5-6.7-14.1-12.6-17.4l-0.4,7.5l-11-16.9
			c-1.1-1.8-1-3.8,0.2-4.7l12.2-8.5l-0.5,10.8c9.4,4.6,17.5,14.1,21.2,25.3c0.8,1.6,2,2.9,4.9,3.8c2.5,0.7,3.8,1.4,4.2,4.4l0.6,5.8
			c0.2,3-1.1,3.2-3.4,3.1c-3.1-0.1-4,1.1-4.4,2.9c-0.4,1.8-0.2,0.5-0.8,3.8c-0.7,3.4,0.4,4.8,2.1,7c1.7,2.2,1.6,3.8,0.5,5.2
			c-1.1,1.4-1.1,1.4-2.9,3.3c-1.8,1.8-3.1,1.1-5.8-1.5c-2.6-2.6-5-1.8-5.8-1.6c-0.8,0.2-2.6,0.8-3.7,1.4c-1,0.6-2,1.1-1.7,5
			c0.4,4-1.9,3.4-3.1,3.3l-5.8-1c-1.1-0.2-3.4-0.4-3.9-4.4c-0.4-4-1.6-4.8-2.7-5.8c-1.1-1-3.3-2.2-4.1-2.6c-0.9-0.5-3.4-2.2-5.6-0.3
			c-2.2,1.8-3.4,2.1-5.6-0.4c-2.2-2.5-2.2-2.6-3.6-4.3c-1.4-1.8-1.8-3.6-0.5-5.2c1.3-1.6,2.2-2.7,0.7-6.5c-1.4-3.8-1-2.4-1.7-4.2
			c-0.7-1.8-1.9-3.4-5.2-4.5C210.3,117.9,208.9,117.2,208.5,114.2z"/>
		
			<linearGradient id="SVGID_00000156573191486344826030000008611610255417074571_" gradientUnits="userSpaceOnUse" x1="288.0473" y1="503.879" x2="221.7917" y2="491.7182" gradientTransform="matrix(1 0 0 1 0 -379.9023)">
			<stop  offset="8.011200e-04" style="stop-color:#871FFF"/>
			<stop  offset="1" style="stop-color:#80C7F5"/>
		</linearGradient>
		<path style="fill:url(#SVGID_00000156573191486344826030000008611610255417074571_);" d="M208.2,114.4l-0.6-5.8
			c-0.2-3,1.1-3.2,3.4-3.1c3.1,0.1,4-1.1,4.4-2.8c0.4-1.8,0.2-0.5,0.8-3.8c0.7-3.4-0.4-4.8-2.1-7c-1.7-2.2-1.6-3.8-0.5-5.2
			c1.1-1.4,1.1-1.4,2.9-3.3c1.8-1.8,3.1-1.1,5.8,1.5c1.3,1.4,2.6,1.8,3.6,1.8c1-0.6,1.8-1.1,3-1.5l7.4,11.2
			c-7.4,1.8-11.6,9.8-9.4,19.7c2.6,11,12.1,20,21.4,20c9.3,0,14.8-9,12.3-20c-1.8-7.5-6.7-14.1-12.6-17.4l-0.4,7.5l-11-16.9
			c-1.1-1.8-1-3.8,0.2-4.7l12.2-8.6l-0.5,10.8c9.4,4.6,17.5,14.1,21.2,25.3c0.8,1.6,2,2.9,4.9,3.8c2.5,0.7,3.8,1.4,4.2,4.4l0.6,5.8
			c0.2,3-1.1,3.2-3.4,3.1c-3.1-0.1-4,1.1-4.4,2.9c-0.4,1.8-0.2,0.5-0.8,3.8c-0.7,3.4,0.4,4.8,2.1,7c1.7,2.2,1.6,3.8,0.5,5.2
			c-1.1,1.4-1.1,1.4-2.9,3.3c-1.8,1.8-3.1,1.1-5.8-1.5c-2.6-2.6-5-1.8-5.8-1.6c-0.8,0.2-2.6,0.8-3.7,1.4c-1,0.6-2,1.1-1.7,5
			c0.4,4-1.9,3.4-3.1,3.3l-5.8-1c-1.1-0.2-3.4-0.4-3.9-4.4c-0.4-4-1.6-4.8-2.7-5.8c-1.1-1-3.3-2.2-4.1-2.6c-0.9-0.5-3.4-2.2-5.6-0.3
			c-2.2,1.8-3.4,2.1-5.6-0.4s-2.2-2.6-3.6-4.3c-1.4-1.8-1.8-3.6-0.5-5.2c1.4-1.6,2.2-2.7,0.7-6.5c-1.4-3.8-1-2.4-1.7-4.2
			c-0.7-1.8-1.9-3.4-5.2-4.5C210,118,208.6,117.4,208.2,114.4z"/>
		
			<linearGradient id="SVGID_00000065761291253007985170000007189671563010021519_" gradientUnits="userSpaceOnUse" x1="287.9257" y1="504.0901" x2="221.67" y2="491.9293" gradientTransform="matrix(1 0 0 1 0 -379.9023)">
			<stop  offset="8.011200e-04" style="stop-color:#871FFF"/>
			<stop  offset="1" style="stop-color:#80C7F5"/>
		</linearGradient>
		<path style="fill:url(#SVGID_00000065761291253007985170000007189671563010021519_);" d="M207.8,114.5l-0.6-5.8
			c-0.2-3,1.1-3.2,3.4-3.1c3.1,0.1,4-1.1,4.4-2.8c0.4-1.8,0.2-0.5,0.8-3.8c0.7-3.4-0.4-4.8-2.1-7c-1.7-2.1-1.6-3.8-0.5-5.2
			c1.1-1.4,1.1-1.4,2.9-3.3c1.8-1.8,3.1-1.1,5.8,1.5c1.3,1.4,2.6,1.8,3.6,1.8c1-0.6,1.8-1.1,3-1.5l7.4,11.2
			c-7.4,1.8-11.6,9.8-9.4,19.7c2.6,11,12.1,20,21.4,20c9.3,0,14.8-9,12.3-20c-1.8-7.5-6.7-14.1-12.6-17.4l-0.4,7.5l-11-16.9
			c-1.1-1.8-1-3.8,0.2-4.7l12.2-8.6l-0.5,10.8c9.4,4.6,17.5,14.1,21.2,25.3c0.8,1.6,2,2.9,4.9,3.8c2.5,0.7,3.8,1.4,4.2,4.4l0.6,5.8
			c0.2,3-1.1,3.2-3.4,3.1c-3.1-0.1-4,1.1-4.4,2.9s-0.2,0.5-0.8,3.8c-0.7,3.4,0.4,4.8,2.1,7c1.7,2.1,1.6,3.8,0.5,5.2
			c-1.1,1.4-1.1,1.4-2.9,3.3c-1.8,1.8-3.1,1.1-5.8-1.5c-2.6-2.6-5-1.8-5.8-1.6c-0.8,0.2-2.6,0.8-3.7,1.4c-1,0.6-2,1.1-1.7,5
			s-1.9,3.4-3.1,3.3l-5.8-1c-1.1-0.2-3.4-0.4-3.9-4.4s-1.6-4.8-2.7-5.8c-1.1-1-3.3-2.2-4.1-2.6c-0.9-0.5-3.4-2.2-5.6-0.3
			c-2.2,1.8-3.4,2.1-5.6-0.4s-2.2-2.6-3.6-4.3c-1.4-1.8-1.8-3.6-0.5-5.2c1.3-1.6,2.2-2.7,0.7-6.5c-1.4-3.8-1-2.4-1.7-4.2
			c-0.7-1.8-1.9-3.4-5.2-4.5C209.7,118.1,208.3,117.5,207.8,114.5z"/>
	</g>
	<path class="st1" d="M207.7,114.5l-0.6-5.8c-0.2-3,1.1-3.2,3.4-3.1c3.1,0.1,4-1.1,4.4-2.8c0.4-1.8,0.2-0.5,0.8-3.8
		c0.7-3.4-0.4-4.8-2.1-7c-1.7-2.1-1.6-3.8-0.5-5.2c1.1-1.4,1.1-1.4,2.9-3.3c1.8-1.8,3.1-1.1,5.8,1.5c1.3,1.4,2.6,1.8,3.6,1.8
		c1-0.6,1.8-1.1,3-1.5l7.4,11.2c-7.4,1.8-11.6,9.8-9.4,19.7c2.6,11,12.1,20,21.4,20s14.8-9,12.3-20c-1.8-7.5-6.7-14.1-12.6-17.4
		l-0.4,7.5l-11-16.9c-1.1-1.8-1-3.8,0.2-4.7l12.2-8.6l-0.5,10.8c9.4,4.6,17.5,14.1,21.2,25.3c0.8,1.6,2,2.9,4.9,3.8
		c2.5,0.7,3.8,1.4,4.2,4.4l0.6,5.8c0.2,3-1.1,3.2-3.4,3.1c-3.1-0.1-4,1.1-4.4,2.9c-0.4,1.8-0.2,0.5-0.8,3.8c-0.7,3.4,0.4,4.8,2.1,7
		c1.7,2.1,1.6,3.8,0.5,5.2c-1.1,1.4-1.1,1.4-2.9,3.3c-1.8,1.8-3.1,1.1-5.8-1.5c-2.6-2.6-5-1.8-5.8-1.6c-0.8,0.2-2.6,0.8-3.7,1.4
		c-1,0.6-2,1.1-1.7,5c0.4,4-1.9,3.4-3.1,3.3l-5.8-1c-1.1-0.2-3.4-0.4-3.9-4.4c-0.4-4-1.6-4.8-2.7-5.8c-1.1-1-3.3-2.2-4.1-2.6
		c-0.9-0.5-3.4-2.2-5.6-0.3c-2.2,1.8-3.4,2.1-5.6-0.4s-2.2-2.6-3.6-4.3c-1.4-1.8-1.8-3.6-0.5-5.2c1.3-1.6,2.2-2.7,0.7-6.5
		c-1.4-3.8-1-2.4-1.7-4.2c-0.7-1.8-1.9-3.4-5.2-4.5C209.6,118.2,208.2,117.6,207.7,114.5z"/>
	<g>
		
			<linearGradient id="SVGID_00000090276760153759658390000002351121475484280238_" gradientUnits="userSpaceOnUse" x1="391.9125" y1="478.053" x2="429.9387" y2="478.053" gradientTransform="matrix(0.9997 -2.313016e-02 2.313016e-02 0.9997 -2.511 -386.56)">
			<stop  offset="0" style="stop-color:#871FFF"/>
			<stop  offset="1" style="stop-color:#80C7F5"/>
		</linearGradient>
		<path style="fill:url(#SVGID_00000090276760153759658390000002351121475484280238_);" d="M404,68.8l24.8-15.1
			c1-0.6,1.9-0.6,2.6-0.2l0,0l6.4,4c0,0-1.7,2.6-2.8,5.5l0.5,22.7c0.1,2.9-1.6,6.2-3.7,7.6l-20.2,12.2c-1.8,3.3-4.1,5-4.1,5l-4.7-3
			c-1.6-1.1-1.9-2.7-2-3.7l-0.6-27.4C400.1,73.6,401.9,70.1,404,68.8z"/>
		<path class="st18" d="M407.6,110.7l28.7-14.9c2.2-1.3,3.8-4.7,3.8-7.6l-0.6-27.4c-0.1-2.9-1.8-4.2-4-2.9L410.5,73
			c-2.2,1.3-3.8,4.7-3.8,7.6l0.6,26.2v1.2C407.5,108,407.6,110.6,407.6,110.7C407.5,110.6,407.6,110.7,407.6,110.7z"/>
		<g>
			<path class="st1" d="M422.8,80.2c-0.4,0.6-0.5,1.3-0.4,1.9c0.6,0.1,1.3,0.2,1.8,0.6c1.8,1.1,2.5,3.7,1.2,5.5l-3.2,5.1
				c-1.1,1.8-3.7,2.5-5.5,1.2c-1.8-1.1-2.5-3.7-1.2-5.5l2.4-3.8c-0.6-1.1-0.9-2.2-1-3.4c-0.2,0.2-0.4,0.4-0.5,0.6l-3.2,5.1
				c-1.9,3.1-1,7.3,2.1,9.2c3.1,1.9,7.3,1,9.2-2.1l3.2-5.1c1.9-3.1,1-7.3-2.1-9.2c-0.8-0.5-1.7-0.8-2.6-1L422.8,80.2z"/>
			<path class="st1" d="M422.5,72.9l-3.2,5.1c-1.9,3.1-1,7.3,2.1,9.2c0.8,0.5,1.7,0.8,2.6,1l0.4-0.6c0.4-0.6,0.5-1.3,0.4-1.9
				c-0.6-0.1-1.3-0.2-1.8-0.6c-1.8-1.1-2.5-3.7-1.2-5.5l3.2-5.1c1.1-1.8,3.7-2.5,5.5-1.2c1.8,1.1,2.5,3.7,1.2,5.5l-2.4,3.8
				c0.6,1.1,0.9,2.2,1,3.4c0.2-0.2,0.4-0.4,0.5-0.6l3.2-5.1c1.9-3.1,1-7.3-2.1-9.2C428.7,68.9,424.5,69.9,422.5,72.9z"/>
		</g>
	</g>
</g>
</svg>
