<svg xmlns="http://www.w3.org/2000/svg" height="800" width="1200" viewBox="-34.8 -13.5 301.6 81"><defs><clipPath id="a"><path d="M0 0h232v54H0z"/></clipPath></defs><g clip-path="url(#a)"><path d="M0 0h232v54H0z" fill="none" stroke="#fdfdfd" stroke-width=".1" stroke-miterlimit="10"/><path d="M23.4819 2.614c5.669-1.808 12.1309.566 12.2077 8.258.0916 6.634-8.252 11.2074-13.6706 7.2196-5.7843-3.4965-4.936-13.1645 1.4629-15.4777z" fill="#008adc"/><path d="M50.4298 4.5403c1.9209-1.1049 2.7832 1.2602 2.0777 3.2649-4.0313 11.9944-8.3036 24.0442-14.6794 35.0279-2.3738 3.727-4.9468 7.905-9.2077 9.6494-4.671 1.2372-8.0877-3.2052-10.5424-6.4858C10.69 34.9862 6.3132 22.327 1.8395 9.9403c-.6073-1.9163-2.0073-5.8025 1.315-5.604 2.5304 3.2011 3.871 7.129 5.9182 10.6287 4.4535 8.0391 8.712 16.307 14.5605 23.4444 1.1353 1.083 2.837 3.231 4.4857 1.844 2.5776-1.794 4.2216-4.5751 6.0094-7.0914C39.4856 24.926 44.1 16.2305 48.4758 7.4417c.5968-.9859.9573-2.2309 1.954-2.9014zM68.275 15.875c-1.6672.0604-3.3357.335-4.875.775-10.4896 2.6202-12.8237 18.4485-4.8 24.7 5.3532 3.8905 13.0154 4.1389 18.825 1.125 7.2485-3.9213 8.2026-14.501 3.9-20.925-2.8952-4.2137-8.0485-5.8563-13.05-5.675zm.825 5.375c2.795.0418 5.6 1.161 7.075 3.625 2.1372 3.7096 1.7996 8.9347-1.175 12.1-3.7647 3.3555-10.6805 2.9257-13.425-1.525-2.7717-4.7512-1.4033-12.7883 4.775-13.9.877-.2176 1.8183-.314 2.75-.3zm28.1038-1.3467c3.6126-3.307 8.7214-4.934 13.5362-3.6321 3.7314.6892 6.5083 4.0682 6.7695 7.8053.4208 6.4777.0637 12.983.1702 19.4724a1890.6905 1890.6905 0 00-6.2998-.0061c-.122-5.8444.217-11.7018-.1485-17.5365-.1304-2.6779-2.4953-5.0034-5.2335-4.7493-3.819-.2197-9.4846 1.958-8.6947 6.659.0424 5.2055.0283 10.4112.0512 15.6171a793.0527 793.0527 0 00-6.2112-.0136c.093-8.925.0245-17.8505.0467-26.7756 2.0177.0074 4.0356.058 6.0554.0538-.0104.7889-.0311 2.3167-.0415 3.1056zm42.6712-4.0783c-3.0925.0116-6.1464.6372-8.875 2.125-2.479 1.4894-3.8126 3.9575-4.825 6.475 2.08.0513 4.166.0694 6.25.075 1.0461-1.766 2.4998-3.2125 4.5629-3.595 3.6426-.4494 9.8545-.4844 10.2371 4.52-5.6019.5642-11.4263.7882-16.625 3.175-2.6378 1.1712-5.075 3.3456-5.55 6.325-.7876 3.485 1.33 7.1353 4.6 8.425 5.6108 2.4142 11.9842.7953 17.05-2.125.024.6304.101 1.7946.125 2.35 2.0202-.0051 4.3232-.0154 6.3464 0-.0064-13.5368-.0607-13.5028-.03-20.5-.2947-3.1706-3.1693-5.582-6.1414-6.3-2.2879-.5882-4.7197-.959-7.125-.95zM146.85 30.1c.03 2.0029.0627 3.997.125 6-3.8613 2.273-8.4815 4.324-13.025 3.15-2.8307-.9705-2.8228-5.2842-.15-6.45 4.0243-2.0322 8.643-2.2474 13.05-2.7zm44.35-14.725c-2.4636.0813-4.7463 1.0063-6.575 2.625-5.837-2.6651-12.8766-2.9885-18.725-.2-5.8767 2.8037-5.9528 12.1316-.45 15.4-2.17 1.1718-4.7329 2.9583-4.2 5.825-.0795 2.0117 1.814 2.9717 3.5 3.35-2.2486.6916-5.3035 1.7776-4.975 4.725.8714 4.1112 5.6913 4.928 9.2 5.375 6.541.41 13.7773.6027 19.525-3.025 3.4406-2.1005 3.7254-7.9128-.1-9.75-6.82-3.0971-14.6713.1977-21.6-2.425 1.1602-3.2908 4.758-1.7605 7.3-1.75 4.3277.1894 9.3014-.6572 12.25-4.125 2.4216-3.011 2.0116-6.8292.8707-10.2568 1.3051-.0426 2.5755.0277 3.9543.0068-.0151-1.949.0268-3.8264.025-5.775zm-16.4 5.15c3.5569-.0018 7.1697 1.5676 7.125 5.45-.5366 5.1358-7.3476 5.6387-11.225 4.3-3.9432-1.2244-4.1482-7.2721-.35-8.825 1.2381-.582 2.8332-.9242 4.45-.925zm-1.425 23.325c2.5648-.0461 5.1414.0397 7.7.025 1.1497.1295 4.3286.1829 3.175 2.2-2.7453 2.4055-6.7978 1.9613-10.2 2.175-2.5823-.2298-6.177.4754-7.625-2.3-.3459-.9338 1.0209-1.6162 1.775-1.75 1.714-.2301 3.444-.3189 5.175-.35zm38.05-28c-3.1981-.071-6.4163.7345-9.15 2.375-7.7984 4.893-8.1678 17.825-.8 23.275 7.6812 5.5527 20.7122 3.3957 24.375-6-2.1947.0337-4.6844.001-6.975.025-4.1734 6.516-15.6017 4.3733-16.475-3.575 7.8681-.063 15.7306.009 23.6-.05-.1456-4.8645-1.3594-10.2765-5.55-13.275-2.6516-1.7742-5.8269-2.704-9.025-2.775zm-.4 5.1c3.8097-.0152 7.6182 2.0274 8.2 6.15-5.4837.0362-10.968.0267-16.45.025.628-4.0961 4.4403-6.1598 8.25-6.175z" fill="#f5750c"/></g><text y="17.539" x="224.1029" style="line-height:0%" font-weight="700" font-family="Lucida Sans" fill="#f5750c"><tspan style="line-height:1.25" y="17.539" x="224.1029" font-size="4.8">TM</tspan></text></svg>